<svg xmlns="http://www.w3.org/2000/svg" xmlns:xlink="http://www.w3.org/1999/xlink" width="148.25" height="21.99" viewBox="0 0 148.25 21.99"><defs><style>.a{fill:none;}.b{clip-path:url(#a);}.c{fill:#d13239;}.d{fill:#fff;}</style><clipPath id="a"><rect class="a" width="148.25" height="21.99"/></clipPath></defs><g class="b"><path class="c" d="M0,10.995A10.995,10.995,0,1,0,10.995,0,10.995,10.995,0,0,0,0,10.995"/><path class="d" d="M7.658,15.316l4.4-5.686V6.52h-4.4v4.4H3.26v4.4Z" transform="translate(-1.061 -2.122)"/><path class="d" d="M17.78,13.117l5.194-6.6H17.955L9.78,17.1v2.617h4.4V14.83l3.777,4.884h5.019Z" transform="translate(-3.183 -2.122)"/><path class="d" d="M41.747,18.02a.236.236,0,0,1,0-.331L43.218,16a.189.189,0,0,1,.29,0,5.632,5.632,0,0,0,3.454,1.349c1.349,0,2.152-.641,2.152-1.572,0-.776-.465-1.261-2.024-1.47l-.675-.1c-2.7-.364-4.169-1.626-4.169-3.953s1.821-4.047,4.675-4.047A7.494,7.494,0,0,1,51.4,7.558c.115.081.135.155.034.29L50.2,9.642a.189.189,0,0,1-.27.054,5.5,5.5,0,0,0-3.062-1.005c-1.167,0-1.767.6-1.767,1.437s.54,1.241,2.024,1.45l.675.1c2.7.364,4.148,1.605,4.148,3.993s-1.761,4.148-5.174,4.148a7.784,7.784,0,0,1-5.079-1.8" transform="translate(-13.565 -2.02)"/><path class="d" d="M68.455,19.7a.243.243,0,0,1-.25-.189l-2.293-8.2h0l-2.341,8.2a.256.256,0,0,1-.256.189H61.379a.25.25,0,0,1-.236-.189L57.73,6.7c0-.115,0-.189.155-.189h2.5a.216.216,0,0,1,.236.189l1.9,8.283h.04l2.246-8.27a.256.256,0,0,1,.256-.189h1.686a.25.25,0,0,1,.236.189L69.305,15h.074L71.2,6.712a.2.2,0,0,1,.2-.189h2.482c.135,0,.175.074.155.189L70.668,19.528a.236.236,0,0,1-.256.189Z" transform="translate(-18.789 -2.118)"/><rect class="d" width="2.853" height="13.187" rx="0.29" transform="translate(56.459 4.405)"/><path class="d" d="M90.529,18.02a.243.243,0,0,1,0-.331L92.006,16a.189.189,0,0,1,.29,0,5.612,5.612,0,0,0,3.454,1.349c1.349,0,2.152-.641,2.152-1.572,0-.776-.465-1.261-2.024-1.47l-.675-.1c-2.7-.364-4.169-1.626-4.169-3.953s1.821-4.047,4.675-4.047a7.481,7.481,0,0,1,4.479,1.349c.115.081.135.155.04.29L99.041,9.615a.189.189,0,0,1-.27.054,5.471,5.471,0,0,0-3.062-1.005c-1.16,0-1.767.6-1.767,1.437s.546,1.241,2.024,1.45l.675.1c2.7.364,4.148,1.605,4.148,3.993s-1.767,4.148-5.18,4.148a7.784,7.784,0,0,1-5.079-1.8" transform="translate(-29.443 -2.02)"/><path class="d" d="M107.687,18.02a.236.236,0,0,1,0-.331L109.158,16a.189.189,0,0,1,.29,0,5.632,5.632,0,0,0,3.454,1.349c1.349,0,2.152-.641,2.152-1.572,0-.776-.465-1.261-2.024-1.47l-.675-.1c-2.7-.364-4.175-1.626-4.175-3.953s1.828-4.047,4.675-4.047a7.481,7.481,0,0,1,4.479,1.349c.121.081.135.155.04.29l-1.18,1.767a.189.189,0,0,1-.27.054,5.5,5.5,0,0,0-3.069-1.005c-1.16,0-1.761.6-1.761,1.437s.54,1.241,2.024,1.45l.675.1c2.7.364,4.148,1.605,4.148,3.993s-1.767,4.148-5.174,4.148a7.818,7.818,0,0,1-5.086-1.8" transform="translate(-35.026 -2.02)"/><path class="d" d="M132.57,6.718a.175.175,0,0,1,.189-.189h2.462a.182.182,0,0,1,.2.189v5.707L139.8,6.7a.331.331,0,0,1,.331-.175h2.847c.115,0,.169.135.074.25l-3.993,5.005,4.364,7.7c.074.135,0,.229-.121.229h-2.847a.263.263,0,0,1-.29-.175l-2.988-5.545-1.727,2.172v3.373a.182.182,0,0,1-.2.189h-2.462a.175.175,0,0,1-.189-.189Z" transform="translate(-43.146 -2.124)"/><path class="d" d="M157.831,19.707a.27.27,0,0,1-.3-.189l-2.266-4.83h-1.761c-.081,0-.121.034-.121.115v4.722a.182.182,0,0,1-.2.189h-2.462a.175.175,0,0,1-.189-.189V6.709a.175.175,0,0,1,.189-.189h5.261c2.7,0,4.472,1.686,4.472,4.088a3.865,3.865,0,0,1-2.341,3.656l2.6,5.2a.148.148,0,0,1-.135.229Zm-.236-9.093a1.605,1.605,0,0,0-1.788-1.626h-2.32c-.081,0-.121.034-.121.115v3.042a.108.108,0,0,0,.121.121h2.32a1.612,1.612,0,0,0,1.788-1.653" transform="translate(-48.995 -2.122)"/><path class="d" d="M168.149,16.625a10.69,10.69,0,0,1-.371-3.609,10.69,10.69,0,0,1,.371-3.609,5.216,5.216,0,0,1,9.619,0,10.738,10.738,0,0,1,.364,3.609,10.738,10.738,0,0,1-.364,3.609,5.216,5.216,0,0,1-9.619,0m6.887-.776a9.748,9.748,0,0,0,.209-2.833,9.748,9.748,0,0,0-.209-2.833,2.212,2.212,0,0,0-4.155,0,9.747,9.747,0,0,0-.209,2.833,9.747,9.747,0,0,0,.209,2.833,2.212,2.212,0,0,0,4.155,0" transform="translate(-54.597 -2.021)"/><path class="d" d="M186.21,6.719a.182.182,0,0,1,.2-.189h2.354a.364.364,0,0,1,.331.189l4.654,8.3h.094v-8.3a.182.182,0,0,1,.2-.189h2.145a.175.175,0,0,1,.189.189V19.535a.175.175,0,0,1-.189.189h-2.307a.337.337,0,0,1-.331-.189l-4.675-8.283h-.094v8.27a.182.182,0,0,1-.2.189h-2.192a.182.182,0,0,1-.2-.189Z" transform="translate(-60.598 -2.125)"/><path class="d" d="M204.809,16.641a10.692,10.692,0,0,1-.371-3.609,10.692,10.692,0,0,1,.371-3.575,5.216,5.216,0,0,1,9.619,0,10.738,10.738,0,0,1,.364,3.609,10.738,10.738,0,0,1-.364,3.609,5.205,5.205,0,0,1-9.619-.034m6.88-.776a9.639,9.639,0,0,0,.216-2.833,9.639,9.639,0,0,0-.216-2.833,2.206,2.206,0,0,0-4.148,0,9.64,9.64,0,0,0-.216,2.833,9.639,9.639,0,0,0,.216,2.833,2.206,2.206,0,0,0,4.148,0" transform="translate(-66.529 -2.037)"/></g></svg>