<?xml version="1.0" standalone="no"?>
<!DOCTYPE svg PUBLIC "-//W3C//DTD SVG 20010904//EN"
 "http://www.w3.org/TR/2001/REC-SVG-20010904/DTD/svg10.dtd">
<svg version="1.0" xmlns="http://www.w3.org/2000/svg"
 width="700.000000pt" height="700.000000pt" viewBox="0 0 700.000000 700.000000"
 preserveAspectRatio="xMidYMid meet">
<metadata>
Created by potrace 1.11, written by Peter Selinger 2001-2013
</metadata>
<g transform="translate(0.000000,700.000000) scale(0.100000,-0.100000)"
fill="#000000" stroke="none">
<path d="M3285 6994 c-16 -2 -84 -9 -150 -15 -66 -6 -181 -22 -255 -35 -1305
-238 -2374 -1203 -2744 -2480 -351 -1214 -10 -2530 889 -3429 567 -568 1264
-908 2070 -1012 195 -25 615 -25 810 0 701 90 1302 351 1845 802 132 110 338
318 449 455 l94 115 -795 3 -795 2 -599 773 -599 774 -3 -774 -2 -773 -700 0
-700 0 0 416 0 416 1301 1684 1302 1684 795 2 795 3 -64 80 c-577 718 -1402
1177 -2316 1291 -119 14 -560 27 -628 18z m215 -1886 l0 -493 -698 -905 -698
-905 -702 -3 -702 -2 0 700 0 700 700 0 700 0 0 700 0 700 700 0 700 0 0 -492z"/>
<path d="M5468 4550 c-452 -572 -823 -1045 -823 -1050 0 -12 1644 -2090 1653
-2090 12 0 145 199 221 328 193 326 335 697 410 1070 52 255 65 399 65 692 0
293 -13 437 -65 692 -93 462 -293 928 -562 1310 -34 48 -65 88 -69 88 -3 0
-377 -468 -830 -1040z"/>
</g>
</svg>
