<?xml version="1.0" encoding="utf-8"?>
<!-- Generator: Adobe Illustrator 24.0.3, SVG Export Plug-In . SVG Version: 6.00 Build 0)  -->
<svg version="1.1" id="Layer_1" xmlns="http://www.w3.org/2000/svg" xmlns:xlink="http://www.w3.org/1999/xlink" x="0px" y="0px"
	 viewBox="0 0 128 128" style="enable-background:new 0 0 128 128;" xml:space="preserve">
<g id="Group_291_1_">
	<path id="Path_196_1_" d="M35.7,10.5l-24.9,6.3v4.5l23-5.6v95.1l-23-5.5v4.5l25.6,6.3l80.8-6.3v-4.6l-78.7,6V15.4l78.6,6v-4.6
		L35.7,10.5z"/>
</g>
<g>
	<g id="Group_576_1_">
		<g id="Group_296_1_">
			<g id="Group_292_1_">
				<path id="Path_197_1_" d="M80.9,90.7v-9.3c0-0.8-0.1-1.6-0.3-2.3c-0.2-0.6-0.6-1.2-1-1.7c-0.5-0.5-1-0.8-1.7-1.1
					c-0.7-0.2-1.5-0.4-2.2-0.3c-0.5,0-1,0.1-1.5,0.2c-0.5,0.1-0.9,0.3-1.4,0.5c-0.4,0.2-0.8,0.5-1.2,0.9c-0.4,0.4-0.7,0.8-0.9,1.3
					c-0.3-0.8-0.8-1.4-1.4-2c-0.7-0.5-1.5-0.8-2.4-0.7c-0.4,0-0.8,0.1-1.2,0.2c-0.7,0.2-1.4,0.6-2,1.1c-0.3,0.3-0.6,0.5-0.8,0.8
					L62.7,77c-0.1-0.4-0.5-0.7-0.9-0.6h-2.2v15.3l3.7-0.2V80.4c0.4-0.4,0.8-0.8,1.3-1.1c0.5-0.3,1-0.4,1.5-0.4
					c0.7-0.1,1.3,0.2,1.8,0.6c0.5,0.6,0.7,1.4,0.6,2.2v9.5l3.7-0.2v-9.5c0-0.4,0.1-0.8,0.2-1.2c0.3-0.7,0.8-1.2,1.5-1.5
					c0.3-0.1,0.7-0.2,1-0.2c0.7-0.1,1.4,0.2,1.9,0.7c0.5,0.6,0.7,1.3,0.6,2.1v9.4L80.9,90.7z"/>
			</g>
			<g id="Group_293_1_">
				<path id="Path_198_1_" d="M105.8,89.7v-8.9c0-0.8-0.1-1.5-0.3-2.2c-0.4-1.3-1.4-2.3-2.7-2.7c-1.2-0.4-2.5-0.5-3.7-0.2
					c-0.5,0.1-0.9,0.3-1.4,0.5c-0.4,0.2-0.8,0.5-1.2,0.9c-0.4,0.4-0.7,0.8-0.9,1.2c-0.3-0.8-0.8-1.4-1.4-1.9
					c-0.7-0.5-1.5-0.7-2.3-0.6c-0.8,0-1.6,0.2-2.3,0.6c-0.3,0.2-0.6,0.4-0.9,0.6c-0.3,0.2-0.6,0.5-0.8,0.8l-0.2-1.1
					c-0.1-0.4-0.5-0.7-0.9-0.6h-2.2v14.6l3.7-0.2V79.8c0.4-0.4,0.8-0.8,1.3-1.1c0.5-0.3,1-0.4,1.5-0.4c0.7-0.1,1.3,0.2,1.8,0.6
					c0.5,0.6,0.7,1.3,0.6,2.1v9.1l3.7-0.2v-9c0-0.4,0.1-0.8,0.2-1.2c0.1-0.3,0.3-0.6,0.6-0.9c0.2-0.2,0.5-0.4,0.8-0.5
					c0.3-0.1,0.7-0.2,1.1-0.2c0.7-0.1,1.4,0.2,1.8,0.6c0.5,0.6,0.7,1.3,0.6,2v9L105.8,89.7z"/>
			</g>
			<g id="Group_294_1_">
				<path id="Path_199_1_" d="M69.6,36.7l-10,8l1.8,2.5c0.1,0.2,0.3,0.3,0.4,0.4c0.2,0.1,0.4,0.2,0.6,0.3c0.5,0.1,1.1,0,1.5-0.4
					l4.7-3.7c0,0.8,0,1.5,0,2.3v18.8h-6.6V69L80,69v-4.1h-5.8V37L69.6,36.7z"/>
			</g>
			<g id="Group_295_1_">
				<path id="Path_200_1_" d="M104.9,46.8c-0.5-1.8-1.4-3.5-2.5-4.9c-1-1.3-2.3-2.3-3.8-3c-1.5-0.7-3.1-1.1-4.8-1.2
					c-1.6-0.1-3.2,0.1-4.7,0.7c-1.5,0.6-2.8,1.5-3.8,2.8c-1.2,1.4-2,3.1-2.5,4.9c-0.7,2.3-1,4.7-0.9,7.1c0,2.4,0.3,4.8,0.9,7.2
					c0.5,1.8,1.4,3.5,2.5,5c1,1.2,2.3,2.2,3.8,2.9c1.5,0.6,3.1,1,4.7,0.9c1.6,0,3.3-0.3,4.8-1c1.5-0.6,2.8-1.6,3.8-2.9
					c1.2-1.4,2-3.1,2.6-4.8c0.6-2.2,1-4.5,0.9-6.8C105.8,51.4,105.5,49.1,104.9,46.8 M99.5,59.1c-0.3,1.2-0.7,2.4-1.4,3.5
					c-0.5,0.8-1.2,1.4-2,1.8c-1.5,0.7-3.2,0.7-4.7,0c-0.8-0.4-1.5-1.1-2-1.8c-0.7-1.1-1.1-2.3-1.4-3.5c-0.4-1.9-0.5-3.7-0.5-5.6
					c0-1.9,0.1-3.8,0.5-5.6c0.2-1.2,0.7-2.4,1.4-3.5c0.5-0.8,1.2-1.3,2-1.7c0.7-0.3,1.5-0.5,2.3-0.4c0.8,0,1.6,0.2,2.4,0.6
					c0.8,0.4,1.5,1.1,2,1.9c0.6,1.1,1.1,2.2,1.4,3.5c0.4,1.8,0.6,3.7,0.5,5.5C100,55.4,99.9,57.3,99.5,59.1"/>
			</g>
		</g>
	</g>
</g>
</svg>
