<?xml version="1.0" encoding="utf-8"?>
<!-- Generator: Adobe Illustrator 24.0.3, SVG Export Plug-In . SVG Version: 6.00 Build 0)  -->
<svg version="1.1" id="Layer_1" xmlns="http://www.w3.org/2000/svg" xmlns:xlink="http://www.w3.org/1999/xlink" x="0px" y="0px"
	 viewBox="0 0 128 128" style="enable-background:new 0 0 128 128;" xml:space="preserve">
<g>
	<path d="M15.4,53.2c0.4,0.3,0.9,0.5,1.5,0.6c0.6,0.1,1.2,0.1,1.9,0c0.7-0.2,1.3-0.4,1.9-1l11.5-9.7c-0.1,1.9-0.2,3.9-0.2,5.7v46.9
		H15.9V106h44.5V95.7H45.9V25.4H34.6L10.1,46.3l4.3,6C14.6,52.6,15,52.9,15.4,53.2z"/>
	<path d="M72.2,27.2c-3.5,1.7-6.7,4.1-9.3,7.6c-2.6,3.4-4.7,7.7-6.1,12.8c-1.5,5.1-2.2,11.3-2.2,18.3s0.8,13.1,2.2,18.3
		c1.5,5.1,3.5,9.4,6.1,12.8c2.6,3.4,5.7,5.9,9.3,7.5c3.5,1.7,7.5,2.4,11.6,2.4c3.5,0,6.9-0.6,10-1.9V90.3c-1.3,1.8-2.7,3-4.2,3.8
		c-1.9,0.9-3.8,1.3-5.8,1.3c-1.9,0-3.9-0.4-5.7-1.3c-1.9-0.9-3.5-2.5-4.9-4.7c-1.4-2.3-2.5-5.3-3.4-9.1s-1.3-8.7-1.3-14.5
		c0-5.8,0.4-10.6,1.3-14.5c0.8-3.8,1.9-6.8,3.4-9.1c1.4-2.3,3-3.9,4.9-4.8c1.9-0.9,3.7-1.3,5.7-1.3c2,0,4,0.4,5.8,1.3
		c1.6,0.8,2.9,2,4.2,3.8V26.5c-3.1-1.2-6.4-1.9-10-1.9C79.7,24.6,75.9,25.5,72.2,27.2z"/>
	<path d="M28.7,113.6c-0.2,0-0.3,0-0.4,0.2c-0.1,0.1-0.2,0.2-0.3,0.3l-2.9,9.6c-0.1,0.2-0.1,0.3-0.1,0.5c0,0.2-0.1,0.4-0.1,0.6
		c-0.1-0.2-0.1-0.4-0.2-0.6c-0.1-0.2-0.1-0.3-0.2-0.5l-3.2-9.6c-0.1-0.2-0.2-0.3-0.3-0.3c-0.1-0.1-0.3-0.1-0.4-0.1h-0.5
		c-0.2,0-0.3,0.1-0.4,0.2c-0.1,0.1-0.2,0.2-0.3,0.3l-3.3,9.6c-0.1,0.2-0.1,0.3-0.2,0.6c-0.1,0.2-0.1,0.4-0.2,0.7
		c0-0.3-0.1-0.4-0.1-0.7c-0.1-0.2-0.1-0.4-0.2-0.6l-2.9-9.6c0-0.2-0.1-0.3-0.3-0.3c-0.1-0.1-0.3-0.1-0.4-0.1h-1.4l4.4,13.6h1.7
		l3.5-10.5c0-0.1,0.1-0.3,0.1-0.3s0.1-0.3,0.1-0.3c0,0.2,0.1,0.3,0.1,0.3s0.1,0.3,0.1,0.3l3.5,10.5h1.7l4.3-13.8
		C30.1,113.6,28.7,113.6,28.7,113.6z"/>
	<path d="M35.2,113.6l-5.5,13.8h1.4c0.2,0,0.3-0.1,0.4-0.2c0.1-0.1,0.2-0.2,0.3-0.3l1.3-3.4h6.1l1.3,3.4c0.1,0.2,0.1,0.3,0.3,0.3
		c0.1,0.1,0.3,0.2,0.4,0.2h1.4L37,113.6H35.2z M33.6,122.3l2.2-5.6c0.2-0.3,0.3-0.8,0.4-1.3c0.1,0.3,0.2,0.5,0.2,0.7
		c0.1,0.3,0.2,0.4,0.2,0.6l2.2,5.6H33.6z"/>
	<path d="M49.9,121.3c0.5-0.1,1-0.3,1.4-0.5c0.4-0.3,0.8-0.5,1.1-0.8c0.3-0.3,0.5-0.8,0.7-1.2s0.3-0.8,0.3-1.3
		c0-0.6-0.1-1.1-0.3-1.6c-0.2-0.5-0.5-0.8-0.9-1.2c-0.4-0.3-0.9-0.6-1.6-0.8c-0.7-0.2-1.4-0.3-2.3-0.3h-3.9v13.8h1.9v-5.7h1.4
		c0.3,0,0.4,0,0.6,0.1c0.2,0.1,0.3,0.2,0.3,0.3l3.6,5c0.2,0.3,0.4,0.4,0.8,0.4h1.7l-4-5.5C50.4,121.7,50.2,121.4,49.9,121.3z
		 M48.2,120.2h-1.9V115h2c1.1,0,1.9,0.2,2.4,0.6c0.5,0.4,0.8,1,0.8,1.9c0,0.4-0.1,0.8-0.3,1.1c-0.2,0.3-0.3,0.6-0.6,0.8
		c-0.3,0.3-0.6,0.4-1,0.6C49.3,120.1,48.7,120.2,48.2,120.2z"/>
	<path d="M62,121.3c0.5-0.1,1-0.3,1.4-0.5c0.4-0.3,0.8-0.5,1.1-0.8c0.3-0.3,0.5-0.8,0.7-1.2c0.2-0.4,0.3-0.8,0.3-1.3
		c0-0.6-0.1-1.1-0.3-1.6c-0.2-0.5-0.5-0.8-0.9-1.2c-0.4-0.3-0.9-0.6-1.6-0.8c-0.6-0.2-1.3-0.3-2.3-0.3h-3.9v13.8h1.9v-5.7h1.4
		c0.3,0,0.4,0,0.6,0.1c0.1,0.1,0.3,0.2,0.3,0.3l3.5,5c0.2,0.3,0.4,0.4,0.8,0.4h1.7l-4-5.5C62.5,121.7,62.2,121.4,62,121.3z
		 M60.3,120.2h-1.9V115h2c1.1,0,1.9,0.2,2.4,0.6c0.5,0.4,0.8,1,0.8,1.9c0,0.4-0.1,0.8-0.3,1.1c-0.2,0.3-0.3,0.6-0.6,0.8
		c-0.3,0.3-0.6,0.4-1,0.6C61.3,120.1,60.8,120.2,60.3,120.2z"/>
	<path d="M72.3,113.6l-5.6,13.8h1.4c0.2,0,0.3-0.1,0.4-0.2c0.1-0.1,0.2-0.2,0.3-0.3l1.3-3.4h6.1l1.3,3.4c0.1,0.2,0.2,0.3,0.3,0.3
		c0.1,0.1,0.3,0.2,0.4,0.2h1.4l-5.5-13.8H72.3z M70.7,122.3l2.2-5.6c0.2-0.3,0.3-0.8,0.4-1.3c0.1,0.3,0.2,0.5,0.2,0.7
		c0.1,0.3,0.2,0.4,0.2,0.6l2.2,5.6H70.7z"/>
	<path d="M91.1,123.3c0,0.2,0,0.3,0,0.4c0,0.2,0,0.3,0,0.5l-8-10.4c-0.1-0.1-0.1-0.1-0.2-0.2c-0.1,0-0.1-0.1-0.2-0.1
		c0,0-0.1,0-0.2-0.1c-0.1,0-0.2,0-0.2,0h-0.9v13.8h1.6v-9.9c0-0.2,0-0.3,0-0.4s0-0.3,0-0.5l8,10.4c0.1,0.1,0.2,0.2,0.3,0.3
		c0.1,0.1,0.3,0.1,0.3,0.1h0.9v-13.8H91L91.1,123.3L91.1,123.3z"/>
	<polygon points="94.7,115.2 99.3,115.2 99.3,127.4 101.1,127.4 101.1,115.2 105.6,115.2 105.6,113.6 94.7,113.6 	"/>
	<path d="M116.2,113.6c-0.2,0-0.3,0-0.4,0.2c-0.1,0.1-0.2,0.2-0.3,0.3l-3.1,5.4c-0.1,0.3-0.2,0.4-0.3,0.6c-0.1,0.2-0.2,0.4-0.3,0.6
		c-0.1-0.2-0.2-0.4-0.3-0.6s-0.2-0.4-0.3-0.6l-3.1-5.4c-0.1-0.2-0.2-0.3-0.3-0.3c-0.1-0.1-0.3-0.1-0.4-0.1h-1.6l5.1,8.3v5.5h1.9
		v-5.5l5.1-8.3L116.2,113.6L116.2,113.6z"/>
	<path d="M107.3,98.5l-9.1,5.6c-0.1,0.1-0.2,0.2-0.3,0.2c-0.1,0-0.1,0.2-0.1,0.3v1.3l11.6-7.3h8.1v-1.4h-8.1l-11.6-7.3v1.3
		c0,0.2,0,0.3,0.1,0.3c0.1,0.1,0.2,0.2,0.3,0.2l9.1,5.6c0.3,0.1,0.4,0.3,0.6,0.3c0.2,0.1,0.4,0.2,0.6,0.3c-0.2,0.1-0.4,0.2-0.6,0.3
		C107.7,98.3,107.5,98.4,107.3,98.5z"/>
	<polygon points="117.6,74.9 116.5,74.9 116.5,85.3 108.2,85.3 108.2,76.7 107,76.7 107,85.3 99.1,85.3 99.1,74.9 97.9,74.9 
		97.9,86.7 117.6,86.7 	"/>
	<path d="M117.2,57.2c0.1-0.1,0.2-0.1,0.3-0.2c0.1-0.1,0.1-0.2,0.1-0.3v-1.1l-19.7,8.1v1.4l19.7,8.1v-1.1c0-0.2,0-0.3-0.1-0.3
		c-0.1-0.1-0.2-0.2-0.3-0.2l-5.7-2.3v-9.9L117.2,57.2z M110.5,68.8l-9.9-4c-0.2-0.1-0.3-0.2-0.6-0.2c-0.2-0.1-0.4-0.2-0.6-0.2
		c0.4-0.2,0.8-0.3,1.2-0.4l9.9-4C110.5,59.9,110.5,68.8,110.5,68.8z"/>
	<path d="M108.7,47.8c0-0.2,0.1-0.3,0.1-0.3s0.1-0.2,0.2-0.3c0.1-0.1,0.2-0.2,0.3-0.3l8-6.3c0.2-0.1,0.3-0.2,0.3-0.3
		c0-0.2,0.1-0.3,0.1-0.4v-1.3l-8.5,6.9c-0.3,0.2-0.4,0.3-0.6,0.6c-0.1-0.8-0.3-1.7-0.6-2.4c-0.3-0.7-0.7-1.3-1.2-1.8s-1-0.8-1.6-1.1
		c-0.6-0.3-1.3-0.4-2-0.4c-1.7,0-2.9,0.6-3.9,1.7c-0.8,1.1-1.3,2.9-1.3,5.1v5.1h19.7v-1.4h-8.9v-2.6C108.7,48.1,108.7,48,108.7,47.8
		z M107.6,50.8H99v-3.6c0-1.8,0.3-3.1,1-4c0.7-0.9,1.7-1.3,3.1-1.3c0.7,0,1.3,0.2,1.9,0.3c0.6,0.3,1,0.6,1.4,1.1
		c0.4,0.5,0.7,1.1,0.9,1.8c0.2,0.7,0.3,1.5,0.3,2.4L107.6,50.8L107.6,50.8z"/>
	<path d="M99.2,34.7c0.5,0.5,1,0.8,1.6,1.1c0.6,0.3,1.3,0.3,1.9,0.3c0.8,0,1.5-0.2,2.1-0.4s1-0.7,1.4-1.1c0.3-0.5,0.7-1,0.9-1.6
		s0.4-1.2,0.7-1.9c0.2-0.6,0.4-1.3,0.6-1.9c0.2-0.6,0.4-1.1,0.8-1.6c0.3-0.4,0.7-0.8,1.1-1.1c0.4-0.3,1-0.4,1.7-0.4
		c0.7,0,1.3,0.1,1.8,0.3c0.6,0.3,1,0.5,1.4,0.9s0.8,0.9,1,1.5s0.3,1.3,0.3,2.1c0,0.6-0.1,1.1-0.2,1.5c-0.1,0.4-0.3,0.8-0.4,1.2
		c-0.2,0.3-0.3,0.7-0.5,0.9s-0.3,0.5-0.5,0.7c-0.2,0.2-0.3,0.3-0.4,0.5c-0.1,0.2-0.2,0.3-0.2,0.3c0,0.2,0.1,0.3,0.2,0.4l0.6,0.4
		c0.8-0.7,1.4-1.5,1.9-2.4c0.4-0.9,0.7-2,0.7-3.4c0-1-0.2-1.9-0.5-2.7c-0.3-0.8-0.8-1.4-1.3-2c-0.5-0.5-1.2-0.9-1.9-1.3
		c-0.8-0.3-1.5-0.4-2.4-0.4s-1.5,0.2-2,0.4c-0.5,0.3-1,0.7-1.3,1.1c-0.3,0.4-0.7,1-0.9,1.6s-0.5,1.2-0.7,1.9
		c-0.2,0.6-0.4,1.3-0.6,1.9c-0.2,0.6-0.5,1.1-0.8,1.6c-0.3,0.4-0.7,0.8-1.1,1.1s-1,0.4-1.7,0.4c-0.5,0-1-0.1-1.4-0.3
		c-0.5-0.2-0.8-0.5-1.3-0.8c-0.3-0.3-0.6-0.8-0.8-1.3c-0.2-0.5-0.3-1.2-0.3-1.9c0-0.8,0.1-1.3,0.3-1.8c0.2-0.5,0.3-0.9,0.6-1.3
		c0.2-0.3,0.4-0.6,0.6-0.8c0.2-0.2,0.3-0.3,0.3-0.5c0-0.2-0.1-0.3-0.3-0.3l-0.7-0.3c-0.7,0.7-1.2,1.4-1.5,2.2
		c-0.3,0.8-0.5,1.8-0.5,2.8c0,0.9,0.2,1.7,0.4,2.4C98.4,33.6,98.8,34.2,99.2,34.7z"/>
</g>
</svg>
