<?xml version="1.0" encoding="utf-8"?>
<!-- Generator: Adobe Illustrator 24.0.3, SVG Export Plug-In . SVG Version: 6.00 Build 0)  -->
<svg version="1.1" id="Layer_1" xmlns="http://www.w3.org/2000/svg" xmlns:xlink="http://www.w3.org/1999/xlink" x="0px" y="0px"
	 viewBox="0 0 128 128" style="enable-background:new 0 0 128 128;" xml:space="preserve">
<g id="Layer_2_2_">
	<g id="Layer_1-2_1_">
		<path d="M53.9,84.6v9.6H12.2v-9.6h15.3v-44c0-1.7,0-3.5,0.2-5.4l-10.8,9.1c-0.5,0.4-1.2,0.8-1.9,0.9c-0.6,0.1-1.2,0.1-1.7,0
			c-0.5-0.1-1-0.3-1.4-0.5c-0.4-0.2-0.7-0.5-0.9-0.8l-4.1-5.6l23-19.5h10.6v65.8H53.9z"/>
		<g id="GWARANCJA_NA_ŚCIERALNOŚĆ">
			<g>
				<path d="M20.7,106.9v5.1c-0.6,0.5-1.3,0.8-2,1c-0.7,0.2-1.5,0.3-2.3,0.3c-0.9,0-1.9-0.1-2.8-0.5c-0.8-0.3-1.5-0.7-2.1-1.3
					c-0.6-0.6-1.1-1.3-1.4-2c-0.3-0.8-0.5-1.7-0.5-2.6c0-0.9,0.1-1.8,0.5-2.6c0.6-1.6,1.8-2.8,3.4-3.4c0.9-0.3,1.8-0.5,2.7-0.5
					c0.5,0,1,0,1.4,0.1c0.4,0.1,0.8,0.2,1.2,0.3c0.4,0.1,0.7,0.3,1,0.5c0.3,0.2,0.6,0.4,0.9,0.7l-0.7,1.1c-0.1,0.2-0.2,0.3-0.4,0.3
					c-0.2,0-0.4,0-0.5-0.1l-0.6-0.3c-0.2-0.1-0.4-0.2-0.6-0.3c-0.3-0.1-0.5-0.1-0.8-0.2c-0.3-0.1-0.7-0.1-1-0.1
					c-0.6,0-1.1,0.1-1.7,0.3c-0.5,0.2-0.9,0.5-1.3,0.9c-0.4,0.4-0.6,0.9-0.8,1.4c-0.2,0.6-0.3,1.2-0.3,1.8c0,0.7,0.1,1.3,0.3,1.9
					c0.2,0.5,0.5,1,0.9,1.4c0.4,0.4,0.8,0.7,1.3,0.9c0.6,0.2,1.2,0.3,1.8,0.3c0.4,0,0.8,0,1.2-0.1c0.4-0.1,0.7-0.2,1.1-0.4v-2.3H17
					c-0.1,0-0.3,0-0.4-0.1c-0.1-0.1-0.1-0.2-0.1-0.3v-1.3H20.7z"/>
				<path d="M39.5,100.6l-3.9,12.5h-2.1l-2.7-8.6c-0.1-0.3-0.2-0.5-0.2-0.8c0,0.1-0.1,0.3-0.1,0.4c0,0.1-0.1,0.2-0.1,0.4l-2.8,8.6
					h-2.1l-3.9-12.5h1.9c0.2,0,0.4,0,0.5,0.1c0.1,0.1,0.2,0.2,0.3,0.4l2.1,7.5c0,0.2,0.1,0.4,0.1,0.6c0,0.2,0.1,0.4,0.1,0.7
					c0-0.2,0.1-0.5,0.1-0.7c0.1-0.2,0.1-0.4,0.2-0.6l2.5-7.5c0.1-0.1,0.2-0.3,0.3-0.3c0.1-0.1,0.3-0.2,0.5-0.2H31
					c0.2,0,0.4,0,0.5,0.1c0.1,0.1,0.2,0.2,0.3,0.4l2.5,7.5c0.1,0.4,0.2,0.8,0.3,1.2c0.1-0.5,0.2-0.9,0.3-1.2l2.1-7.5
					c0-0.2,0.1-0.3,0.3-0.4c0.1-0.1,0.3-0.2,0.5-0.2L39.5,100.6z"/>
				<path d="M50.9,113.2h-1.8c-0.2,0-0.4,0-0.5-0.1c-0.1-0.1-0.2-0.2-0.3-0.4l-0.9-2.6h-5.2l-0.9,2.6c-0.1,0.1-0.1,0.3-0.3,0.4
					c-0.1,0.1-0.3,0.2-0.5,0.2h-1.8l4.9-12.5H46L50.9,113.2z M46.8,108.4l-1.5-4.2c-0.1-0.2-0.2-0.4-0.2-0.7
					c-0.1-0.3-0.2-0.5-0.2-0.8c-0.1,0.3-0.2,0.6-0.2,0.8c-0.1,0.3-0.2,0.5-0.2,0.7l-1.5,4.2L46.8,108.4z"/>
				<path d="M62,113.2h-2.1c-0.4,0-0.7-0.2-0.9-0.5l-2.6-4c-0.1-0.1-0.2-0.2-0.3-0.3c-0.2-0.1-0.3-0.1-0.5-0.1h-1v4.9h-2.3v-12.5H56
					c0.7,0,1.5,0.1,2.2,0.3c0.6,0.1,1.1,0.4,1.5,0.8c0.4,0.3,0.7,0.7,0.9,1.1c0.2,0.5,0.3,1,0.3,1.5c0,0.4-0.1,0.8-0.2,1.2
					c-0.1,0.4-0.3,0.7-0.5,1c-0.2,0.3-0.5,0.6-0.9,0.8c-0.4,0.2-0.8,0.4-1.2,0.5c0.1,0.1,0.3,0.2,0.4,0.3c0.1,0.1,0.2,0.3,0.3,0.4
					L62,113.2z M56,106.6c0.4,0,0.8,0,1.2-0.2c0.3-0.1,0.5-0.3,0.8-0.5c0.2-0.2,0.4-0.4,0.5-0.7c0.1-0.3,0.2-0.6,0.2-0.9
					c0-0.6-0.2-1.1-0.6-1.5c-0.6-0.4-1.2-0.6-1.9-0.5h-1.5v4.2H56z"/>
				<path d="M74.8,113.2h-1.8c-0.2,0-0.3,0-0.5-0.1c-0.1-0.1-0.2-0.2-0.3-0.4l-1-2.6H66l-1,2.6c-0.1,0.1-0.1,0.3-0.3,0.4
					c-0.1,0.1-0.3,0.2-0.5,0.2h-1.8l4.9-12.5h2.4L74.8,113.2z M70.6,108.4l-1.5-4.2c-0.1-0.2-0.2-0.4-0.2-0.7
					c-0.1-0.3-0.2-0.5-0.2-0.8c-0.1,0.3-0.2,0.6-0.2,0.8c-0.1,0.3-0.2,0.5-0.2,0.7l-1.5,4.2L70.6,108.4z"/>
				<path d="M86.6,100.6v12.5h-1.2c-0.2,0-0.3,0-0.5-0.1c-0.1-0.1-0.3-0.2-0.4-0.3l-6.6-8.4c0,0.4,0.1,0.8,0.1,1.1v7.7H76v-12.5h1.5
					c0.1,0,0.1,0,0.2,0.1c0.1,0,0.1,0.1,0.2,0.1L78,101l6.6,8.4c0-0.2,0-0.4,0-0.6c0-0.2,0-0.4,0-0.5v-7.7L86.6,100.6z"/>
				<path d="M98,110.2c0.1,0,0.3,0.1,0.3,0.2l0.9,1c-0.5,0.6-1.1,1.1-1.9,1.4c-0.8,0.4-1.8,0.5-2.7,0.5c-0.9,0-1.7-0.1-2.5-0.5
					c-0.7-0.3-1.4-0.8-1.9-1.3c-0.5-0.6-0.9-1.3-1.2-2c-0.3-0.8-0.4-1.7-0.4-2.6c0-0.9,0.1-1.8,0.4-2.6c0.3-0.8,0.7-1.4,1.3-2
					c0.6-0.6,1.2-1,2-1.3c0.8-0.3,1.7-0.5,2.5-0.5c0.8,0,1.7,0.1,2.4,0.4c0.7,0.3,1.3,0.7,1.8,1.2l-0.8,1.1c0,0.1-0.1,0.1-0.2,0.2
					c-0.2,0.1-0.4,0.1-0.6,0c-0.1-0.1-0.2-0.1-0.3-0.2l-0.4-0.2c-0.2-0.1-0.3-0.2-0.5-0.2c-0.2-0.1-0.4-0.1-0.7-0.2
					c-0.3,0-0.6-0.1-0.9-0.1c-0.5,0-1,0.1-1.5,0.3c-0.5,0.2-0.9,0.5-1.2,0.9c-0.3,0.4-0.6,0.9-0.8,1.4c-0.2,0.6-0.3,1.2-0.3,1.9
					c0,0.6,0.1,1.3,0.3,1.9c0.2,0.5,0.5,1,0.8,1.4c0.3,0.4,0.7,0.7,1.2,0.9c0.5,0.2,1,0.3,1.5,0.3c0.3,0,0.6,0,0.9,0
					c0.2,0,0.5-0.1,0.7-0.2c0.2-0.1,0.4-0.2,0.6-0.3c0.2-0.1,0.4-0.3,0.6-0.4C97.8,110.3,97.8,110.3,98,110.2
					C97.9,110.2,98,110.2,98,110.2z"/>
				<path d="M106,108.7c0,0.6-0.1,1.3-0.3,1.9c-0.2,0.5-0.4,1-0.8,1.4c-0.4,0.4-0.8,0.7-1.3,0.9c-0.6,0.2-1.2,0.3-1.8,0.3
					c-0.3,0-0.6,0-0.9-0.1c-0.3,0-0.6-0.1-0.9-0.2c0-0.2,0-0.5,0.1-0.7c0.1-0.2,0-0.5,0.1-0.7c0-0.1,0.1-0.2,0.2-0.3
					c0.1-0.1,0.2-0.1,0.4-0.1c0.1,0,0.3,0,0.4,0.1c0.2,0,0.4,0.1,0.6,0.1c0.3,0,0.6,0,0.9-0.1c0.3-0.1,0.5-0.2,0.6-0.5
					c0.2-0.2,0.3-0.5,0.4-0.8c0.1-0.4,0.1-0.8,0.1-1.2v-8.1h2.3L106,108.7z"/>
				<path d="M118.9,113.2h-1.8c-0.2,0-0.3,0-0.5-0.1c-0.1-0.1-0.2-0.2-0.3-0.4l-0.9-2.6h-5.2l-0.9,2.6c-0.1,0.1-0.1,0.3-0.3,0.4
					c-0.1,0.1-0.3,0.2-0.5,0.2h-1.8l4.9-12.5h2.4L118.9,113.2z M114.8,108.4l-1.5-4.2c-0.1-0.2-0.2-0.4-0.2-0.7
					c-0.1-0.3-0.2-0.5-0.2-0.8c-0.1,0.3-0.2,0.6-0.2,0.8c-0.1,0.3-0.2,0.5-0.2,0.7l-1.5,4.2L114.8,108.4z"/>
			</g>
		</g>
		<g id="GWARANCJA_NA_ŚCIERALNOŚĆ-2">
			<g>
				<path d="M18.1,117.5v9.4h-0.9c-0.1,0-0.2,0-0.4-0.1c-0.1-0.1-0.2-0.1-0.3-0.2l-4.9-6.3c0,0.3,0,0.5,0,0.8v5.8h-1.5v-9.4h1.1
					c0,0,0.1,0,0.1,0c0,0,0.1,0,0.1,0.1c0,0,0.1,0.1,0.1,0.1l5,6.3c0-0.2,0-0.3,0-0.5s0-0.3,0-0.4v-5.8L18.1,117.5z"/>
				<path d="M28.3,126.9H27c-0.1,0-0.3,0-0.4-0.1c-0.1-0.1-0.2-0.2-0.2-0.3l-0.7-1.9h-3.9l-0.7,1.9c0,0.1-0.1,0.2-0.2,0.3
					c-0.1,0.1-0.2,0.1-0.4,0.1h-1.4l3.7-9.5h1.8L28.3,126.9z M25.3,123.3l-1.2-3.1c-0.1-0.1-0.1-0.3-0.2-0.5s-0.1-0.4-0.2-0.6
					l-0.2,0.6c-0.1,0.2-0.1,0.4-0.2,0.5l-1.1,3.1H25.3z"/>
				<path d="M37.5,119.2c0,0.1-0.1,0.1-0.2,0.2c-0.1,0-0.1,0.1-0.2,0.1c-0.1,0-0.2,0-0.3-0.1l-0.4-0.2c-0.2-0.1-0.3-0.2-0.5-0.2
					c-0.2-0.1-0.5-0.1-0.7-0.1c-0.2,0-0.4,0-0.6,0.1c-0.2,0-0.3,0.1-0.5,0.2c-0.1,0.1-0.2,0.2-0.3,0.4c-0.1,0.2-0.1,0.3-0.1,0.5
					c0,0.2,0.1,0.4,0.2,0.6c0.1,0.2,0.3,0.3,0.5,0.4c0.2,0.1,0.5,0.2,0.7,0.3l0.8,0.3c0.3,0.1,0.5,0.2,0.8,0.3
					c0.3,0.1,0.5,0.3,0.8,0.5c0.2,0.2,0.4,0.4,0.5,0.7c0.1,0.3,0.2,0.7,0.2,1c0,0.4-0.1,0.8-0.2,1.2c-0.1,0.4-0.4,0.7-0.6,1
					c-0.3,0.3-0.6,0.5-1,0.7c-0.4,0.2-0.9,0.2-1.4,0.2c-0.3,0-0.6,0-0.9-0.1c-0.3-0.1-0.6-0.1-0.8-0.2c-0.3-0.1-0.5-0.2-0.8-0.4
					c-0.2-0.1-0.4-0.3-0.6-0.5l0.5-0.8c0-0.1,0.1-0.1,0.2-0.2c0.1,0,0.1-0.1,0.2-0.1c0.1,0,0.3,0.1,0.4,0.1c0.1,0.1,0.3,0.2,0.5,0.3
					c0.2,0.1,0.4,0.2,0.6,0.3c0.3,0.1,0.6,0.1,0.8,0.1c0.4,0,0.8-0.1,1.2-0.4c0.3-0.3,0.4-0.6,0.4-1c0-0.2-0.1-0.4-0.2-0.6
					c-0.1-0.2-0.3-0.3-0.5-0.4c-0.2-0.1-0.5-0.2-0.7-0.3l-0.8-0.2c-0.3-0.1-0.5-0.2-0.8-0.3c-0.3-0.1-0.5-0.3-0.7-0.5
					c-0.2-0.2-0.4-0.5-0.5-0.8c-0.1-0.3-0.2-0.7-0.2-1.1c0-0.3,0.1-0.7,0.2-1c0.1-0.3,0.3-0.6,0.6-0.9c0.3-0.3,0.6-0.5,1-0.6
					c0.4-0.2,0.9-0.2,1.3-0.2c0.5,0,1,0.1,1.5,0.3c0.5,0.2,0.9,0.4,1.2,0.8L37.5,119.2z M38.1,114.8l-2.1,1.8
					c-0.1,0.1-0.2,0.1-0.2,0.1c-0.1,0-0.2,0-0.3,0h-1.2l1.4-1.8c0-0.1,0.1-0.1,0.1-0.1c0,0,0.1-0.1,0.1-0.1H36L38.1,114.8
					L38.1,114.8z"/>
				<path d="M46.1,124.7c0.1,0,0.2,0,0.3,0.1l0.7,0.8c-0.4,0.5-0.9,0.8-1.4,1.1c-0.6,0.3-1.3,0.4-2,0.4c-0.6,0-1.3-0.1-1.9-0.4
					c-0.5-0.2-1-0.6-1.4-1c-0.4-0.4-0.7-1-0.9-1.5c-0.2-0.6-0.3-1.3-0.3-1.9c0-0.7,0.1-1.3,0.3-2c0.2-0.6,0.5-1.1,1-1.5
					c0.4-0.4,0.9-0.8,1.5-1c0.6-0.2,1.2-0.4,1.9-0.4c0.6,0,1.3,0.1,1.8,0.3c0.5,0.2,1,0.5,1.4,0.9l-0.6,0.8c0,0.1-0.1,0.1-0.1,0.1
					c-0.1,0-0.1,0.1-0.2,0.1c-0.1,0-0.1,0-0.2-0.1l-0.2-0.1l-0.3-0.2c-0.1-0.1-0.3-0.1-0.4-0.2c-0.2-0.1-0.3-0.1-0.5-0.1
					c-0.2,0-0.4-0.1-0.7-0.1c-0.4,0-0.8,0.1-1.2,0.2c-0.3,0.1-0.7,0.4-0.9,0.7c-0.3,0.3-0.5,0.7-0.6,1.1c-0.1,0.5-0.2,0.9-0.2,1.4
					c0,0.5,0.1,1,0.2,1.4c0.1,0.4,0.3,0.7,0.6,1c0.3,0.3,0.6,0.5,0.9,0.7c0.4,0.2,0.7,0.2,1.1,0.2c0.2,0,0.4,0,0.7,0
					c0.2,0,0.4-0.1,0.5-0.1c0.2-0.1,0.3-0.1,0.5-0.2c0.2-0.1,0.3-0.2,0.4-0.3c0,0,0.1-0.1,0.1-0.1C46,124.8,46,124.7,46.1,124.7z"/>
				<path d="M49.9,126.9h-1.8v-9.4h1.8V126.9z"/>
				<path d="M53.7,118.9v2.7h3.3v1.3h-3.3v2.7h4.2v1.3h-6v-9.4h6v1.4L53.7,118.9z"/>
				<path d="M66.8,126.9h-1.6c-0.3,0-0.5-0.1-0.7-0.4l-2-3.1c-0.1-0.1-0.1-0.2-0.2-0.2c-0.1-0.1-0.3-0.1-0.4-0.1h-0.8v3.7h-1.7v-9.4
					h2.9c0.6,0,1.1,0.1,1.6,0.2c0.4,0.1,0.8,0.3,1.1,0.6c0.3,0.2,0.5,0.5,0.6,0.9c0.3,0.6,0.3,1.4,0.1,2c-0.1,0.3-0.2,0.5-0.4,0.8
					c-0.2,0.2-0.4,0.4-0.7,0.6c-0.3,0.2-0.6,0.3-0.9,0.4c0.1,0.1,0.2,0.1,0.3,0.2c0.1,0.1,0.2,0.2,0.3,0.3L66.8,126.9z M62.3,122
					c0.3,0,0.6,0,0.9-0.1c0.2-0.1,0.4-0.2,0.6-0.3c0.2-0.1,0.3-0.3,0.4-0.5c0.1-0.2,0.1-0.4,0.1-0.7c0-0.4-0.2-0.8-0.5-1.1
					c-0.4-0.3-0.9-0.4-1.4-0.4h-1.1v3.1H62.3z"/>
				<path d="M76.5,126.9h-1.4c-0.1,0-0.3,0-0.4-0.1c-0.1-0.1-0.2-0.2-0.2-0.3l-0.7-1.9h-3.9l-0.7,1.9c0,0.1-0.1,0.2-0.2,0.3
					c-0.1,0.1-0.2,0.1-0.4,0.1h-1.4l3.7-9.5h1.8L76.5,126.9z M73.4,123.3l-1.2-3.1c-0.1-0.1-0.1-0.3-0.2-0.5
					c-0.1-0.2-0.1-0.4-0.2-0.6l-0.2,0.6c-0.1,0.2-0.1,0.4-0.2,0.5l-1.1,3.1H73.4z"/>
				<path d="M83,125.5v1.4h-5.5v-9.4h1.8v8L83,125.5z"/>
				<path d="M92,117.5v9.4h-0.9c-0.1,0-0.2,0-0.4-0.1c-0.1-0.1-0.2-0.1-0.3-0.2l-4.9-6.3c0,0.3,0,0.6,0,0.8v5.8h-1.5v-9.4h1.1
					c0.1,0,0.1,0,0.1,0c0,0,0.1,0,0.1,0.1c0,0,0.1,0.1,0.1,0.1l5,6.3c0-0.2,0-0.3,0-0.5s0-0.3,0-0.4v-5.8L92,117.5z"/>
				<path d="M103.1,122.2c0,0.7-0.1,1.3-0.3,1.9c-0.4,1.2-1.3,2.1-2.5,2.5c-1.3,0.5-2.7,0.5-3.9,0c-0.6-0.2-1.1-0.6-1.5-1
					c-0.4-0.4-0.8-1-1-1.5c-0.5-1.2-0.5-2.6,0-3.8c0.2-0.6,0.5-1.1,1-1.5c0.4-0.4,1-0.8,1.5-1c0.6-0.2,1.3-0.4,2-0.4
					c0.5,0,0.9,0.1,1.4,0.2c0.4,0.1,0.8,0.3,1.2,0.5c0.4,0.2,0.7,0.5,1,0.8c0.6,0.6,1,1.3,1.2,2.1
					C103.1,121.4,103.1,121.8,103.1,122.2z M101.3,122.2c0-0.5-0.1-0.9-0.2-1.4c-0.1-0.4-0.3-0.7-0.6-1.1c-0.3-0.3-0.6-0.5-0.9-0.7
					c-0.8-0.3-1.7-0.3-2.5,0c-0.4,0.1-0.7,0.4-0.9,0.7c-0.3,0.3-0.5,0.7-0.6,1.1c-0.1,0.5-0.2,0.9-0.2,1.4c0,0.5,0.1,0.9,0.2,1.4
					c0.1,0.4,0.3,0.7,0.6,1c0.3,0.3,0.6,0.5,0.9,0.7c0.8,0.3,1.7,0.3,2.5,0c0.4-0.1,0.7-0.4,0.9-0.7c0.3-0.3,0.5-0.7,0.6-1
					C101.3,123.2,101.3,122.7,101.3,122.2z"/>
				<path d="M109.6,119.2c0,0.1-0.1,0.1-0.2,0.2c-0.1,0-0.1,0.1-0.2,0.1c-0.1,0-0.2,0-0.3-0.1l-0.4-0.2c-0.2-0.1-0.3-0.2-0.5-0.2
					c-0.2-0.1-0.5-0.1-0.7-0.1c-0.2,0-0.4,0-0.6,0.1c-0.2,0.1-0.3,0.1-0.5,0.2c-0.1,0.1-0.2,0.2-0.3,0.4c-0.1,0.2-0.1,0.3-0.1,0.5
					c0,0.2,0.1,0.4,0.2,0.6c0.1,0.2,0.3,0.3,0.5,0.4c0.2,0.1,0.5,0.2,0.7,0.3l0.8,0.3c0.3,0.1,0.5,0.2,0.8,0.3
					c0.3,0.1,0.5,0.3,0.7,0.5c0.2,0.2,0.4,0.4,0.5,0.7c0.1,0.3,0.2,0.7,0.2,1c0,0.4-0.1,0.8-0.2,1.2c-0.1,0.4-0.4,0.7-0.6,1
					c-0.3,0.3-0.6,0.5-1,0.7c-0.4,0.2-0.9,0.2-1.4,0.2c-0.3,0-0.6,0-0.9-0.1c-0.3-0.1-0.6-0.1-0.8-0.2c-0.3-0.1-0.5-0.2-0.8-0.4
					c-0.2-0.1-0.4-0.3-0.6-0.5l0.5-0.8c0-0.1,0.1-0.1,0.2-0.2c0.1,0,0.1-0.1,0.2-0.1c0.1,0,0.3,0.1,0.4,0.1c0.1,0.1,0.3,0.2,0.5,0.3
					c0.2,0.1,0.4,0.2,0.6,0.3c0.3,0.1,0.6,0.1,0.8,0.1c0.4,0,0.8-0.1,1.2-0.4c0.3-0.3,0.4-0.6,0.4-1c0-0.2-0.1-0.4-0.2-0.6
					c-0.1-0.2-0.3-0.3-0.5-0.4c-0.2-0.1-0.5-0.2-0.7-0.3l-0.8-0.2c-0.3-0.1-0.5-0.2-0.8-0.3c-0.3-0.1-0.5-0.3-0.7-0.5
					c-0.2-0.2-0.4-0.5-0.5-0.8c-0.1-0.3-0.2-0.7-0.2-1.1c0-0.3,0.1-0.7,0.2-1c0.1-0.3,0.3-0.6,0.6-0.9c0.3-0.3,0.6-0.5,1-0.6
					c0.4-0.2,0.9-0.2,1.3-0.2c0.5,0,1,0.1,1.5,0.3c0.5,0.2,0.9,0.4,1.2,0.8L109.6,119.2z M110.1,114.8l-2.1,1.8
					c-0.1,0.1-0.2,0.1-0.2,0.1c-0.1,0-0.2,0-0.3,0h-1.2l1.4-1.8c0-0.1,0.1-0.1,0.1-0.1c0,0,0.1-0.1,0.1-0.1h0.2L110.1,114.8
					L110.1,114.8z"/>
				<path d="M118.1,124.7c0.1,0,0.2,0,0.3,0.1l0.7,0.8c-0.4,0.5-0.9,0.8-1.4,1.1c-1.3,0.5-2.7,0.5-3.9,0c-0.5-0.2-1-0.6-1.4-1
					c-0.4-0.4-0.7-1-0.9-1.5c-0.2-0.6-0.3-1.3-0.3-1.9c0-0.7,0.1-1.3,0.3-2c0.2-0.6,0.5-1.1,1-1.5c0.4-0.4,0.9-0.8,1.5-1
					c0.6-0.2,1.3-0.4,1.9-0.4c0.6,0,1.3,0.1,1.8,0.3c0.5,0.2,1,0.5,1.4,0.9l-0.6,0.8c0,0.1-0.1,0.1-0.1,0.1c-0.1,0-0.1,0.1-0.2,0.1
					c-0.1,0-0.1,0-0.2-0.1l-0.2-0.1l-0.3-0.2c-0.1-0.1-0.2-0.1-0.4-0.2c-0.2-0.1-0.3-0.1-0.5-0.1c-0.2,0-0.4-0.1-0.7-0.1
					c-0.4,0-0.8,0.1-1.2,0.2c-0.3,0.2-0.7,0.4-0.9,0.7c-0.3,0.3-0.5,0.7-0.6,1.1c-0.2,0.5-0.2,0.9-0.2,1.4c0,0.5,0.1,1,0.2,1.4
					c0.1,0.4,0.3,0.7,0.6,1c0.3,0.3,0.6,0.5,0.9,0.7c0.4,0.2,0.7,0.2,1.1,0.2c0.2,0,0.4,0,0.7,0c0.2,0,0.4-0.1,0.5-0.1
					c0.2-0.1,0.3-0.1,0.5-0.2c0.2-0.1,0.3-0.2,0.4-0.3c0,0,0.1-0.1,0.1-0.1C118,124.7,118.1,124.7,118.1,124.7z M118.6,114.7
					l-2.1,1.9c-0.1,0.1-0.2,0.1-0.3,0.1c-0.1,0-0.2,0-0.3,0h-1.2l1.4-1.8c0-0.1,0.1-0.1,0.1-0.1c0,0,0.1-0.1,0.1-0.1h0.2
					L118.6,114.7L118.6,114.7z"/>
			</g>
		</g>
		<path d="M77.2,46.7c0.2-1.3,0.4-2.6,0.6-3.7c0.6-3,1.6-5.9,3.2-8.6c1.1-1.9,2.7-3.4,4.6-4.5c1.7-0.8,3.5-1.3,5.4-1.3
			c1.9,0,3.7,0.4,5.4,1.3c1.9,1,3.5,2.6,4.6,4.5c1.6,2.6,2.6,5.5,3.2,8.6c0.3,1.1,0.5,2.4,0.6,3.7h13.3c-0.3-2.5-0.8-4.9-1.5-7.3
			c-1.2-4.3-3.1-8.4-5.8-12c-2.3-3-5.3-5.5-8.8-7.1c-3.5-1.6-7.2-2.3-11-2.3c-3.8,0-7.5,0.7-10.9,2.3c-3.4,1.6-6.4,4-8.7,7.1
			c-2.7,3.6-4.6,7.7-5.8,12c-0.7,2.4-1.2,4.8-1.5,7.3H77.2z"/>
		<path d="M104.5,68.2c-0.1,0.7-0.2,1.3-0.4,1.9c-0.6,3-1.7,5.9-3.2,8.6c-1.1,1.9-2.7,3.4-4.6,4.5c-1.7,0.8-3.5,1.3-5.4,1.3
			c-1.9,0-3.7-0.4-5.4-1.3c-1.9-1-3.5-2.6-4.6-4.5c-1.5-2.7-2.6-5.5-3.2-8.6c-0.1-0.6-0.3-1.3-0.4-1.9H64.2c0.3,1.9,0.7,3.7,1.2,5.5
			c1.1,4.3,3.1,8.4,5.8,12c2.3,3,5.3,5.5,8.7,7.1c3.4,1.6,7.2,2.3,10.9,2.3c3.8,0,7.5-0.7,11-2.3c3.5-1.6,6.5-4,8.8-7.1
			c2.7-3.6,4.7-7.7,5.8-12c0.5-1.8,0.9-3.6,1.2-5.5H104.5z"/>
		<g id="LAT">
			<g>
				<path d="M81.4,63.3v2.6h-9.7V49.2h3.1v14.1H81.4z"/>
				<path d="M100.2,65.9h-2.4c-0.2,0-0.5-0.1-0.7-0.2c-0.2-0.1-0.3-0.3-0.4-0.5l-1.2-3.4h-6.9l-1.2,3.4c-0.1,0.2-0.2,0.4-0.4,0.5
					c-0.2,0.2-0.4,0.2-0.7,0.2H84l6.5-16.6h3.2L100.2,65.9z M94.8,59.6l-2-5.5c-0.1-0.2-0.2-0.5-0.3-0.9c-0.1-0.3-0.2-0.7-0.3-1.1
					c-0.1,0.4-0.2,0.8-0.3,1.1c-0.1,0.3-0.2,0.6-0.3,0.9l-2,5.5L94.8,59.6z"/>
				<path d="M113.4,51.7h-5v14.1h-3.1V51.7h-5v-2.5h13.1V51.7z"/>
			</g>
		</g>
	</g>
</g>
</svg>
