<?xml version="1.0" encoding="utf-8"?>
<!-- Generator: Adobe Illustrator 24.0.3, SVG Export Plug-In . SVG Version: 6.00 Build 0)  -->
<svg version="1.1" id="Layer_1" xmlns="http://www.w3.org/2000/svg" xmlns:xlink="http://www.w3.org/1999/xlink" x="0px" y="0px"
	 viewBox="0 0 128 128" style="enable-background:new 0 0 128 128;" xml:space="preserve">
<path id="Path_185_1_" d="M35.8,0L10.8,6.3v4.5l23-5.6v117.5l-23-5.5v4.5l25.6,6.3l80.8-6.1v-4.7l-78.6,6V4.9l78.6,6V6.3L35.8,0z"/>
<g>
	<g id="Group_574_1_">
		<g id="Group_283_1_">
			<g id="Group_279_1_">
				<path id="Path_186_1_" d="M81.1,90.9v-9.3c0-0.8-0.1-1.6-0.3-2.4c-0.2-0.6-0.6-1.2-1-1.7c-0.5-0.5-1-0.8-1.7-1.1
					c-1.2-0.4-2.5-0.4-3.7-0.2c-0.5,0.1-0.9,0.3-1.4,0.5c-0.4,0.2-0.8,0.5-1.2,0.9c-0.4,0.4-0.7,0.8-0.9,1.3c-0.3-0.8-0.8-1.5-1.4-2
					c-0.7-0.5-1.5-0.8-2.4-0.7c-0.4,0-0.9,0.1-1.3,0.2c-0.4,0.1-0.7,0.3-1.1,0.4c-0.3,0.2-0.6,0.4-0.9,0.6c-0.3,0.3-0.6,0.5-0.8,0.8
					l-0.2-1.1c-0.1-0.4-0.5-0.7-0.9-0.6h-2.2v15.3l3.7-0.2V80.6c0.4-0.4,0.8-0.8,1.3-1.1c0.5-0.3,1-0.4,1.5-0.4
					c0.7-0.1,1.4,0.1,1.9,0.6c0.5,0.6,0.7,1.4,0.6,2.2v9.5l3.7-0.2v-9.4c0-0.4,0.1-0.8,0.2-1.2c0.3-0.7,0.8-1.2,1.5-1.5
					c0.3-0.1,0.7-0.2,1-0.2c0.7-0.1,1.4,0.2,1.9,0.7c0.5,0.6,0.7,1.3,0.6,2.1V91L81.1,90.9z"/>
			</g>
			<g id="Group_280_1_">
				<path id="Path_187_1_" d="M106,89.8v-8.9c0-0.8-0.1-1.5-0.3-2.2c-0.4-1.3-1.4-2.3-2.6-2.7c-0.7-0.2-1.5-0.3-2.2-0.3
					c-0.5,0-1,0.1-1.5,0.2c-0.5,0.1-0.9,0.3-1.4,0.5c-0.4,0.2-0.8,0.5-1.2,0.8c-0.4,0.4-0.7,0.8-0.9,1.2c-0.3-0.8-0.8-1.4-1.4-1.9
					c-0.7-0.5-1.5-0.7-2.3-0.7c-0.4,0-0.8,0.1-1.2,0.2c-0.7,0.2-1.4,0.6-2,1.1c-0.3,0.2-0.6,0.5-0.8,0.8l-0.2-1.1
					c-0.1-0.4-0.5-0.7-0.9-0.6h-2.2v14.6l3.7-0.2V80c0.4-0.4,0.8-0.8,1.3-1.1c0.5-0.3,1-0.4,1.5-0.4c0.7-0.1,1.3,0.2,1.8,0.6
					c0.5,0.6,0.7,1.3,0.6,2.1v9.1l3.7-0.2v-9.1c0-0.4,0.1-0.8,0.2-1.2c0.1-0.3,0.3-0.6,0.6-0.9c0.2-0.2,0.5-0.4,0.8-0.5
					c0.3-0.1,0.7-0.2,1.1-0.2c0.7-0.1,1.4,0.2,1.9,0.6c0.5,0.6,0.7,1.3,0.6,2v9L106,89.8z"/>
			</g>
			<g id="Group_281_1_">
				<path id="Path_188_1_" d="M69.8,36.9l-10,8l1.8,2.5c0.1,0.2,0.2,0.3,0.4,0.4c0.2,0.1,0.4,0.2,0.6,0.3c0.2,0.1,0.5,0.1,0.8,0
					c0.3-0.1,0.6-0.2,0.8-0.4l4.7-3.7c0,0.8,0,1.5,0,2.3V65h-6.7v4.1L80.2,69v-4h-5.8V37.1L69.8,36.9z"/>
			</g>
			<g id="Group_282_1_">
				<path id="Path_189_1_" d="M103.9,68.9H83.7v-2.1c0-0.4,0.1-0.9,0.2-1.3c0.2-0.5,0.5-0.9,0.8-1.2l8.3-8.9
					c0.7-0.7,1.3-1.4,1.9-2.2c0.5-0.6,0.9-1.3,1.3-2c0.3-0.6,0.6-1.3,0.8-2c0.2-0.7,0.3-1.4,0.3-2.1c0.1-1-0.2-2-0.8-2.8
					c-0.6-0.7-1.6-1.1-2.5-1c-0.4,0-0.9,0.1-1.3,0.2c-0.4,0.2-0.7,0.3-1,0.6c-0.3,0.2-0.6,0.5-0.8,0.8c-0.2,0.3-0.4,0.7-0.5,1.1
					c-0.1,0.5-0.4,1-0.8,1.4c-0.4,0.3-0.8,0.4-1.3,0.4h-0.4h-0.5l-3.2-0.6c0.2-1.4,0.6-2.7,1.2-4c0.6-1.1,1.4-2.1,2.3-2.9
					c0.9-0.8,1.9-1.3,3-1.7c1.2-0.4,2.4-0.6,3.7-0.6c1.3,0,2.6,0.2,3.8,0.6c1.1,0.4,2.1,1,2.9,1.9c0.8,0.8,1.4,1.8,1.9,2.8
					c0.4,1.1,0.7,2.3,0.6,3.6c0,1.1-0.2,2.1-0.5,3.1c-0.3,1-0.7,1.9-1.2,2.7c-0.5,0.9-1.1,1.7-1.8,2.5c-0.7,0.8-1.4,1.6-2.2,2.5
					l-5.7,6.1c0.7-0.2,1.4-0.4,2.1-0.5c0.7-0.1,1.3-0.1,2-0.1h5.3c1.1-0.1,2,0.7,2.1,1.8L103.9,68.9L103.9,68.9z"/>
			</g>
		</g>
	</g>
</g>
</svg>
