<?xml version="1.0" encoding="utf-8"?>
<!-- Generator: Adobe Illustrator 24.0.3, SVG Export Plug-In . SVG Version: 6.00 Build 0)  -->
<svg version="1.1" id="Layer_1" xmlns="http://www.w3.org/2000/svg" xmlns:xlink="http://www.w3.org/1999/xlink" x="0px" y="0px"
	 viewBox="0 0 128 128" style="enable-background:new 0 0 128 128;" xml:space="preserve">
<g id="Layer_2_1_">
	<g id="Layer_1-2">
		<g id="Group_535">
			<path id="Path_267" d="M13,104.2H8.1v1.6c0,0.1,0,0.3,0.1,0.4c0.1,0.1,0.3,0.2,0.4,0.1h1.8v2.7c-0.4,0.2-0.8,0.3-1.3,0.5
				c-0.5,0.1-1,0.2-1.5,0.2c-0.7,0-1.4-0.1-2.1-0.4c-0.6-0.2-1.1-0.6-1.6-1.1c-0.4-0.5-0.8-1-1-1.6c-0.2-0.7-0.4-1.5-0.4-2.2
				c0-0.8,0.1-1.5,0.4-2.3c0.2-0.6,0.5-1.1,1-1.6c0.4-0.5,0.9-0.8,1.5-1.1C6.2,99.2,6.9,99,7.5,99c0.4,0,0.8,0,1.2,0.1
				c0.3,0,0.6,0.1,0.9,0.2c0.3,0.1,0.5,0.2,0.7,0.3l0.7,0.4c0.2,0.1,0.4,0.2,0.6,0.1c0.2,0,0.4-0.2,0.5-0.4l0.8-1.2
				c-0.3-0.3-0.6-0.6-1-0.8c-0.4-0.2-0.8-0.5-1.2-0.6c-0.5-0.2-0.9-0.3-1.4-0.4c-0.5-0.1-1.1-0.1-1.6-0.1c-1.1,0-2.2,0.2-3.2,0.6
				c-1.8,0.6-3.3,2.1-4,3.9c-0.4,1-0.6,2-0.5,3c0,1,0.2,2.1,0.6,3c0.4,0.9,0.9,1.7,1.6,2.4c0.7,0.7,1.6,1.2,2.5,1.6
				c1,0.4,2.1,0.6,3.2,0.6c0.9,0,1.8-0.1,2.7-0.4c0.9-0.3,1.7-0.7,2.4-1.2L13,104.2z"/>
			<path id="Path_268" d="M30.5,111.5l4.6-14.7h-2.2c-0.2,0-0.4,0.1-0.6,0.2c-0.2,0.1-0.3,0.3-0.3,0.4l-2.5,8.8
				c-0.1,0.4-0.2,0.9-0.3,1.5c-0.1-0.5-0.2-1-0.4-1.5l-2.9-8.8c-0.1-0.2-0.2-0.3-0.3-0.4c-0.2-0.1-0.4-0.2-0.6-0.2h-0.8
				c-0.2,0-0.4,0.1-0.6,0.2c-0.1,0.1-0.3,0.3-0.3,0.4l-2.9,8.8c0,0.2-0.1,0.4-0.2,0.7c-0.1,0.3-0.1,0.5-0.2,0.8
				c0-0.3-0.1-0.5-0.2-0.8c0-0.2-0.1-0.5-0.2-0.7l-2.5-8.8c-0.1-0.2-0.2-0.3-0.3-0.4c-0.2-0.1-0.4-0.2-0.6-0.2H14l4.5,14.7H21
				l3.2-10c0.1-0.1,0.1-0.3,0.1-0.4c0-0.1,0-0.3,0.1-0.5c0.1,0.3,0.1,0.6,0.2,0.9l3.2,10H30.5z"/>
			<path id="Path_269" d="M39.8,96.8l-5.8,14.7h2.1c0.2,0,0.4-0.1,0.6-0.2c0.1-0.1,0.3-0.3,0.3-0.4l1.1-3h6.1l1.1,3
				c0.1,0.2,0.2,0.3,0.3,0.4c0.2,0.1,0.4,0.2,0.6,0.2h2.1l-5.8-14.7L39.8,96.8z M38.9,106l1.8-4.8c0.1-0.2,0.2-0.5,0.3-0.8
				c0.1-0.3,0.2-0.6,0.3-1c0.1,0.4,0.2,0.7,0.3,1c0.1,0.3,0.2,0.6,0.3,0.8l1.8,4.9L38.9,106z"/>
			<path id="Path_270" d="M61.3,111.5l-3.7-5.4c-0.1-0.2-0.3-0.3-0.4-0.5c-0.1-0.1-0.3-0.3-0.5-0.4c0.5-0.2,0.9-0.4,1.4-0.6
				c0.4-0.3,0.7-0.6,1-0.9c0.3-0.4,0.5-0.8,0.6-1.2c0.3-1,0.3-2.2-0.1-3.2c-0.2-0.5-0.6-1-1-1.3c-0.5-0.4-1.1-0.7-1.8-0.9
				c-0.8-0.2-1.7-0.3-2.5-0.3h-4.5v14.7h2.8v-5.7h1.2c0.2,0,0.4,0,0.6,0.1c0.2,0.1,0.3,0.2,0.4,0.4l3.1,4.7c0.2,0.4,0.6,0.6,1,0.5
				L61.3,111.5z M55.6,103.5c-0.4,0.2-0.9,0.3-1.4,0.3h-1.6V99h1.8c0.8-0.1,1.6,0.1,2.3,0.6c0.5,0.4,0.8,1.1,0.7,1.7
				c0,0.3-0.1,0.7-0.2,1c-0.1,0.3-0.3,0.6-0.5,0.8c-0.3,0.2-0.6,0.4-1,0.5L55.6,103.5z"/>
			<path id="Path_271" d="M64.6,111.3c0.1-0.1,0.3-0.3,0.3-0.4l1.1-3h6.1l1.1,3c0.1,0.2,0.2,0.3,0.3,0.4c0.2,0.1,0.4,0.2,0.6,0.2
				h2.1l-5.8-14.7h-2.8l-5.8,14.7H64C64.2,111.5,64.4,111.5,64.6,111.3z M68.5,101.1c0-0.2,0.2-0.5,0.3-0.8c0.1-0.3,0.2-0.6,0.3-1
				c0.1,0.4,0.2,0.7,0.3,1c0.1,0.3,0.2,0.6,0.3,0.8l1.8,4.9h-4.7L68.5,101.1z"/>
			<path id="Path_272" d="M88.1,111.4c0.2,0.1,0.4,0.1,0.5,0.1h1.4V96.8h-2.4v8.9c0,0.2,0,0.4,0,0.6v0.7L80,97.3L79.8,97l-0.1-0.1
				h-0.2h-1.8v14.7h2.4v-9.1c0-0.4,0-0.8,0-1.2l7.6,9.8C87.8,111.2,87.9,111.3,88.1,111.4z"/>
			<path id="Path_273" d="M102.7,111.1c0.9-0.4,1.6-1,2.2-1.7l-1.1-1.2c-0.1-0.1-0.2-0.2-0.4-0.2c-0.1,0-0.2,0-0.2,0
				c-0.1,0-0.1,0.1-0.2,0.1c-0.2,0.2-0.4,0.4-0.7,0.5c-0.2,0.1-0.5,0.2-0.7,0.3c-0.3,0.1-0.6,0.2-0.8,0.2c-0.3,0-0.7,0-1,0
				c-0.6,0-1.2-0.1-1.8-0.4c-0.5-0.2-1-0.6-1.4-1c-0.4-0.5-0.7-1-1-1.6c-0.4-1.4-0.4-3,0-4.4c0.2-0.6,0.5-1.1,0.9-1.6
				c0.4-0.4,0.9-0.8,1.4-1c0.6-0.2,1.2-0.3,1.8-0.2c0.3,0,0.7,0,1,0.1c0.3,0.1,0.5,0.1,0.8,0.2c0.2,0.1,0.4,0.2,0.6,0.3l0.4,0.3
				l0.4,0.2c0.1,0.1,0.2,0.1,0.3,0.1c0.1,0,0.2,0,0.4-0.1c0.1-0.1,0.2-0.1,0.2-0.2l0.9-1.3c-0.6-0.6-1.3-1.1-2.1-1.4
				c-0.9-0.4-1.9-0.5-2.8-0.5c-1,0-2,0.2-2.9,0.5c-0.9,0.4-1.6,0.9-2.3,1.6c-0.7,0.7-1.2,1.5-1.5,2.4c-0.4,1-0.5,2-0.5,3
				c0,1,0.2,2,0.5,3c0.3,0.9,0.8,1.7,1.4,2.4c0.6,0.7,1.4,1.2,2.2,1.6c2,0.8,4.1,0.8,6.1,0V111.1z"/>
			<path id="Path_274" d="M112.4,108.6c0.2-0.7,0.3-1.5,0.3-2.2v-9.5H110v9.6c0,0.5,0,1-0.2,1.4c-0.1,0.3-0.2,0.7-0.4,1
				c-0.2,0.2-0.5,0.4-0.7,0.5c-0.3,0.1-0.7,0.2-1,0.2c-0.2,0-0.5,0-0.7,0c-0.2,0-0.3,0-0.5,0c-0.1,0-0.3,0-0.4,0.1
				c-0.1,0.1-0.2,0.2-0.2,0.4c0,0.3,0,0.5,0,0.8s0,0.5,0,0.8c0.4,0.1,0.7,0.2,1.1,0.2c0.4,0,0.7,0,1.1,0c0.7,0,1.3-0.2,1.9-0.5
				c0.6-0.2,1.2-0.6,1.6-1.1C111.9,109.7,112.2,109.2,112.4,108.6z"/>
			<path id="Path_275" d="M124.8,110.9c0.1,0.2,0.2,0.3,0.3,0.4c0.2,0.1,0.4,0.2,0.6,0.2h2.1l-5.8-14.7h-2.8l-5.8,14.7h2.1
				c0.2,0,0.4-0.1,0.6-0.2c0.1-0.1,0.3-0.3,0.3-0.4l1.1-3h6.1L124.8,110.9z M118.4,106l1.8-4.8c0-0.2,0.2-0.5,0.3-0.8
				c0.1-0.3,0.2-0.6,0.3-1c0.1,0.4,0.2,0.7,0.3,1c0.1,0.3,0.2,0.6,0.3,0.8l1.8,4.9L118.4,106z"/>
			<path id="Path_276" d="M8.2,123.3c0,0.1,0,0.3,0,0.5v0.5l-5.7-7.4c0-0.1-0.1-0.1-0.2-0.2c0-0.1-0.1-0.1-0.1-0.1
				c-0.1,0-0.1,0-0.2,0H0.7v11.1h1.8v-6.8c0-0.3,0-0.6,0-0.9l5.7,7.4c0.1,0.1,0.2,0.2,0.3,0.3c0.1,0,0.3,0,0.4,0H10v-10.9H8.2V123.3
				z"/>
			<path id="Path_277" d="M15.5,116.6l-4.3,11h1.6c0.2,0,0.3-0.1,0.4-0.2c0.1-0.1,0.2-0.2,0.2-0.3l0.8-2.2h4.6l0.8,2.2
				c0,0.1,0.1,0.3,0.3,0.3c0.1,0.1,0.3,0.1,0.4,0.1h1.6l-4.4-11H15.5z M14.8,123.5l1.3-3.7c0-0.2,0.1-0.4,0.2-0.6
				c0.1-0.2,0.1-0.5,0.2-0.7c0,0.3,0.1,0.5,0.2,0.7l0.2,0.6l1.4,3.7L14.8,123.5z"/>
			<path id="Path_278" d="M30.7,113.4c-0.1,0-0.1,0-0.2,0.1l-0.2,0.2l-1.6,2.1h1.4c0.1,0,0.2,0,0.4,0c0.1,0,0.2-0.1,0.3-0.2l2.5-2.2
				h-2.4C30.9,113.4,30.8,113.4,30.7,113.4z"/>
			<path id="Path_279" d="M32.6,122.2c-0.2-0.2-0.5-0.4-0.8-0.6c-0.3-0.1-0.6-0.3-0.9-0.4l-0.9-0.3c-0.3-0.1-0.6-0.2-0.8-0.3
				c-0.2-0.1-0.4-0.3-0.6-0.4c-0.1-0.2-0.2-0.4-0.2-0.6c0-0.2,0-0.4,0.1-0.6c0.1-0.2,0.2-0.3,0.3-0.4c0.2-0.1,0.3-0.2,0.5-0.3
				c0.2-0.1,0.5-0.1,0.7-0.1c0.3,0,0.6,0,0.8,0.1c0.2,0.1,0.4,0.2,0.6,0.3l0.5,0.3c0.1,0.1,0.2,0.1,0.3,0.1c0.1,0,0.2,0,0.3,0
				c0.1-0.1,0.2-0.1,0.2-0.2l0.5-1c-0.4-0.4-0.9-0.7-1.4-0.9c-0.6-0.2-1.2-0.3-1.8-0.3c-0.5,0-1.1,0.1-1.6,0.3
				c-0.4,0.2-0.8,0.4-1.1,0.7c-0.3,0.3-0.5,0.6-0.7,1c-0.2,0.4-0.2,0.8-0.2,1.2c0,0.4,0.1,0.9,0.2,1.3c0.1,0.3,0.3,0.6,0.6,0.9
				c0.2,0.2,0.5,0.4,0.8,0.6c0.3,0.1,0.6,0.3,0.9,0.4c0.3,0.1,0.6,0.2,0.9,0.3c0.3,0.1,0.6,0.2,0.8,0.3c0.2,0.1,0.4,0.3,0.6,0.5
				c0.2,0.2,0.2,0.5,0.2,0.7c0,0.5-0.1,0.9-0.5,1.2c-0.4,0.3-0.9,0.4-1.4,0.4c-0.3,0-0.7-0.1-1-0.2c-0.3-0.1-0.5-0.2-0.7-0.4
				c-0.2-0.1-0.4-0.2-0.5-0.4c-0.1-0.1-0.3-0.1-0.4-0.2c-0.1,0-0.2,0-0.3,0c-0.1,0-0.1,0.1-0.2,0.2l-0.6,1c0.2,0.2,0.5,0.4,0.7,0.6
				c0.3,0.2,0.6,0.3,0.9,0.5c0.3,0.1,0.7,0.2,1,0.3c0.3,0.1,0.7,0.1,1,0.1c0.5,0,1.1-0.1,1.6-0.3c0.4-0.2,0.9-0.4,1.2-0.8
				c0.3-0.3,0.6-0.7,0.7-1.1c0.2-0.4,0.3-0.9,0.3-1.4c0-0.4-0.1-0.8-0.2-1.2C33,122.7,32.8,122.4,32.6,122.2z"/>
			<path id="Path_280" d="M42.7,125c-0.1,0-0.1,0-0.2,0c-0.1,0-0.1,0.1-0.2,0.1c-0.2,0.1-0.3,0.3-0.5,0.4c-0.2,0.1-0.4,0.2-0.5,0.3
				c-0.2,0.1-0.4,0.1-0.6,0.1c-0.3,0-0.5,0-0.8,0c-0.4,0-0.9-0.1-1.3-0.3c-0.4-0.2-0.8-0.4-1.1-0.7c-0.3-0.4-0.6-0.8-0.7-1.2
				c-0.2-0.5-0.3-1.1-0.3-1.6c0-0.5,0.1-1.1,0.2-1.6c0.1-0.4,0.4-0.9,0.7-1.2c0.3-0.3,0.7-0.6,1.1-0.7c0.4-0.2,0.9-0.3,1.4-0.3
				c0.3,0,0.5,0,0.8,0c0.2,0,0.4,0.1,0.6,0.2l0.4,0.2l0.3,0.2l0.3,0.2c0.1,0,0.2,0,0.2,0c0.1,0,0.2,0,0.3,0c0.1,0,0.1-0.1,0.2-0.2
				l0.7-1c-0.5-0.4-1-0.8-1.6-1c-1.4-0.5-3-0.5-4.4,0c-1.3,0.5-2.4,1.6-2.8,3c-0.3,0.7-0.4,1.5-0.4,2.3c0,0.8,0.1,1.5,0.4,2.3
				c0.2,0.7,0.6,1.3,1.1,1.8c0.5,0.5,1,0.9,1.7,1.2c0.7,0.3,1.5,0.4,2.2,0.4c0.8,0,1.6-0.1,2.4-0.4c0.6-0.3,1.2-0.7,1.6-1.3
				l-0.8-0.9C42.9,125,42.8,125,42.7,125z"/>
			<rect id="Rectangle_138" x="45.1" y="116.6" width="2.1" height="11.1"/>
			<path id="Path_281" d="M49.6,127.6h7V126h-4.9v-3.2h3.9v-1.6h-3.9v-3.1h4.9v-1.6h-7V127.6z"/>
			<path id="Path_282" d="M63.8,123.1c-0.1-0.1-0.2-0.2-0.4-0.3c0.4-0.1,0.7-0.3,1-0.5c0.3-0.2,0.6-0.4,0.8-0.7
				c0.2-0.3,0.4-0.6,0.5-0.9c0.3-0.8,0.3-1.6,0-2.3c-0.2-0.4-0.4-0.7-0.7-1c-0.4-0.3-0.8-0.5-1.3-0.7c-0.7-0.2-1.3-0.3-2-0.2h-3.4
				v11.1h2.1v-4.3h0.9c0.2,0,0.3,0,0.5,0c0.1,0.1,0.2,0.2,0.3,0.3l2.3,3.5c0.2,0.3,0.5,0.4,0.8,0.4h1.9l-2.8-4.1
				C64.1,123.3,64,123.2,63.8,123.1z M62.6,121.7c-0.3,0.1-0.7,0.2-1,0.1h-1.3v-3.6h1.3c0.6,0,1.2,0.1,1.7,0.5
				c0.4,0.3,0.6,0.8,0.6,1.3c0,0.3,0,0.5-0.1,0.8c-0.1,0.2-0.2,0.4-0.4,0.6C63.1,121.5,62.9,121.6,62.6,121.7z"/>
			<path id="Path_283" d="M71.7,116.6l-4.4,11.1H69c0.2,0,0.3-0.1,0.4-0.2c0.1-0.1,0.2-0.2,0.2-0.3l0.8-2.2H75l0.8,2.2
				c0,0.1,0.1,0.3,0.3,0.3c0.1,0.1,0.3,0.1,0.4,0.1h1.6l-4.3-11.1H71.7z M71,123.5l1.3-3.7l0.2-0.6c0-0.2,0.1-0.5,0.2-0.7
				c0,0.3,0.1,0.5,0.2,0.7l0.4,0.6l1.4,3.7L71,123.5z"/>
			<path id="Path_284" d="M81.4,116.6h-2.1v11.1h6.5v-1.7h-4.4V116.6z"/>
			<path id="Path_285" d="M94.6,123.3c0,0.1,0,0.3,0,0.5c0,0.2,0,0.4,0,0.5l-5.8-7.4c0-0.1-0.1-0.1-0.2-0.2
				c-0.1-0.1-0.2-0.1-0.3-0.1H87v11.1h1.8v-6.8c0-0.3,0-0.6,0-0.9l5.8,7.4c0.1,0.1,0.2,0.2,0.3,0.3c0.1,0,0.3,0,0.4,0h1.1v-10.9
				h-1.8V123.3z"/>
			<path id="Path_286" d="M108.7,119.2c-0.2-0.4-0.5-0.8-0.8-1.1c-0.3-0.3-0.7-0.6-1.1-0.9c-0.4-0.2-0.9-0.4-1.4-0.6
				c-0.5-0.1-1.1-0.2-1.6-0.2c-0.8,0-1.6,0.1-2.3,0.4c-1.3,0.5-2.4,1.6-2.9,2.9c-0.5,1.5-0.5,3.1,0,4.5c0.2,0.7,0.6,1.3,1.1,1.9
				c0.5,0.5,1.1,0.9,1.8,1.2c1.5,0.6,3.1,0.6,4.6,0c0.7-0.3,1.3-0.7,1.8-1.2c0.5-0.5,0.9-1.1,1.1-1.8c0.3-0.7,0.4-1.5,0.4-2.2
				c0-0.5-0.1-1.1-0.2-1.6C109.1,120,108.9,119.6,108.7,119.2z M107.1,123.7c-0.1,0.5-0.4,0.9-0.7,1.2c-0.3,0.3-0.7,0.6-1.1,0.8
				c-0.9,0.4-2,0.4-2.9,0c-0.4-0.2-0.8-0.4-1.1-0.8c-0.3-0.4-0.5-0.8-0.7-1.2c-0.3-1-0.3-2.1,0-3.2c0.2-0.4,0.4-0.9,0.7-1.2
				c0.3-0.3,0.7-0.6,1.1-0.8c0.9-0.4,2-0.4,2.9,0c0.4,0.2,0.8,0.4,1.1,0.8c0.3,0.4,0.6,0.8,0.7,1.2
				C107.4,121.6,107.4,122.7,107.1,123.7L107.1,123.7z"/>
			<path id="Path_287" d="M114.7,115.7c0.1,0,0.2-0.1,0.3-0.2l2.5-2.2h-2.4c-0.1,0-0.1,0-0.2,0c-0.1,0-0.1,0-0.2,0.1l-0.2,0.2
				l-1.6,2.1h1.4C114.5,115.7,114.6,115.7,114.7,115.7z"/>
			<path id="Path_288" d="M116.9,122.2c-0.2-0.2-0.5-0.4-0.8-0.6c-0.3-0.1-0.6-0.3-0.9-0.4l-0.9-0.3c-0.3-0.1-0.6-0.2-0.8-0.3
				c-0.2-0.1-0.4-0.3-0.6-0.4c-0.1-0.2-0.2-0.4-0.2-0.6c0-0.2,0-0.4,0.1-0.6c0.1-0.2,0.2-0.3,0.3-0.4c0.2-0.1,0.3-0.2,0.5-0.3
				c0.2-0.1,0.5-0.1,0.7,0c0.3,0,0.6,0,0.8,0.1c0.2,0.1,0.4,0.2,0.6,0.3l0.4,0.3c0.1,0.1,0.2,0.1,0.4,0.1c0.1,0,0.2,0,0.3,0
				c0.1-0.1,0.1-0.1,0.2-0.2l0.5-1c-0.4-0.4-0.9-0.7-1.4-0.9c-0.6-0.2-1.2-0.3-1.8-0.3c-0.5,0-1.1,0.1-1.6,0.3
				c-0.4,0.2-0.8,0.4-1.1,0.7c-0.3,0.3-0.5,0.6-0.7,1c-0.2,0.4-0.2,0.8-0.2,1.2c0,0.4,0.1,0.9,0.2,1.3c0.1,0.3,0.3,0.6,0.6,0.9
				c0.2,0.2,0.5,0.4,0.8,0.6c0.3,0.1,0.6,0.3,0.9,0.4l0.9,0.3c0.3,0.1,0.6,0.2,0.8,0.3c0.2,0.1,0.4,0.3,0.6,0.5
				c0.1,0.2,0.2,0.5,0.2,0.7c0,0.5-0.1,0.9-0.5,1.2c-0.4,0.3-0.9,0.4-1.4,0.4c-0.3,0-0.7-0.1-1-0.2c-0.3-0.1-0.5-0.2-0.7-0.4
				c-0.2-0.1-0.4-0.2-0.5-0.4c-0.1-0.1-0.3-0.2-0.4-0.2c-0.1,0-0.2,0-0.3,0c-0.1,0-0.1,0.1-0.2,0.2l-0.6,1c0.2,0.2,0.5,0.4,0.7,0.6
				c0.3,0.2,0.6,0.3,0.9,0.5c0.3,0.1,0.7,0.2,1,0.3c0.3,0.1,0.7,0.1,1,0.1c0.5,0,1.1-0.1,1.6-0.3c0.4-0.2,0.9-0.4,1.2-0.8
				c0.3-0.3,0.6-0.7,0.7-1.1c0.2-0.4,0.3-0.9,0.3-1.4c0-0.4-0.1-0.8-0.2-1.2C117.3,122.7,117.1,122.4,116.9,122.2z"/>
			<path id="Path_289" d="M125.2,113.4c-0.1,0-0.1,0-0.2,0c-0.1,0-0.1,0-0.2,0.1c-0.1,0-0.1,0.1-0.2,0.2l-1.6,2.1h1.4
				c0.1,0,0.2,0,0.4,0c0.1,0,0.2-0.1,0.3-0.2l2.4-2.2H125.2z"/>
			<path id="Path_290" d="M127.2,125.1c-0.1-0.1-0.2-0.1-0.3-0.1c-0.1,0-0.1,0-0.2,0c-0.1,0-0.1,0.1-0.2,0.1
				c-0.2,0.2-0.3,0.3-0.5,0.4c-0.2,0.1-0.4,0.2-0.5,0.3c-0.2,0.1-0.4,0.1-0.6,0.1c-0.3,0-0.5,0-0.8,0c-0.4,0-0.9-0.1-1.3-0.3
				c-0.4-0.2-0.8-0.4-1.1-0.8c-0.3-0.3-0.5-0.7-0.7-1.1c-0.2-0.5-0.3-1.1-0.3-1.6c0-0.5,0.1-1.1,0.2-1.6c0.1-0.4,0.4-0.9,0.7-1.2
				c0.3-0.3,0.7-0.6,1.1-0.8c0.4-0.2,0.9-0.3,1.4-0.3c0.3,0,0.5,0,0.8,0c0.2,0,0.4,0.1,0.6,0.2c0.2,0.1,0.3,0.1,0.4,0.2l0.3,0.2
				c0.1,0.1,0.2,0.1,0.3,0.2c0.1,0,0.2,0,0.2,0c0.1,0,0.2,0,0.3,0c0.1,0,0.1-0.1,0.2-0.2l0.7-1c-0.5-0.4-1-0.8-1.6-1
				c-0.7-0.3-1.4-0.4-2.2-0.4c-0.8,0-1.5,0.1-2.2,0.4c-0.6,0.3-1.2,0.7-1.7,1.2c-0.5,0.5-0.9,1.1-1.1,1.8c-0.3,0.7-0.4,1.5-0.4,2.3
				c0,0.8,0.1,1.5,0.4,2.3c0.2,0.6,0.6,1.2,1,1.7c0.5,0.5,1,0.9,1.7,1.2c0.7,0.3,1.5,0.4,2.2,0.4c0.8,0,1.6-0.1,2.4-0.4
				c0.6-0.3,1.2-0.7,1.6-1.3L127.2,125.1z"/>
			<path id="Path_291" d="M60.7,80.4c0.1-1.4-0.5-2.7-1.4-3.6c-1.1-1-2.5-1.4-3.9-1.4H32.8c-1.8,0-3.6,0.2-5.4,0.5
				c-1.9,0.3-3.8,0.7-5.7,1.3l19.9-20.3c2.4-2.4,4.6-4.8,6.8-7.2c2.1-2.3,4-4.7,5.6-7.3c1.6-2.5,2.9-5.2,3.8-8c1-2.9,1.5-6,1.4-9
				c0-3.5-0.6-7-2-10.3c-1.3-3-3.2-5.7-5.6-8c-2.5-2.2-5.5-4-8.6-5.1c-3.6-1.2-7.4-1.8-11.2-1.8c-3.7,0-7.4,0.5-10.9,1.6
				c-3.3,1-6.4,2.6-9,4.8c-2.7,2.2-4.9,4.9-6.6,8c-1.8,3.5-3,7.3-3.5,11.2l8,1.4c1.6,0.4,3.3,0.2,4.8-0.4c1.3-0.9,2.3-2.2,2.7-3.7
				c0.4-1.4,1-2.8,1.8-4c1.7-2.5,4.2-4.4,7-5.3c1.6-0.5,3.2-0.7,4.9-0.7c1.8,0,3.6,0.3,5.3,0.8c1.5,0.5,2.9,1.3,4,2.4
				c1.1,1.1,2,2.5,2.6,4c0.6,1.8,1,3.7,0.9,5.6c0,2.2-0.3,4.5-1,6.6c-0.7,2.2-1.6,4.2-2.7,6.2c-1.3,2.2-2.8,4.3-4.4,6.3
				c-1.8,2.1-3.8,4.3-6,6.5L2.9,78.2c-0.9,0.8-1.6,1.9-2,3c-0.4,1-0.6,2.1-0.6,3.2v5h60.5V80.4z"/>
			<path id="Path_292" d="M108.4,87.6c4-1.9,7.6-4.7,10.3-8.3c3.2-4.2,5.5-9,6.8-14.1c0.6-2.1,1.1-4.2,1.4-6.4h-15.5
				c-0.1,0.8-0.3,1.6-0.4,2.3c-0.7,3.5-1.9,6.9-3.7,10c-1.3,2.2-3.1,4-5.4,5.2c-2,1-4.2,1.5-6.4,1.5c-2.2,0-4.3-0.6-6.2-1.6
				c-2.2-1.2-4.1-3-5.3-5.2c-1.8-3.1-3-6.5-3.7-10c-0.2-0.7-0.3-1.5-0.4-2.3H64.3c0.4,2.1,0.8,4.3,1.4,6.4c1.3,5.1,3.6,9.8,6.8,14.1
				c2.7,3.5,6.2,6.4,10.2,8.3c4,1.8,8.4,2.8,12.7,2.7C99.9,90.3,104.3,89.4,108.4,87.6z"/>
			<path id="Path_293" d="M80.2,29.4c0.7-3.5,1.9-6.9,3.7-10c1.3-2.2,3.1-4,5.3-5.2c1.9-1,4.1-1.5,6.3-1.5c2.2,0,4.4,0.5,6.4,1.5
				c2.2,1.2,4.1,3,5.4,5.2c1.8,3.1,3.1,6.5,3.8,10c0.3,1.3,0.5,2.8,0.7,4.4h15.5c-0.4-2.9-1-5.8-1.8-8.6c-1.4-5.1-3.7-9.8-6.8-14
				c-2.7-3.5-6.3-6.4-10.3-8.3c-8.2-3.6-17.5-3.6-25.6,0c-4,1.9-7.5,4.7-10.2,8.3c-3.1,4.2-5.4,9-6.8,14C65,28,64.4,30.9,64,33.8
				h15.5C79.7,32.2,79.9,30.8,80.2,29.4z"/>
			<path id="Path_294" d="M72.6,36.8v19.4H84v-3h-7.8V36.8H72.6z"/>
			<path id="Path_295" d="M90.6,56c0.2-0.1,0.3-0.3,0.4-0.6l1.4-4h8.1l1.4,4c0.1,0.2,0.3,0.4,0.4,0.6c0.2,0.2,0.5,0.3,0.8,0.2h2.8
				l-7.6-19.4h-3.7L87,56.2h2.8C90.1,56.2,90.4,56.2,90.6,56z M95.8,42.5c0.1-0.3,0.2-0.6,0.4-1s0.2-0.8,0.4-1.3
				c0.1,0.5,0.2,0.9,0.4,1.3c0.1,0.4,0.3,0.7,0.4,1l2.4,6.5h-6.2L95.8,42.5z"/>
			<path id="Path_296" d="M115.5,56.2V39.7h5.9v-3H106v3h5.9v16.5H115.5z"/>
		</g>
	</g>
</g>
</svg>
