<?xml version="1.0" encoding="utf-8"?>
<!-- Generator: Adobe Illustrator 24.0.3, SVG Export Plug-In . SVG Version: 6.00 Build 0)  -->
<svg version="1.1" id="Layer_1" xmlns="http://www.w3.org/2000/svg" xmlns:xlink="http://www.w3.org/1999/xlink" x="0px" y="0px"
	 viewBox="0 0 128 128" style="enable-background:new 0 0 128 128;" xml:space="preserve">
<g id="Layer_2_1_">
	<g id="Layer_1-2">
		<g id="Group_535">
			<path id="Path_267" d="M21.1,107.5H17v1.3c0,0.1,0,0.3,0.1,0.3c0.1,0.1,0.3,0.2,0.3,0.1h1.5v2.3c-0.3,0.2-0.7,0.3-1.1,0.4
				c-0.4,0.1-0.8,0.2-1.3,0.2c-0.6,0-1.2-0.1-1.8-0.3c-0.5-0.2-0.9-0.5-1.3-0.9c-0.3-0.4-0.7-0.8-0.8-1.3c-0.2-0.6-0.3-1.3-0.3-1.9
				c0-0.7,0.1-1.3,0.3-1.9c0.2-0.5,0.4-0.9,0.8-1.3c0.3-0.4,0.8-0.7,1.3-0.9c0.7-0.2,1.3-0.3,1.8-0.3c0.3,0,0.7,0,1,0.1
				c0.3,0,0.5,0.1,0.8,0.2c0.3,0.1,0.4,0.2,0.6,0.3l0.6,0.3c0.2,0.1,0.3,0.2,0.5,0.1c0.2,0,0.3-0.2,0.4-0.3l0.7-1
				c-0.3-0.3-0.5-0.5-0.8-0.7c-0.3-0.2-0.7-0.4-1-0.5c-0.4-0.2-0.8-0.3-1.2-0.3c-0.4-0.1-0.9-0.1-1.3-0.1c-0.9,0-1.9,0.2-2.7,0.5
				c-1.5,0.5-2.8,1.8-3.4,3.3c-0.3,0.8-0.5,1.7-0.4,2.5c0,0.8,0.2,1.8,0.5,2.5s0.8,1.4,1.3,2s1.3,1,2.1,1.3c0.8,0.3,1.8,0.5,2.7,0.5
				c0.8,0,1.5-0.1,2.3-0.3c0.8-0.3,1.4-0.6,2-1V107.5z"/>
			<path id="Path_268" d="M35.8,113.7l3.9-12.4h-1.9c-0.2,0-0.3,0.1-0.5,0.2c-0.2,0.1-0.3,0.3-0.3,0.3l-2.1,7.4
				c-0.1,0.3-0.2,0.8-0.3,1.3c-0.1-0.4-0.2-0.8-0.3-1.3l-2.4-7.4c-0.1-0.2-0.2-0.3-0.3-0.3c-0.2-0.1-0.3-0.2-0.5-0.2h-0.7
				c-0.2,0-0.3,0.1-0.5,0.2c-0.1,0.1-0.3,0.3-0.3,0.3l-2.4,7.4c0,0.2-0.1,0.3-0.2,0.6c-0.1,0.3-0.1,0.4-0.2,0.7
				c0-0.3-0.1-0.4-0.2-0.7c0-0.2-0.1-0.4-0.2-0.6l-2.1-7.4c-0.1-0.2-0.2-0.3-0.3-0.3c-0.2-0.1-0.3-0.2-0.5-0.2h-1.9l3.8,12.4h2.1
				l2.7-8.4c0.1-0.1,0.1-0.3,0.1-0.3s0-0.3,0.1-0.4c0.1,0.3,0.1,0.5,0.2,0.8l2.7,8.4H35.8z"/>
			<path id="Path_269" d="M43.6,101.3l-4.9,12.4h1.8c0.2,0,0.3-0.1,0.5-0.2c0.1-0.1,0.3-0.3,0.3-0.3l0.9-2.5h5.1l0.9,2.5
				c0.1,0.2,0.2,0.3,0.3,0.3c0.2,0.1,0.3,0.2,0.5,0.2h1.8l-4.9-12.4H43.6z M42.9,109l1.5-4c0.1-0.2,0.2-0.4,0.3-0.7
				c0.1-0.3,0.2-0.5,0.3-0.8c0.1,0.3,0.2,0.6,0.3,0.8c0.1,0.3,0.2,0.5,0.3,0.7l1.5,4.1L42.9,109z"/>
			<path id="Path_270" d="M61.7,113.7l-3.1-4.5c-0.1-0.2-0.3-0.3-0.3-0.4c-0.1-0.1-0.3-0.3-0.4-0.3c0.4-0.2,0.8-0.3,1.2-0.5
				c0.3-0.3,0.6-0.5,0.8-0.8c0.3-0.3,0.4-0.7,0.5-1c0.3-0.8,0.3-1.9-0.1-2.7c-0.2-0.4-0.5-0.8-0.8-1.1c-0.4-0.3-0.9-0.6-1.5-0.8
				c-0.7-0.2-1.4-0.3-2.1-0.3h-3.8v12.4h2.4v-4.8h1c0.2,0,0.3,0,0.5,0.1c0.2,0.1,0.3,0.2,0.3,0.3l2.6,4c0.2,0.3,0.5,0.5,0.8,0.4
				L61.7,113.7z M56.9,106.9c-0.3,0.2-0.8,0.3-1.2,0.3h-1.3v-4h1.5c0.7-0.1,1.3,0.1,1.9,0.5c0.4,0.3,0.7,0.9,0.6,1.4
				c0,0.3-0.1,0.6-0.2,0.8c-0.1,0.3-0.3,0.5-0.4,0.7C57.6,106.8,57.4,106.9,56.9,106.9L56.9,106.9z"/>
			<path id="Path_271" d="M64.5,113.5c0.1-0.1,0.3-0.3,0.3-0.3l0.9-2.5h5.1l0.9,2.5c0.1,0.2,0.2,0.3,0.3,0.3
				c0.2,0.1,0.3,0.2,0.5,0.2h1.8l-4.9-12.4H67l-4.9,12.4H64C64.2,113.7,64.3,113.7,64.5,113.5z M67.8,104.9c0-0.2,0.2-0.4,0.3-0.7
				s0.2-0.5,0.3-0.8c0.1,0.3,0.2,0.6,0.3,0.8c0.1,0.3,0.2,0.5,0.3,0.7l1.5,4.1h-4L67.8,104.9z"/>
			<path id="Path_272" d="M84.3,113.6c0.2,0.1,0.3,0.1,0.4,0.1h1.2v-12.4h-2v7.5c0,0.2,0,0.3,0,0.5v0.6l-6.4-8.2l-0.2-0.3l-0.1-0.1
				H77h-1.5v12.4h2v-7.7c0-0.3,0-0.7,0-1l6.4,8.2C84,113.4,84.1,113.5,84.3,113.6z"/>
			<path id="Path_273" d="M96.6,113.3c0.8-0.3,1.3-0.8,1.9-1.4l-0.9-1c-0.1-0.1-0.2-0.2-0.3-0.2c-0.1,0-0.2,0-0.2,0
				c-0.1,0-0.1,0.1-0.2,0.1c-0.2,0.2-0.3,0.3-0.6,0.4c-0.2,0.1-0.4,0.2-0.6,0.3c-0.3,0.1-0.5,0.2-0.7,0.2c-0.3,0-0.6,0-0.8,0
				c-0.5,0-1-0.1-1.5-0.3c-0.4-0.2-0.8-0.5-1.2-0.8c-0.3-0.4-0.6-0.8-0.8-1.3c-0.3-1.2-0.3-2.5,0-3.7c0.2-0.5,0.4-0.9,0.8-1.3
				c0.3-0.3,0.8-0.7,1.2-0.8c0.5-0.2,1-0.3,1.5-0.2c0.3,0,0.6,0,0.8,0.1c0.3,0.1,0.4,0.1,0.7,0.2c0.2,0.1,0.3,0.2,0.5,0.3l0.3,0.3
				l0.3,0.2c0.1,0.1,0.2,0.1,0.3,0.1c0.1,0,0.2,0,0.3-0.1c0.1-0.1,0.2-0.1,0.2-0.2l0.8-1.1c-0.5-0.5-1.1-0.9-1.8-1.2
				c-0.8-0.3-1.6-0.4-2.4-0.4c-0.8,0-1.7,0.2-2.4,0.4c-0.8,0.3-1.3,0.8-1.9,1.3c-0.6,0.6-1,1.3-1.3,2c-0.3,0.8-0.4,1.7-0.4,2.5
				c0,0.8,0.2,1.7,0.4,2.5c0.3,0.8,0.7,1.4,1.2,2s1.2,1,1.9,1.3C93.2,114,95,114,96.6,113.3L96.6,113.3L96.6,113.3z"/>
			<path id="Path_274" d="M104.7,111.2c0.2-0.6,0.3-1.3,0.3-1.9v-8h-2.3v8.1c0,0.4,0,0.8-0.2,1.2c-0.1,0.3-0.2,0.6-0.3,0.8
				c-0.2,0.2-0.4,0.3-0.6,0.4c-0.3,0.1-0.6,0.2-0.8,0.2c-0.2,0-0.4,0-0.6,0c-0.2,0-0.3,0-0.4,0c-0.1,0-0.3,0-0.3,0.1
				c-0.1,0.1-0.2,0.2-0.2,0.3c0,0.3,0,0.4,0,0.7c0,0.3,0,0.4,0,0.7c0.3,0.1,0.6,0.2,0.9,0.2s0.6,0,0.9,0c0.6,0,1.1-0.2,1.6-0.4
				c0.5-0.2,1-0.5,1.3-0.9C104.3,112.2,104.6,111.7,104.7,111.2z"/>
			<path id="Path_275" d="M115.2,113.2c0.1,0.2,0.2,0.3,0.3,0.3c0.2,0.1,0.3,0.2,0.5,0.2h1.8l-4.9-12.4h-2.4l-4.9,12.4h1.8
				c0.2,0,0.3-0.1,0.5-0.2c0.1-0.1,0.3-0.3,0.3-0.3l0.9-2.5h5.1L115.2,113.2z M109.8,109l1.5-4c0-0.2,0.2-0.4,0.3-0.7
				s0.2-0.5,0.3-0.8c0.1,0.3,0.2,0.6,0.3,0.8c0.1,0.3,0.2,0.5,0.3,0.7l1.5,4.1L109.8,109z"/>
			<path id="Path_276" d="M17,123.6c0,0.1,0,0.3,0,0.4v0.4l-4.8-6.2c0-0.1-0.1-0.1-0.2-0.2c0-0.1-0.1-0.1-0.1-0.1
				c-0.1,0-0.1,0-0.2,0h-1.1v9.3h1.5v-5.7c0-0.3,0-0.5,0-0.8l4.8,6.2c0.1,0.1,0.2,0.2,0.3,0.3c0.1,0,0.3,0,0.3,0h0.9v-9.2H17V123.6z
				"/>
			<path id="Path_277" d="M23.2,118l-3.6,9.3h1.3c0.2,0,0.3-0.1,0.3-0.2c0.1-0.1,0.2-0.2,0.2-0.3l0.7-1.9H26l0.7,1.9
				c0,0.1,0.1,0.3,0.3,0.3c0.1,0.1,0.3,0.1,0.3,0.1h1.3l-3.7-9.3L23.2,118L23.2,118z M22.6,123.8l1.1-3.1c0-0.2,0.1-0.3,0.2-0.5
				c0.1-0.2,0.1-0.4,0.2-0.6c0,0.3,0.1,0.4,0.2,0.6l0.2,0.5l1.2,3.1H22.6z"/>
			<path id="Path_278" d="M36,115.3c-0.1,0-0.1,0-0.2,0.1l-0.2,0.2l-1.3,1.8h1.2c0.1,0,0.2,0,0.3,0c0.1,0,0.2-0.1,0.3-0.2l2.1-1.9
				h-2C36.1,115.3,36.1,115.3,36,115.3z"/>
			<path id="Path_279" d="M37.6,122.7c-0.2-0.2-0.4-0.3-0.7-0.5c-0.3-0.1-0.5-0.3-0.8-0.3l-0.8-0.3c-0.3-0.1-0.5-0.2-0.7-0.3
				c-0.2-0.1-0.3-0.3-0.5-0.3c-0.1-0.2-0.2-0.3-0.2-0.5c0-0.2,0-0.3,0.1-0.5c0.1-0.2,0.2-0.3,0.3-0.3c0.2-0.1,0.3-0.2,0.4-0.3
				c0.2-0.1,0.4-0.1,0.6-0.1c0.3,0,0.5,0,0.7,0.1s0.3,0.2,0.5,0.3l0.4,0.3c0.1,0.1,0.2,0.1,0.3,0.1c0.1,0,0.2,0,0.3,0
				c0.1-0.1,0.2-0.1,0.2-0.2l0.4-0.8c-0.3-0.3-0.8-0.6-1.2-0.8c-0.5-0.2-1-0.3-1.5-0.3c-0.4,0-0.9,0.1-1.3,0.3
				c-0.3,0.2-0.7,0.3-0.9,0.6s-0.4,0.5-0.6,0.8s-0.2,0.7-0.2,1c0,0.3,0.1,0.8,0.2,1.1c0.1,0.3,0.3,0.5,0.5,0.8
				c0.2,0.2,0.4,0.3,0.7,0.5c0.3,0.1,0.5,0.3,0.8,0.3c0.3,0.1,0.5,0.2,0.8,0.3c0.3,0.1,0.5,0.2,0.7,0.3c0.2,0.1,0.3,0.3,0.5,0.4
				c0.2,0.2,0.2,0.4,0.2,0.6c0,0.4-0.1,0.8-0.4,1s-0.8,0.3-1.2,0.3c-0.3,0-0.6-0.1-0.8-0.2c-0.3-0.1-0.4-0.2-0.6-0.3
				c-0.2-0.1-0.3-0.2-0.4-0.3c-0.1-0.1-0.3-0.1-0.3-0.2c-0.1,0-0.2,0-0.3,0s-0.1,0.1-0.2,0.2l-0.5,0.8c0.2,0.2,0.4,0.3,0.6,0.5
				c0.3,0.2,0.5,0.3,0.8,0.4c0.3,0.1,0.6,0.2,0.8,0.3c0.3,0.1,0.6,0.1,0.8,0.1c0.4,0,0.9-0.1,1.3-0.3c0.3-0.2,0.8-0.3,1-0.7
				c0.3-0.3,0.5-0.6,0.6-0.9c0.2-0.3,0.3-0.8,0.3-1.2c0-0.3-0.1-0.7-0.2-1C37.9,123.1,37.7,122.8,37.6,122.7z"/>
			<path id="Path_280" d="M46.1,125c-0.1,0-0.1,0-0.2,0s-0.1,0.1-0.2,0.1c-0.2,0.1-0.3,0.3-0.4,0.3s-0.3,0.2-0.4,0.3
				c-0.2,0.1-0.3,0.1-0.5,0.1c-0.3,0-0.4,0-0.7,0c-0.3,0-0.8-0.1-1.1-0.3c-0.3-0.2-0.7-0.3-0.9-0.6c-0.3-0.3-0.5-0.7-0.6-1
				c-0.2-0.4-0.3-0.9-0.3-1.3s0.1-0.9,0.2-1.3c0.1-0.3,0.3-0.8,0.6-1s0.6-0.5,0.9-0.6c0.3-0.2,0.8-0.3,1.2-0.3c0.3,0,0.4,0,0.7,0
				c0.2,0,0.3,0.1,0.5,0.2l0.3,0.2l0.3,0.2l0.3,0.2c0.1,0,0.2,0,0.2,0c0.1,0,0.2,0,0.3,0c0.1,0,0.1-0.1,0.2-0.2l0.6-0.8
				c-0.4-0.3-0.8-0.7-1.3-0.8c-1.2-0.4-2.5-0.4-3.7,0c-1.1,0.4-2,1.3-2.4,2.5c-0.3,0.6-0.3,1.3-0.3,1.9s0.1,1.3,0.3,1.9
				c0.2,0.6,0.5,1.1,0.9,1.5c0.4,0.4,0.8,0.8,1.4,1c0.6,0.3,1.3,0.3,1.9,0.3c0.7,0,1.3-0.1,2-0.3c0.5-0.3,1-0.6,1.3-1.1l-0.7-0.8
				C46.2,125,46.2,125,46.1,125z"/>
			<rect id="Rectangle_138" x="48.1" y="118" width="1.8" height="9.3"/>
			<path id="Path_281" d="M51.9,127.2h5.9v-1.3h-4.1v-2.7h3.3v-1.3h-3.3v-2.6h4.1v-1.3h-5.9V127.2z"/>
			<path id="Path_282" d="M63.8,123.4c-0.1-0.1-0.2-0.2-0.3-0.3c0.3-0.1,0.6-0.3,0.8-0.4c0.3-0.2,0.5-0.3,0.7-0.6
				c0.2-0.3,0.3-0.5,0.4-0.8c0.3-0.7,0.3-1.3,0-1.9c-0.2-0.3-0.3-0.6-0.6-0.8c-0.3-0.3-0.7-0.4-1.1-0.6c-0.6-0.2-1.1-0.3-1.7-0.2
				h-2.9v9.3H61v-3.6h0.8c0.2,0,0.3,0,0.4,0c0.1,0.1,0.2,0.2,0.3,0.3l1.9,2.9c0.2,0.3,0.4,0.3,0.7,0.3h1.6l-2.4-3.4
				C64.1,123.6,64,123.5,63.8,123.4z M62.8,122.3c-0.3,0.1-0.6,0.2-0.8,0.1h-1.1v-3H62c0.5,0,1,0.1,1.4,0.4c0.3,0.3,0.5,0.7,0.5,1.1
				c0,0.3,0,0.4-0.1,0.7c-0.1,0.2-0.2,0.3-0.3,0.5C63.2,122.1,63.1,122.2,62.8,122.3z"/>
			<path id="Path_283" d="M70.5,118l-3.7,9.3h1.4c0.2,0,0.3-0.1,0.3-0.2c0.1-0.1,0.2-0.2,0.2-0.3l0.7-1.9h3.9l0.7,1.9
				c0,0.1,0.1,0.3,0.3,0.3c0.1,0.1,0.3,0.1,0.3,0.1h1.3l-3.6-9.3L70.5,118L70.5,118z M69.9,123.8l1.1-3.1l0.2-0.5
				c0-0.2,0.1-0.4,0.2-0.6c0,0.3,0.1,0.4,0.2,0.6l0.3,0.5l1.2,3.1H69.9z"/>
			<path id="Path_284" d="M78.6,118h-1.8v9.3h5.5v-1.4h-3.7V118z"/>
			<path id="Path_285" d="M89.7,123.6c0,0.1,0,0.3,0,0.4c0,0.2,0,0.3,0,0.4l-4.9-6.2c0-0.1-0.1-0.1-0.2-0.2
				c-0.1-0.1-0.2-0.1-0.3-0.1h-1.1v9.3h1.5v-5.7c0-0.3,0-0.5,0-0.8l4.9,6.2c0.1,0.1,0.2,0.2,0.3,0.3c0.1,0,0.3,0,0.3,0h0.9v-9.2
				h-1.5C89.7,118.1,89.7,123.6,89.7,123.6z"/>
			<path id="Path_286" d="M101.6,120.2c-0.2-0.3-0.4-0.7-0.7-0.9c-0.3-0.3-0.6-0.5-0.9-0.8c-0.3-0.2-0.8-0.3-1.2-0.5
				c-0.4-0.1-0.9-0.2-1.3-0.2c-0.7,0-1.3,0.1-1.9,0.3c-1.1,0.4-2,1.3-2.4,2.4c-0.4,1.3-0.4,2.6,0,3.8c0.2,0.6,0.5,1.1,0.9,1.6
				c0.4,0.4,0.9,0.8,1.5,1c1.3,0.5,2.6,0.5,3.9,0c0.6-0.3,1.1-0.6,1.5-1c0.4-0.4,0.8-0.9,0.9-1.5c0.3-0.6,0.3-1.3,0.3-1.9
				c0-0.4-0.1-0.9-0.2-1.3C101.9,120.8,101.8,120.5,101.6,120.2z M100.3,123.9c-0.1,0.4-0.3,0.8-0.6,1c-0.3,0.3-0.6,0.5-0.9,0.7
				c-0.8,0.3-1.7,0.3-2.4,0c-0.3-0.2-0.7-0.3-0.9-0.7s-0.4-0.7-0.6-1c-0.3-0.8-0.3-1.8,0-2.7c0.2-0.3,0.3-0.8,0.6-1
				c0.3-0.3,0.6-0.5,0.9-0.7c0.8-0.3,1.7-0.3,2.4,0c0.3,0.2,0.7,0.3,0.9,0.7s0.5,0.7,0.6,1C100.5,122.2,100.5,123.1,100.3,123.9
				L100.3,123.9z"/>
			<path id="Path_287" d="M106.7,117.2c0.1,0,0.2-0.1,0.3-0.2l2.1-1.9h-2c-0.1,0-0.1,0-0.2,0s-0.1,0-0.2,0.1l-0.2,0.2l-1.3,1.8h1.2
				C106.5,117.2,106.6,117.2,106.7,117.2z"/>
			<path id="Path_288" d="M108.5,122.7c-0.2-0.2-0.4-0.3-0.7-0.5c-0.3-0.1-0.5-0.3-0.8-0.3l-0.8-0.3c-0.3-0.1-0.5-0.2-0.7-0.3
				c-0.2-0.1-0.3-0.3-0.5-0.3c-0.1-0.2-0.2-0.3-0.2-0.5c0-0.2,0-0.3,0.1-0.5c0.1-0.2,0.2-0.3,0.3-0.3c0.2-0.1,0.3-0.2,0.4-0.3
				c0.2-0.1,0.4-0.1,0.6,0c0.3,0,0.5,0,0.7,0.1s0.3,0.2,0.5,0.3l0.3,0.3c0.1,0.1,0.2,0.1,0.3,0.1c0.1,0,0.2,0,0.3,0
				c0.1-0.1,0.1-0.1,0.2-0.2l0.4-0.8c-0.3-0.3-0.8-0.6-1.2-0.8c-0.5-0.2-1-0.3-1.5-0.3c-0.4,0-0.9,0.1-1.3,0.3
				c-0.3,0.2-0.7,0.3-0.9,0.6c-0.3,0.3-0.4,0.5-0.6,0.8c-0.2,0.3-0.2,0.7-0.2,1s0.1,0.8,0.2,1.1c0.1,0.3,0.3,0.5,0.5,0.8
				c0.2,0.2,0.4,0.3,0.7,0.5c0.3,0.1,0.5,0.3,0.8,0.3l0.8,0.3c0.3,0.1,0.5,0.2,0.7,0.3c0.2,0.1,0.3,0.3,0.5,0.4
				c0.1,0.2,0.2,0.4,0.2,0.6c0,0.4-0.1,0.8-0.4,1s-0.8,0.3-1.2,0.3c-0.3,0-0.6-0.1-0.8-0.2c-0.3-0.1-0.4-0.2-0.6-0.3
				c-0.2-0.1-0.3-0.2-0.4-0.3c-0.1-0.1-0.3-0.2-0.3-0.2s-0.2,0-0.3,0s-0.1,0.1-0.2,0.2l-0.5,0.8c0.2,0.2,0.4,0.3,0.6,0.5
				c0.3,0.2,0.5,0.3,0.8,0.4c0.3,0.1,0.6,0.2,0.8,0.3c0.3,0.1,0.6,0.1,0.8,0.1c0.4,0,0.9-0.1,1.3-0.3c0.3-0.2,0.8-0.3,1-0.7
				c0.3-0.3,0.5-0.6,0.6-0.9c0.2-0.3,0.3-0.8,0.3-1.2c0-0.3-0.1-0.7-0.2-1C108.8,123.1,108.7,122.8,108.5,122.7z"/>
			<path id="Path_289" d="M115.5,115.3c-0.1,0-0.1,0-0.2,0c-0.1,0-0.1,0-0.2,0.1c-0.1,0-0.1,0.1-0.2,0.2l-1.3,1.8h1.2
				c0.1,0,0.2,0,0.3,0c0.1,0,0.2-0.1,0.3-0.2l2-1.9H115.5z"/>
			<path id="Path_290" d="M117.2,125.1c-0.1-0.1-0.2-0.1-0.3-0.1c-0.1,0-0.1,0-0.2,0s-0.1,0.1-0.2,0.1c-0.2,0.2-0.3,0.3-0.4,0.3
				c-0.2,0.1-0.3,0.2-0.4,0.3c-0.2,0.1-0.3,0.1-0.5,0.1c-0.3,0-0.4,0-0.7,0c-0.3,0-0.8-0.1-1.1-0.3c-0.3-0.2-0.7-0.3-0.9-0.7
				c-0.3-0.3-0.4-0.6-0.6-0.9c-0.2-0.4-0.3-0.9-0.3-1.3c0-0.4,0.1-0.9,0.2-1.3c0.1-0.3,0.3-0.8,0.6-1c0.3-0.3,0.6-0.5,0.9-0.7
				c0.3-0.2,0.8-0.3,1.2-0.3c0.3,0,0.4,0,0.7,0c0.2,0,0.3,0.1,0.5,0.2c0.2,0.1,0.3,0.1,0.3,0.2l0.3,0.2c0.1,0.1,0.2,0.1,0.3,0.2
				c0.1,0,0.2,0,0.2,0c0.1,0,0.2,0,0.3,0c0.1,0,0.1-0.1,0.2-0.2l0.6-0.8c-0.4-0.3-0.8-0.7-1.3-0.8c-0.6-0.3-1.2-0.3-1.9-0.3
				s-1.3,0.1-1.9,0.3c-0.5,0.3-1,0.6-1.4,1s-0.8,0.9-0.9,1.5c-0.3,0.6-0.3,1.3-0.3,1.9c0,0.7,0.1,1.3,0.3,1.9c0.2,0.5,0.5,1,0.8,1.4
				c0.4,0.4,0.8,0.8,1.4,1c0.6,0.3,1.3,0.3,1.9,0.3c0.7,0,1.3-0.1,2-0.3c0.5-0.3,1-0.6,1.3-1.1L117.2,125.1z"/>
			<path id="Path_291" d="M61.2,87.5c0.1-1.2-0.4-2.3-1.2-3c-0.9-0.8-2.1-1.2-3.3-1.2h-19c-1.5,0-3,0.2-4.5,0.4
				c-1.6,0.3-3.2,0.6-4.8,1.1l16.7-17.1c2-2,3.9-4,5.7-6.1c1.8-1.9,3.4-4,4.7-6.1c1.3-2.1,2.4-4.4,3.2-6.7c0.8-2.4,1.3-5,1.2-7.6
				c0-2.9-0.5-5.9-1.7-8.7c-1.1-2.5-2.7-4.8-4.7-6.7c-2.1-1.9-4.6-3.4-7.2-4.3c-3-1-6.2-1.5-9.4-1.5c-3.1,0-6.2,0.4-9.2,1.3
				c-2.8,0.8-5.4,2.2-7.6,4c-2.3,1.9-4.1,4.1-5.6,6.7c-1.5,2.9-2.5,6.1-2.9,9.4l6.7,1.2c1.3,0.3,2.8,0.2,4-0.3
				c1.1-0.8,1.9-1.9,2.3-3.1c0.3-1.2,0.8-2.4,1.5-3.4c1.4-2.1,3.5-3.7,5.9-4.5c1.3-0.4,2.7-0.6,4.1-0.6c1.5,0,3,0.3,4.5,0.7
				c1.3,0.4,2.4,1.1,3.4,2c0.9,0.9,1.7,2.1,2.2,3.4c0.5,1.5,0.8,3.1,0.8,4.7c0,1.9-0.3,3.8-0.8,5.6c-0.6,1.9-1.3,3.5-2.3,5.2
				c-1.1,1.9-2.4,3.6-3.7,5.3c-1.5,1.8-3.2,3.6-5,5.5L12.6,85.7c-0.8,0.7-1.3,1.6-1.7,2.5c-0.3,0.8-0.5,1.8-0.5,2.7v4.2h50.9
				L61.2,87.5L61.2,87.5z"/>
			<path id="Path_292" d="M101.4,93.6c3.4-1.6,6.4-4,8.7-7c2.7-3.5,4.6-7.6,5.7-11.9c0.5-1.8,0.9-3.5,1.2-5.4h-13
				c-0.1,0.7-0.3,1.3-0.3,1.9c-0.6,2.9-1.6,5.8-3.1,8.4c-1.1,1.9-2.6,3.4-4.5,4.4c-1.7,0.8-3.5,1.3-5.4,1.3c-1.9,0-3.6-0.5-5.2-1.3
				c-1.9-1-3.4-2.5-4.5-4.4c-1.5-2.6-2.5-5.5-3.1-8.4c-0.2-0.6-0.3-1.3-0.3-1.9H64.3c0.3,1.8,0.7,3.6,1.2,5.4
				c1.1,4.3,3,8.2,5.7,11.9c2.3,2.9,5.2,5.4,8.6,7c3.4,1.5,7.1,2.4,10.7,2.3C94.2,95.8,97.9,95.1,101.4,93.6z"/>
			<path id="Path_293" d="M77.6,44.6c0.6-2.9,1.6-5.8,3.1-8.4c1.1-1.9,2.6-3.4,4.5-4.4c1.6-0.8,3.4-1.3,5.3-1.3
				c1.9,0,3.7,0.4,5.4,1.3c1.9,1,3.4,2.5,4.5,4.4c1.5,2.6,2.6,5.5,3.2,8.4c0.3,1.1,0.4,2.4,0.6,3.7h13c-0.3-2.4-0.8-4.9-1.5-7.2
				c-1.2-4.3-3.1-8.2-5.7-11.8c-2.3-2.9-5.3-5.4-8.7-7c-6.9-3-14.7-3-21.5,0c-3.4,1.6-6.3,4-8.6,7c-2.6,3.5-4.5,7.6-5.7,11.8
				c-0.7,2.4-1.2,4.8-1.5,7.2h13C77.2,47,77.4,45.8,77.6,44.6z"/>
			<path id="Path_294" d="M71.2,50.8v16.3h9.6v-2.5h-6.6V50.8H71.2z"/>
			<path id="Path_295" d="M86.4,67c0.2-0.1,0.3-0.3,0.3-0.5l1.2-3.4h6.8l1.2,3.4c0.1,0.2,0.3,0.3,0.3,0.5c0.2,0.2,0.4,0.3,0.7,0.2
				h2.4l-6.4-16.3h-3.1l-6.4,16.3h2.4C86,67.1,86.2,67.1,86.4,67z M90.8,55.6c0.1-0.3,0.2-0.5,0.3-0.8c0.2-0.3,0.2-0.7,0.3-1.1
				c0.1,0.4,0.2,0.8,0.3,1.1c0.1,0.3,0.3,0.6,0.3,0.8l2,5.5h-5.2L90.8,55.6z"/>
			<path id="Path_296" d="M107.3,67.1V53.3h5v-2.5h-13v2.5h5v13.9H107.3z"/>
		</g>
	</g>
</g>
<g>
	<path d="M15,3h5.9c1.2,0,2.1,0.2,2.8,0.5s1.3,0.8,1.8,1.4s0.8,1.3,1,2.1s0.3,1.6,0.3,2.5c0,1.4-0.2,2.4-0.5,3.2
		c-0.3,0.8-0.7,1.4-1.3,1.9s-1.2,0.9-1.8,1c-0.9,0.2-1.7,0.4-2.4,0.4H15V3z M19,5.9v7h1c0.8,0,1.4-0.1,1.8-0.3s0.6-0.5,0.8-1
		s0.3-1.2,0.3-2.2c0-1.4-0.2-2.3-0.7-2.8S21,5.9,20,5.9H19z"/>
	<path d="M28.4,9.4c0-2.1,0.6-3.7,1.8-4.9s2.8-1.8,4.9-1.8c2.1,0,3.8,0.6,5,1.7s1.7,2.8,1.7,4.8c0,1.5-0.3,2.7-0.8,3.7
		c-0.5,1-1.2,1.7-2.2,2.2c-1,0.5-2.2,0.8-3.6,0.8c-1.5,0-2.7-0.2-3.6-0.7c-1-0.5-1.7-1.2-2.3-2.2S28.4,10.9,28.4,9.4z M32.4,9.4
		c0,1.3,0.2,2.2,0.7,2.8c0.5,0.6,1.1,0.9,2,0.9c0.9,0,1.5-0.3,2-0.8s0.7-1.6,0.7-3c0-1.2-0.2-2.1-0.7-2.7c-0.5-0.6-1.2-0.8-2-0.8
		c-0.8,0-1.4,0.3-1.9,0.9S32.4,8.1,32.4,9.4z"/>
</g>
</svg>
