<?xml version="1.0" encoding="utf-8"?>
<!-- Generator: Adobe Illustrator 24.0.3, SVG Export Plug-In . SVG Version: 6.00 Build 0)  -->
<svg version="1.1" id="Layer_1" xmlns="http://www.w3.org/2000/svg" xmlns:xlink="http://www.w3.org/1999/xlink" x="0px" y="0px"
	 viewBox="0 0 128 128" style="enable-background:new 0 0 128 128;" xml:space="preserve">
<g id="Layer_2_1_">
	<g id="Layer_1-2">
		<g id="Group_536">
			<path id="Path_297" d="M45.5,81.5c-1.2,1.2-2.5,2.1-4,2.8c-1.8,0.8-3.7,1.1-5.6,1c-1.7,0.1-3.4-0.2-5-0.8
				c-1.3-0.5-2.5-1.3-3.6-2.2c-1-0.9-1.9-1.9-2.7-3.1c-0.8-1.2-1.4-2.4-2-3.5c-0.6-1.1-1.6-1.8-2.8-2.1c-1.4-0.3-2.9-0.1-4.1,0.5
				l-5.5,2.2c0.9,2.9,2.2,5.7,3.7,8.4c1.3,2.4,3.1,4.5,5.2,6.1s4.6,3,7.2,3.8c3.2,0.9,6.4,1.3,9.8,1.3c3.3,0,6.6-0.5,9.7-1.5
				c2.9-0.9,5.6-2.4,8-4.4c2.4-1.9,4.2-4.4,5.5-7.1c1.4-3,2.1-6.4,2-9.8c0.2-3.9-1-7.7-3.3-10.8C55.5,59.3,52,57,48.1,56
				c1.8-0.6,3.4-1.3,5-2.3c1.4-0.9,2.7-2,3.7-3.4c1-1.4,1.8-3,2.3-4.7c0.6-2,0.8-4.1,0.8-6.2c0-2.6-0.5-5.2-1.5-7.6
				s-2.6-4.4-4.5-6.1c-2.1-1.8-4.5-3.1-7.1-4c-2.9-1-6.1-1.5-9.2-1.5s-6.2,0.4-9.2,1.3c-2.8,0.8-5.3,2.2-7.6,4
				c-2.3,1.8-4.1,4.1-5.5,6.7c-1.5,2.9-2.5,6.1-2.9,9.3l6.7,1.2c1.3,0.3,2.8,0.2,4-0.3c1.1-0.8,1.9-1.8,2.3-3.1
				c0.3-1.2,0.8-2.4,1.5-3.4c0.7-1,1.5-1.9,2.5-2.7c1-0.8,2.2-1.4,3.4-1.8c1.3-0.4,2.7-0.6,4-0.6c2.9-0.2,5.6,0.8,7.8,2.7
				c2.1,2.1,3.1,5,2.9,7.9c0,1.5-0.3,3-0.8,4.5c-0.5,1.3-1.3,2.6-2.5,3.5c-1.4,1.1-3.1,1.8-4.9,2.3c-2.5,0.6-5.1,0.9-7.7,0.8v9
				c3-0.1,6.1,0.3,9,0.8c1.8,0.4,3.6,1.3,5.1,2.4c1.2,0.9,2,2.3,2.4,3.7c0.4,1.6,0.6,3.2,0.6,4.8c0,1.4-0.3,2.9-0.8,4.2
				C47.4,79.1,46.5,80.4,45.5,81.5z"/>
			<path id="Path_298" d="M21.4,107.5h-4.1v1.3c0,0.1,0,0.3,0.1,0.3c0.1,0.1,0.3,0.2,0.3,0.1h1.5v2.3c-0.3,0.2-0.7,0.3-1,0.4
				c-0.4,0.1-0.8,0.2-1.3,0.2c-0.6,0-1.2-0.1-1.8-0.3c-0.5-0.2-0.9-0.5-1.3-0.8c-0.3-0.4-0.7-0.8-0.8-1.3c-0.2-0.7-0.3-1.3-0.3-2
				c0-0.6,0.1-1.2,0.3-1.8c0.2-0.5,0.4-0.9,0.8-1.3c0.3-0.4,0.8-0.7,1.3-0.8c0.7-0.3,1.3-0.4,1.8-0.4c0.3,0,0.7,0,1,0.1
				c0.3,0.1,0.5,0.1,0.8,0.2c0.3,0.1,0.4,0.2,0.6,0.3l0.6,0.3c0.2,0.1,0.3,0.2,0.5,0.2c0.2,0,0.3-0.2,0.4-0.3l0.7-1
				c-0.3-0.3-0.5-0.4-0.8-0.7s-0.7-0.4-1-0.5c-0.4-0.2-0.8-0.3-1.2-0.3c-0.4-0.1-0.9-0.1-1.3-0.1c-0.9,0-1.8,0.2-2.7,0.4
				c-1.6,0.5-2.8,1.8-3.4,3.3c-0.3,0.8-0.5,1.7-0.4,2.5c0,0.8,0.2,1.8,0.5,2.5c0.3,0.8,0.8,1.4,1.3,2c0.6,0.6,1.3,1,2.1,1.3
				c0.8,0.3,1.8,0.5,2.7,0.5c0.8,0,1.5-0.1,2.3-0.3s1.4-0.6,2-1L21.4,107.5z"/>
			<path id="Path_299" d="M36,113.6l3.8-12.3H38c-0.2,0-0.3,0.1-0.5,0.2s-0.3,0.3-0.3,0.3l-2.1,7.4c-0.1,0.3-0.2,0.8-0.3,1.2
				c-0.1-0.4-0.2-0.8-0.3-1.2l-2.4-7.4c-0.1-0.2-0.2-0.3-0.3-0.3c-0.2-0.1-0.3-0.2-0.5-0.2h-0.7c-0.2,0-0.3,0.1-0.5,0.2
				c-0.1,0.1-0.3,0.3-0.3,0.3l-2.4,7.4c0,0.2-0.1,0.3-0.2,0.6c-0.1,0.3-0.1,0.4-0.2,0.7c0-0.3-0.1-0.4-0.2-0.7
				c0-0.2-0.1-0.4-0.2-0.6l-2.1-7.4c-0.1-0.2-0.2-0.3-0.3-0.4c-0.2-0.1-0.3-0.2-0.5-0.2H22l3.8,12.3h2.1l2.7-8.4
				c0.1-0.1,0.1-0.3,0.1-0.3c0-0.1,0.1-0.3,0.1-0.4c0.1,0.3,0.1,0.5,0.2,0.8l2.7,8.4L36,113.6z"/>
			<path id="Path_300" d="M43.9,101.3L39,113.6h1.8c0.2,0,0.3-0.1,0.5-0.2c0.1-0.1,0.3-0.3,0.3-0.3l0.9-2.5h5.1l0.9,2.5
				c0.1,0.2,0.2,0.3,0.3,0.3c0.2,0.1,0.3,0.2,0.5,0.2h1.8l-4.9-12.3H43.9z M43.1,109l1.5-4c0.1-0.2,0.2-0.4,0.3-0.7s0.2-0.5,0.3-0.8
				c0.1,0.3,0.2,0.6,0.3,0.8s0.2,0.5,0.3,0.7l1.5,4.1L43.1,109z"/>
			<path id="Path_301" d="M61.9,113.6l-3.1-4.5c-0.1-0.2-0.3-0.3-0.3-0.4c-0.1-0.1-0.3-0.3-0.4-0.3c0.4-0.1,0.8-0.3,1.2-0.5
				c0.3-0.3,0.6-0.5,0.8-0.8s0.4-0.7,0.5-1c0.1-0.4,0.2-0.8,0.2-1.2c0-0.5-0.1-1-0.3-1.4c-0.2-0.4-0.5-0.8-0.8-1.1
				c-0.4-0.3-0.9-0.6-1.4-0.8c-0.7-0.2-1.4-0.3-2.1-0.3h-3.8v12.3h2.3v-4.8h1c0.2,0,0.3,0,0.5,0.1s0.3,0.2,0.3,0.3l2.6,4
				c0.2,0.3,0.5,0.5,0.8,0.4L61.9,113.6z M57.1,107c-0.3,0.1-0.8,0.2-1.1,0.2h-1.4v-4H56c0.7-0.1,1.3,0.1,1.8,0.5
				c0.4,0.3,0.7,0.9,0.6,1.4c0,0.3-0.1,0.5-0.3,0.8c-0.1,0.3-0.3,0.5-0.4,0.7C57.6,106.7,57.4,106.9,57.1,107L57.1,107z"/>
			<path id="Path_302" d="M64.7,113.4c0.1-0.1,0.3-0.3,0.3-0.3l0.9-2.5H71l0.9,2.5c0.1,0.2,0.2,0.3,0.3,0.3c0.2,0.1,0.3,0.2,0.5,0.2
				h1.8l-4.9-12.3h-2.4l-4.9,12.3h1.8C64.4,113.6,64.6,113.6,64.7,113.4z M68,104.9c0-0.2,0.2-0.4,0.3-0.7c0.1-0.3,0.2-0.5,0.3-0.8
				c0.1,0.3,0.2,0.6,0.3,0.8c0.1,0.3,0.2,0.5,0.3,0.7l1.4,4.1h-3.9L68,104.9z"/>
			<path id="Path_303" d="M84.4,113.5c0.2,0.1,0.3,0.1,0.4,0.1H86v-12.3h-2v7.5c0,0.2,0,0.3,0,0.5v0.6l-6.4-8.2
				c-0.1-0.1-0.1-0.2-0.2-0.2l-0.2-0.1h-0.2h-1.4v12.3h2V106c0-0.3,0-0.7,0-1l6.5,8.2C84.2,113.3,84.4,113.4,84.4,113.5z"/>
			<path id="Path_304" d="M96.6,113.3c0.8-0.3,1.3-0.8,1.8-1.4l-0.9-1c-0.1-0.1-0.2-0.2-0.3-0.2c-0.1,0-0.2,0-0.2,0
				c-0.1,0-0.1,0.1-0.2,0.1c-0.2,0.2-0.3,0.3-0.6,0.4c-0.2,0.1-0.4,0.3-0.6,0.3c-0.3,0.1-0.4,0.2-0.7,0.2s-0.6,0-0.8,0
				c-0.5,0-1-0.1-1.4-0.3c-0.4-0.2-0.8-0.5-1.2-0.8c-0.3-0.4-0.6-0.8-0.8-1.3c-0.2-0.6-0.3-1.2-0.3-1.8c0-0.6,0.1-1.3,0.3-1.8
				c0.2-0.5,0.4-0.9,0.8-1.3c0.3-0.3,0.8-0.7,1.2-0.8c0.5-0.2,0.9-0.3,1.4-0.3c0.3,0,0.6,0,0.8,0.1c0.3,0,0.4,0.1,0.7,0.2
				c0.2,0.1,0.3,0.2,0.5,0.3l0.3,0.3l0.3,0.2c0.1,0.1,0.2,0.1,0.3,0.1s0.2,0,0.3-0.1c0.1-0.1,0.2-0.1,0.2-0.2l0.8-1.1
				c-0.5-0.5-1.1-0.9-1.8-1.2c-0.8-0.3-1.6-0.4-2.4-0.4c-0.8,0-1.7,0.2-2.4,0.4c-0.8,0.3-1.3,0.8-1.9,1.3c-0.6,0.6-1,1.3-1.3,2
				c-0.3,0.8-0.4,1.7-0.4,2.5c0,0.8,0.2,1.7,0.4,2.5c0.5,1.5,1.6,2.7,3,3.3c0.8,0.3,1.6,0.5,2.4,0.5
				C94.9,113.9,95.8,113.6,96.6,113.3z"/>
			<path id="Path_305" d="M104.8,111.2c0.2-0.6,0.3-1.3,0.3-1.8v-8h-2.3v8c0,0.4,0,0.8-0.2,1.2c-0.1,0.3-0.2,0.6-0.3,0.8
				c-0.2,0.2-0.4,0.3-0.6,0.4c-0.3,0.1-0.6,0.2-0.8,0.2c-0.2,0-0.4,0-0.6,0c-0.2,0-0.3,0-0.4,0s-0.3,0-0.3,0.1
				c-0.1,0.1-0.2,0.2-0.2,0.3c0,0.3,0,0.4,0,0.7s0,0.4,0,0.7c0.3,0.1,0.6,0.2,0.9,0.2c0.3,0,0.6,0,0.9,0c0.6,0,1.2-0.1,1.8-0.3
				c0.5-0.2,1-0.5,1.3-0.9C104.5,112.2,104.7,111.7,104.8,111.2z"/>
			<path id="Path_306" d="M115.2,113.1c0.1,0.2,0.2,0.3,0.3,0.3c0.2,0.1,0.3,0.2,0.5,0.2h1.8l-4.9-12.3h-2.4l-4.9,12.3h1.8
				c0.2,0,0.3-0.1,0.5-0.2c0.1-0.1,0.3-0.3,0.3-0.3l0.9-2.5h5.1L115.2,113.1z M109.8,109l1.5-4c0.1-0.2,0.2-0.4,0.3-0.7
				c0.1-0.3,0.2-0.5,0.3-0.8c0.1,0.3,0.2,0.6,0.3,0.8l0.3,0.7l1.5,4.1L109.8,109z"/>
			<path id="Path_307" d="M17.3,123.4c0,0.2,0,0.3,0,0.4v0.4l-4.8-6.2l-0.2-0.2l-0.1-0.1h-0.2H11v9.2h1.5v-5.7c0-0.3,0-0.5,0-0.8
				l4.8,6.1c0.1,0.1,0.2,0.2,0.3,0.3c0.1,0,0.3,0,0.3,0h0.9v-9.2h-1.5V123.4z"/>
			<path id="Path_308" d="M23.5,117.9l-3.6,9.2h1.3c0.2,0,0.3-0.1,0.3-0.2c0.1-0.1,0.2-0.2,0.2-0.3l0.7-1.8h3.8l0.7,1.8
				c0,0.1,0.1,0.3,0.3,0.3c0.1,0.1,0.3,0.1,0.3,0.1h1.3l-3.6-9.2L23.5,117.9L23.5,117.9z M22.9,123.6l1.1-3.1c0-0.2,0.1-0.3,0.2-0.5
				c0.1-0.2,0.1-0.4,0.2-0.6c0.1,0.3,0.1,0.4,0.2,0.6c0.1,0.2,0.1,0.3,0.2,0.5l1.1,3.1H22.9z"/>
			<path id="Path_309" d="M37.9,122.6c-0.2-0.2-0.4-0.3-0.7-0.5c-0.3-0.1-0.5-0.3-0.8-0.3l-0.8-0.3c-0.3-0.1-0.5-0.2-0.7-0.3
				c-0.2-0.1-0.3-0.3-0.5-0.3c-0.1-0.2-0.2-0.3-0.2-0.5c0-0.2,0-0.3,0.1-0.5c0.1-0.2,0.2-0.3,0.3-0.3c0.2-0.1,0.3-0.2,0.4-0.3
				c0.2,0,0.3-0.1,0.6,0c0.3,0,0.5,0,0.7,0.1c0.2,0.1,0.3,0.1,0.5,0.3l0.3,0.3c0.1,0.1,0.2,0.1,0.3,0.1s0.2,0,0.3,0
				c0.1-0.1,0.2-0.1,0.2-0.2l0.4-0.8c-0.3-0.3-0.8-0.6-1.2-0.8c-0.5-0.3-1-0.3-1.5-0.3c-0.4,0-0.9,0.1-1.3,0.3
				c-0.3,0.2-0.7,0.3-0.9,0.6c-0.3,0.3-0.4,0.5-0.6,0.8c-0.2,0.3-0.2,0.7-0.3,1c0,0.3,0.1,0.8,0.2,1.1c0.1,0.3,0.3,0.5,0.5,0.8
				c0.2,0.2,0.4,0.3,0.7,0.5c0.3,0.1,0.5,0.3,0.8,0.3l0.8,0.3c0.3,0.1,0.5,0.2,0.7,0.3c0.2,0.1,0.3,0.3,0.5,0.4s0.2,0.3,0.2,0.6
				c0,0.4-0.2,0.8-0.4,1c-0.3,0.3-0.8,0.3-1.2,0.3c-0.3,0-0.6-0.1-0.8-0.2c-0.3-0.1-0.4-0.2-0.6-0.3c-0.2-0.1-0.3-0.2-0.4-0.3
				c-0.1-0.1-0.3-0.1-0.3-0.2c-0.1,0-0.2,0-0.3,0c-0.1,0-0.2,0.1-0.2,0.2l-0.5,0.8c0.2,0.2,0.4,0.3,0.6,0.5c0.3,0.2,0.5,0.3,0.8,0.4
				c0.3,0.1,0.5,0.2,0.8,0.3c0.3,0.1,0.6,0.1,0.8,0.1c0.4,0,0.9-0.1,1.3-0.3c0.4-0.2,0.8-0.3,1-0.7c0.3-0.3,0.5-0.6,0.6-0.9
				c0.2-0.3,0.3-0.8,0.3-1.2c0-0.3,0-0.7-0.2-0.9C38.2,122.9,38,122.8,37.9,122.6z"/>
			<path id="Path_310" d="M36.3,115.2c-0.1,0-0.1,0-0.2,0.1l-0.2,0.2l-1.3,1.8h1.2c0.1,0,0.2,0,0.3,0s0.2-0.1,0.3-0.2l2.1-1.8H36.3
				L36.3,115.2z"/>
			<path id="Path_311" d="M46.3,125c-0.1,0-0.1,0-0.2,0c-0.1,0-0.1,0.1-0.2,0.1c-0.2,0.1-0.3,0.3-0.4,0.3c-0.2,0.1-0.3,0.2-0.4,0.3
				c-0.2,0.1-0.3,0.1-0.5,0.1c-0.3,0-0.4,0-0.7,0c-0.4,0-0.8-0.1-1.1-0.3c-0.3-0.2-0.7-0.3-0.8-0.6c-0.3-0.3-0.5-0.7-0.6-1
				c-0.2-0.4-0.3-0.8-0.3-1.3c0-0.4,0.1-0.9,0.3-1.3c0.1-0.3,0.3-0.8,0.6-1c0.3-0.3,0.5-0.5,0.8-0.7c0.3-0.2,0.8-0.3,1.2-0.3
				c0.3,0,0.4,0,0.7,0l0.5,0.2l0.3,0.2l0.3,0.2l0.3,0.2c0.1,0,0.2,0,0.2,0c0.1,0,0.2,0,0.3,0c0.1,0,0.1-0.1,0.2-0.2l0.6-0.8
				c-0.4-0.3-0.8-0.7-1.3-0.8c-0.6-0.3-1.2-0.3-1.8-0.3c-0.7,0-1.3,0.1-1.8,0.3c-1.1,0.4-1.9,1.3-2.4,2.4c-0.3,0.6-0.3,1.3-0.3,1.9
				s0.1,1.3,0.3,1.9c0.3,1.1,1.2,2,2.3,2.5c0.6,0.3,1.3,0.3,1.8,0.3c0.7,0,1.3-0.1,2-0.3c0.5-0.3,1-0.6,1.3-1.1l-0.7-0.8
				C46.4,125,46.3,125,46.3,125z"/>
			<rect id="Rectangle_139" x="48.4" y="117.9" width="1.8" height="9.2"/>
			<path id="Path_312" d="M52.1,127.1H58v-1.3h-4.1v-2.7H57v-1.3h-3.2v-2.6H58v-1.3h-5.9V127.1z"/>
			<path id="Path_313" d="M64.1,123.4c-0.1-0.1-0.2-0.2-0.3-0.3c0.3-0.1,0.6-0.3,0.8-0.4c0.3-0.2,0.5-0.3,0.7-0.6
				c0.2-0.3,0.3-0.5,0.4-0.8c0.3-0.7,0.3-1.3,0-1.9c-0.2-0.3-0.3-0.6-0.7-0.8c-0.3-0.3-0.7-0.4-1.1-0.6c-0.6-0.2-1.1-0.3-1.7-0.2
				h-2.9v9.2h1.8v-3.6h0.8c0.2,0,0.3,0,0.4,0c0.1,0.1,0.2,0.2,0.3,0.3l1.9,2.9c0.2,0.3,0.4,0.3,0.7,0.3h1.5l-2.4-3.4
				C64.3,123.5,64.2,123.4,64.1,123.4z M63.1,122.2c-0.3,0.1-0.6,0.1-0.8,0.1h-1.1v-3h1.1c0.5,0,1,0.1,1.4,0.3
				c0.3,0.3,0.5,0.7,0.5,1.1c0,0.3,0,0.4-0.1,0.7c-0.1,0.2-0.2,0.4-0.3,0.6C63.5,122,63.3,122.1,63.1,122.2z"/>
			<path id="Path_314" d="M70.7,117.9l-3.6,9.2h1.3c0.2,0,0.3-0.1,0.3-0.2c0.1-0.1,0.2-0.2,0.2-0.3l0.7-1.8h3.9l0.7,1.8
				c0.1,0.1,0.1,0.2,0.3,0.3c0.1,0.1,0.3,0.1,0.3,0.1h1.3l-3.6-9.2L70.7,117.9L70.7,117.9z M70.1,123.6l1.1-3.1l0.2-0.5
				c0-0.2,0.1-0.4,0.2-0.6c0,0.3,0.1,0.4,0.2,0.6l0.2,0.5l1.1,3.1H70.1z"/>
			<path id="Path_315" d="M78.8,117.9H77v9.2h5.5v-1.4h-3.7V117.9z"/>
			<path id="Path_316" d="M89.8,123.4c0,0.2,0,0.3,0,0.4c0,0.2,0,0.3,0,0.4l-4.8-6.2l-0.2-0.2l-0.2-0.1h-0.2h-1.1v9.2h1.5v-5.7
				c0-0.3,0-0.5,0-0.8l4.8,6.1c0.1,0.1,0.2,0.2,0.3,0.3c0.1,0,0.3,0,0.3,0h0.8v-9.2h-1.5v5.6H89.8z"/>
			<path id="Path_317" d="M101.7,120.1c-0.2-0.3-0.4-0.7-0.7-0.9c-0.3-0.3-0.6-0.5-0.9-0.8c-0.3-0.2-0.8-0.3-1.2-0.5
				c-0.4-0.1-0.9-0.2-1.3-0.2c-0.7,0-1.3,0.1-1.9,0.3c-0.6,0.3-1.1,0.6-1.5,1c-0.4,0.4-0.8,0.9-0.9,1.4c-0.4,1.3-0.4,2.5,0,3.8
				c0.2,0.6,0.5,1.1,0.9,1.6c0.4,0.4,0.9,0.8,1.5,1c1.3,0.5,2.6,0.5,3.9,0c1.1-0.5,2-1.3,2.4-2.5c0.3-0.6,0.3-1.3,0.3-1.8
				c0-0.4-0.1-0.9-0.2-1.3C102,120.7,101.8,120.4,101.7,120.1z M100.3,123.9c-0.1,0.4-0.3,0.8-0.6,1c-0.3,0.3-0.6,0.5-0.9,0.7
				c-0.8,0.3-1.7,0.3-2.4,0c-0.3-0.2-0.7-0.3-0.9-0.7c-0.3-0.3-0.4-0.7-0.6-1c-0.3-0.8-0.3-1.8,0-2.7c0.2-0.3,0.3-0.8,0.6-1
				c0.3-0.3,0.6-0.5,0.9-0.7c0.8-0.3,1.7-0.3,2.4,0c0.3,0.2,0.7,0.3,0.9,0.7c0.3,0.3,0.5,0.7,0.6,1
				C100.6,122.1,100.6,123,100.3,123.9L100.3,123.9z"/>
			<path id="Path_318" d="M108.6,122.6c-0.2-0.2-0.4-0.3-0.7-0.5c-0.3-0.1-0.5-0.3-0.8-0.3l-0.8-0.3c-0.3-0.1-0.5-0.2-0.7-0.3
				c-0.2-0.1-0.3-0.3-0.5-0.3c-0.1-0.2-0.2-0.3-0.2-0.5c0-0.2,0-0.3,0.1-0.5c0.1-0.2,0.2-0.3,0.3-0.3c0.2-0.1,0.3-0.2,0.4-0.3
				c0.2-0.1,0.4-0.1,0.6-0.1c0.3,0,0.5,0,0.7,0.1s0.3,0.1,0.5,0.3l0.3,0.3c0.1,0.1,0.2,0.1,0.3,0.1c0.1,0,0.2,0,0.3,0
				c0.1-0.1,0.1-0.1,0.2-0.2l0.4-0.8c-0.3-0.3-0.8-0.6-1.3-0.8s-1-0.3-1.5-0.3c-0.4,0-0.9,0.1-1.3,0.3c-0.3,0.2-0.7,0.3-0.9,0.6
				c-0.5,0.5-0.8,1.2-0.8,1.8c0,0.3,0.1,0.8,0.2,1.1c0.1,0.3,0.3,0.5,0.5,0.8c0.2,0.2,0.4,0.3,0.7,0.5c0.3,0.1,0.5,0.3,0.8,0.3
				l0.8,0.3c0.3,0.1,0.5,0.2,0.7,0.3c0.2,0.1,0.3,0.3,0.5,0.4c0.1,0.2,0.2,0.3,0.2,0.6c0,0.4-0.2,0.8-0.4,1
				c-0.3,0.3-0.8,0.3-1.2,0.3c-0.3,0-0.6-0.1-0.8-0.2c-0.3-0.1-0.4-0.2-0.6-0.3c-0.2-0.1-0.3-0.2-0.4-0.3c-0.1-0.1-0.3-0.2-0.3-0.2
				c-0.1,0-0.2,0-0.3,0c-0.1,0-0.1,0.1-0.2,0.2l-0.5,0.8c0.2,0.2,0.4,0.3,0.6,0.5c0.3,0.2,0.5,0.3,0.8,0.4c0.3,0.1,0.6,0.2,0.8,0.3
				c0.3,0.1,0.6,0.1,0.8,0.1c0.4,0,0.9-0.1,1.3-0.3c0.4-0.2,0.8-0.3,1-0.7c0.3-0.3,0.5-0.6,0.6-0.9c0.2-0.3,0.3-0.8,0.3-1.2
				c0-0.3-0.1-0.7-0.2-1C108.8,122.9,108.7,122.8,108.6,122.6z"/>
			<path id="Path_319" d="M106.8,117.1c0.1,0,0.2-0.1,0.3-0.2l2.1-1.8h-2H107c-0.1,0-0.1,0-0.2,0.1s-0.1,0.1-0.2,0.2l-1.3,1.8h1.1
				C106.6,117.1,106.7,117.1,106.8,117.1z"/>
			<path id="Path_320" d="M117.2,125c-0.1-0.1-0.2-0.1-0.3-0.1h-0.2c-0.1,0-0.1,0.1-0.2,0.1c-0.2,0.1-0.3,0.3-0.4,0.3
				c-0.3,0.2-0.7,0.3-1,0.3c-0.3,0-0.4,0-0.7,0c-0.3,0-0.8-0.1-1.1-0.3c-0.3-0.2-0.7-0.3-0.9-0.6c-0.3-0.3-0.5-0.7-0.6-1
				c-0.2-0.4-0.3-0.8-0.3-1.3c0-0.4,0.1-0.9,0.2-1.3c0.1-0.3,0.3-0.8,0.6-1c0.3-0.3,0.6-0.5,0.9-0.7c0.3-0.2,0.8-0.3,1.2-0.3
				c0.3,0,0.4,0,0.7,0l0.5,0.2l0.3,0.2l0.3,0.2l0.3,0.2c0.1,0,0.2,0,0.2,0c0.1,0,0.2,0,0.3,0c0.1,0,0.1-0.1,0.2-0.2l0.6-0.8
				c-0.4-0.3-0.8-0.7-1.3-0.8c-0.6-0.3-1.2-0.3-1.8-0.3c-0.7,0-1.3,0.1-1.8,0.3c-0.6,0.3-1,0.6-1.4,1c-0.4,0.4-0.7,0.9-0.8,1.4
				c-0.3,0.6-0.3,1.3-0.3,1.9c0,0.7,0.1,1.3,0.3,1.9c0.2,0.6,0.4,1.1,0.8,1.5c0.3,0.4,0.8,0.8,1.3,1c0.6,0.3,1.3,0.3,1.8,0.3
				c0.7,0,1.3-0.1,2-0.3c0.5-0.3,1-0.6,1.3-1.1L117.2,125z"/>
			<path id="Path_321" d="M115.5,115.2c-0.1,0-0.1,0-0.2,0c-0.1,0-0.1,0-0.2,0.1c-0.1,0-0.1,0.1-0.2,0.2l-1.3,1.8h1.2
				c0.1,0,0.2,0,0.3,0s0.2-0.1,0.3-0.2l2.1-1.8H115.5z"/>
			<path id="Path_322" d="M77.8,44.7c0.6-2.9,1.6-5.8,3.1-8.4c1-1.8,2.6-3.4,4.5-4.4c1.6-0.8,3.4-1.3,5.2-1.3c1.8,0,3.7,0.4,5.4,1.3
				c1.8,1,3.4,2.5,4.5,4.4c1.5,2.6,2.6,5.5,3.1,8.4c0.3,1.1,0.4,2.4,0.6,3.6h13c-0.3-2.4-0.8-4.8-1.4-7.1c-1.2-4.3-3.1-8.2-5.7-11.8
				c-2.3-3-5.3-5.4-8.7-7c-3.4-1.5-7.1-2.3-10.8-2.3c-3.7,0-7.3,0.8-10.7,2.3c-3.4,1.6-6.3,4-8.6,7c-2.6,3.5-4.5,7.5-5.7,11.8
				c-0.7,2.4-1.2,4.7-1.4,7.1h12.9C77.4,47.1,77.5,45.9,77.8,44.7z"/>
			<path id="Path_323" d="M101.4,93.6c3.4-1.6,6.4-4,8.7-6.9c2.7-3.5,4.6-7.6,5.8-11.8c0.5-1.8,0.9-3.5,1.2-5.4h-13
				c-0.1,0.7-0.3,1.3-0.3,1.9c-0.6,2.9-1.6,5.8-3.1,8.4c-1.1,1.8-2.6,3.4-4.5,4.4c-1.7,0.8-3.5,1.3-5.4,1.3s-3.6-0.4-5.2-1.3
				c-1.8-1-3.4-2.5-4.5-4.4c-1.5-2.6-2.5-5.5-3.1-8.4c-0.2-0.6-0.3-1.3-0.3-1.9H64.4c0.3,1.8,0.7,3.6,1.2,5.4
				c1.1,4.3,3,8.2,5.7,11.8c2.3,2.9,5.2,5.4,8.6,6.9c3.4,1.5,7,2.3,10.7,2.3C94.3,95.9,98,95.1,101.4,93.6z"/>
			<path id="Path_324" d="M71.4,50.9v16.3H81v-2.5h-6.6V50.9H71.4z"/>
			<path id="Path_325" d="M86.5,67c0.2-0.1,0.3-0.3,0.3-0.5l1.2-3.4h6.7l1.2,3.4c0.1,0.2,0.3,0.3,0.3,0.5c0.2,0.2,0.4,0.2,0.7,0.2
				h2.4l-6.4-16.4h-3.2l-6.4,16.3h2.5C86.1,67.3,86.4,67.2,86.5,67z M90.8,55.7c0.1-0.3,0.2-0.5,0.3-0.8c0.1-0.3,0.2-0.7,0.3-1.1
				c0.1,0.4,0.2,0.8,0.3,1.1c0.1,0.3,0.3,0.6,0.3,0.8l2,5.5H89L90.8,55.7z"/>
			<path id="Path_326" d="M107.4,67.2V53.4h5v-2.5H99.5v2.5h5v13.8C104.5,67.2,107.4,67.2,107.4,67.2z"/>
		</g>
	</g>
</g>
</svg>
