<?xml version="1.0" encoding="utf-8"?>
<!-- Generator: Adobe Illustrator 24.0.3, SVG Export Plug-In . SVG Version: 6.00 Build 0)  -->
<svg version="1.1" id="Layer_1" xmlns="http://www.w3.org/2000/svg" xmlns:xlink="http://www.w3.org/1999/xlink" x="0px" y="0px"
	 viewBox="0 0 128 128" style="enable-background:new 0 0 128 128;" xml:space="preserve">
<g id="Layer_2_1_">
	<g id="Layer_1-2">
		<g id="Group_536">
			<path id="Path_297" d="M42,73.2c-1.4,1.4-3,2.5-4.8,3.3c-2.1,0.9-4.4,1.3-6.7,1.2c-2,0.1-4-0.2-5.9-0.9c-1.6-0.6-3-1.5-4.3-2.6
				c-1.2-1.1-2.3-2.3-3.2-3.7c-0.9-1.4-1.7-2.8-2.4-4.2c-0.7-1.3-1.9-2.2-3.3-2.5c-1.7-0.3-3.4-0.1-4.9,0.6L0,67
				c1.1,3.5,2.6,6.8,4.4,10c1.6,2.8,3.7,5.3,6.2,7.3c2.5,2,5.5,3.6,8.6,4.5c3.8,1.1,7.6,1.6,11.6,1.6c3.9,0,7.8-0.6,11.5-1.8
				c3.5-1.1,6.7-2.9,9.5-5.2c2.8-2.3,5-5.2,6.6-8.5c1.7-3.6,2.5-7.6,2.4-11.6c0.2-4.6-1.2-9.1-3.9-12.8c-3-3.7-7.2-6.4-11.8-7.6
				c2.1-0.7,4.1-1.6,5.9-2.7c1.7-1.1,3.2-2.4,4.4-4c1.2-1.7,2.1-3.6,2.7-5.6c0.7-2.4,1-4.9,1-7.4c0-3.1-0.6-6.2-1.8-9
				c-1.2-2.8-3.1-5.2-5.3-7.2c-2.5-2.1-5.3-3.7-8.4-4.8c-3.5-1.2-7.3-1.8-11-1.8c-3.7,0-7.4,0.5-10.9,1.6c-3.3,1-6.3,2.6-9,4.8
				c-2.7,2.2-4.9,4.9-6.5,8c-1.8,3.5-3,7.2-3.5,11.1l8,1.4c1.6,0.4,3.3,0.2,4.8-0.4c1.3-0.9,2.3-2.2,2.7-3.7c0.4-1.4,1-2.8,1.8-4
				c0.8-1.2,1.8-2.3,3-3.2c1.2-0.9,2.6-1.7,4-2.1c1.6-0.5,3.2-0.7,4.8-0.7c3.4-0.2,6.7,1,9.3,3.2c2.5,2.5,3.7,5.9,3.5,9.4
				c0,1.8-0.3,3.6-0.9,5.4c-0.6,1.6-1.6,3.1-3,4.2c-1.7,1.3-3.7,2.2-5.8,2.7c-3,0.7-6.1,1.1-9.2,1v10.7c3.6-0.1,7.2,0.3,10.7,1
				c2.2,0.5,4.3,1.5,6.1,2.9c1.4,1.1,2.4,2.7,2.8,4.4c0.5,1.9,0.7,3.8,0.7,5.7c0,1.7-0.3,3.4-0.9,5C44.2,70.4,43.2,71.9,42,73.2z"/>
			<path id="Path_298" d="M13.3,104.1H8.4v1.6c0,0.1,0,0.3,0.1,0.4c0.1,0.1,0.3,0.2,0.4,0.1h1.8v2.7c-0.4,0.2-0.8,0.3-1.2,0.5
				c-0.5,0.1-1,0.2-1.5,0.2c-0.7,0-1.4-0.1-2.1-0.4c-0.6-0.2-1.1-0.6-1.6-1c-0.4-0.5-0.8-1-1-1.6c-0.2-0.8-0.3-1.6-0.3-2.4
				c0-0.7,0.1-1.4,0.3-2.1c0.2-0.6,0.5-1.1,1-1.6c0.4-0.5,0.9-0.8,1.5-1C6.6,99.1,7.3,99,8,99c0.4,0,0.8,0,1.2,0.1
				c0.3,0.1,0.6,0.1,0.9,0.2c0.3,0.1,0.5,0.2,0.7,0.3l0.7,0.4c0.2,0.1,0.4,0.2,0.6,0.2c0.2,0,0.4-0.2,0.5-0.4l0.8-1.2
				c-0.3-0.3-0.6-0.5-1-0.8c-0.4-0.3-0.8-0.5-1.2-0.6c-0.5-0.2-0.9-0.3-1.4-0.4c-0.5-0.1-1.1-0.1-1.6-0.1c-1.1,0-2.2,0.2-3.2,0.5
				c-1.9,0.6-3.3,2.1-4,3.9c-0.4,1-0.6,2-0.5,3c0,1,0.2,2.1,0.6,3c0.4,0.9,0.9,1.7,1.6,2.4c0.7,0.7,1.6,1.2,2.5,1.6
				c1,0.4,2.1,0.6,3.2,0.6c0.9,0,1.8-0.1,2.7-0.4c0.9-0.3,1.7-0.7,2.4-1.2L13.3,104.1z"/>
			<path id="Path_299" d="M30.7,111.4l4.5-14.6h-2.1c-0.2,0-0.4,0.1-0.6,0.2c-0.2,0.1-0.3,0.3-0.3,0.4l-2.5,8.8
				c-0.1,0.4-0.2,0.9-0.3,1.4c-0.1-0.5-0.2-1-0.4-1.4l-2.9-8.8c-0.1-0.2-0.2-0.3-0.3-0.4c-0.2-0.1-0.4-0.2-0.6-0.2h-0.8
				c-0.2,0-0.4,0.1-0.6,0.2c-0.1,0.1-0.3,0.3-0.3,0.4l-2.9,8.8c0,0.2-0.1,0.4-0.2,0.7s-0.1,0.5-0.2,0.8c0-0.3-0.1-0.5-0.2-0.8
				c0-0.2-0.1-0.5-0.2-0.7l-2.5-8.8c-0.1-0.2-0.2-0.3-0.3-0.5c-0.2-0.1-0.4-0.2-0.6-0.2h-2.3l4.5,14.6h2.5l3.2-10
				c0.1-0.1,0.1-0.3,0.1-0.4c0-0.1,0.1-0.3,0.1-0.5c0.1,0.3,0.1,0.6,0.2,0.9l3.2,10L30.7,111.4z"/>
			<path id="Path_300" d="M40.1,96.8l-5.8,14.6h2.1c0.2,0,0.4-0.1,0.6-0.2c0.1-0.1,0.3-0.3,0.3-0.4l1.1-3h6.1l1.1,3
				c0.1,0.2,0.2,0.3,0.3,0.4c0.2,0.1,0.4,0.2,0.6,0.2h2.1l-5.8-14.6H40.1z M39.1,105.9l1.8-4.8c0.1-0.2,0.2-0.5,0.3-0.8
				c0.1-0.3,0.2-0.6,0.3-1c0.1,0.3,0.2,0.7,0.3,1c0.1,0.3,0.2,0.6,0.3,0.8l1.8,4.9L39.1,105.9z"/>
			<path id="Path_301" d="M61.5,111.4l-3.7-5.4c-0.1-0.2-0.3-0.3-0.4-0.5c-0.1-0.1-0.3-0.3-0.5-0.3c0.5-0.1,0.9-0.4,1.4-0.6
				c0.4-0.3,0.7-0.6,1-1c0.3-0.4,0.5-0.8,0.6-1.2c0.1-0.5,0.2-0.9,0.2-1.4c0-0.6-0.1-1.2-0.3-1.7c-0.2-0.5-0.6-1-1-1.3
				c-0.5-0.4-1.1-0.7-1.7-0.9c-0.8-0.2-1.7-0.3-2.5-0.3h-4.5v14.6h2.7v-5.7h1.2c0.2,0,0.4,0,0.6,0.1c0.2,0.1,0.3,0.2,0.4,0.4
				l3.1,4.7c0.2,0.4,0.6,0.6,1,0.5L61.5,111.4z M55.8,103.5c-0.4,0.1-0.9,0.2-1.3,0.2h-1.7V99h1.7c0.8-0.1,1.6,0.1,2.2,0.6
				c0.5,0.4,0.8,1.1,0.7,1.7c0,0.3-0.1,0.6-0.3,0.9c-0.1,0.3-0.3,0.6-0.5,0.8C56.4,103.2,56.1,103.4,55.8,103.5L55.8,103.5z"/>
			<path id="Path_302" d="M64.8,111.2c0.1-0.1,0.3-0.3,0.3-0.4l1.1-3h6.1l1.1,3c0.1,0.2,0.2,0.3,0.3,0.4c0.2,0.1,0.4,0.2,0.6,0.2
				h2.1l-5.8-14.6h-2.8l-5.8,14.6h2.1C64.5,111.4,64.7,111.4,64.8,111.2z M68.7,101c0-0.2,0.2-0.5,0.3-0.8c0.1-0.3,0.2-0.6,0.3-1
				c0.1,0.3,0.2,0.7,0.3,1c0.1,0.3,0.2,0.6,0.3,0.8l1.7,4.9h-4.6L68.7,101z"/>
			<path id="Path_303" d="M88.3,111.3c0.2,0.1,0.4,0.1,0.5,0.1h1.4V96.8h-2.4v8.9c0,0.2,0,0.4,0,0.6v0.7l-7.6-9.8
				c-0.1-0.1-0.1-0.2-0.2-0.2l-0.2-0.1h-0.2h-1.7v14.6h2.4v-9.1c0-0.4,0-0.8,0-1.2L88,111C88,111.1,88.2,111.2,88.3,111.3z"/>
			<path id="Path_304" d="M102.8,111c0.9-0.4,1.6-1,2.2-1.7l-1.1-1.2c-0.1-0.1-0.2-0.2-0.4-0.2c-0.1,0-0.2,0-0.2,0
				c-0.1,0-0.1,0.1-0.2,0.1c-0.2,0.2-0.4,0.4-0.7,0.5c-0.2,0.1-0.5,0.3-0.7,0.3c-0.3,0.1-0.5,0.2-0.8,0.2c-0.3,0-0.7,0-1,0
				c-0.6,0-1.2-0.1-1.7-0.3c-0.5-0.2-1-0.6-1.4-1c-0.4-0.5-0.7-1-1-1.6c-0.2-0.7-0.3-1.4-0.3-2.1c0-0.7,0.1-1.5,0.3-2.2
				c0.2-0.6,0.5-1.1,0.9-1.6c0.4-0.4,0.9-0.8,1.4-1c0.6-0.2,1.1-0.3,1.7-0.3c0.3,0,0.7,0,1,0.1c0.3,0,0.5,0.1,0.8,0.2
				c0.2,0.1,0.4,0.2,0.6,0.3l0.4,0.3l0.3,0.2c0.1,0.1,0.2,0.1,0.3,0.1c0.1,0,0.2,0,0.3-0.1c0.1-0.1,0.2-0.1,0.2-0.2l0.9-1.3
				c-0.6-0.6-1.3-1.1-2.1-1.4c-0.9-0.4-1.9-0.5-2.8-0.5c-1,0-2,0.2-2.9,0.5c-0.9,0.4-1.6,0.9-2.3,1.6c-0.7,0.7-1.2,1.5-1.5,2.4
				c-0.4,1-0.5,2-0.5,3c0,1,0.2,2,0.5,3c0.6,1.8,1.9,3.2,3.6,3.9c0.9,0.4,1.9,0.6,2.9,0.6C100.7,111.7,101.8,111.4,102.8,111z"/>
			<path id="Path_305" d="M112.5,108.5c0.2-0.7,0.3-1.5,0.3-2.2v-9.5h-2.7v9.5c0,0.5,0,0.9-0.2,1.4c-0.1,0.3-0.2,0.7-0.4,1
				c-0.2,0.2-0.5,0.4-0.7,0.5c-0.3,0.1-0.7,0.2-1,0.2c-0.2,0-0.5,0-0.7,0c-0.2,0-0.3,0-0.5,0c-0.2,0-0.3,0-0.4,0.1
				c-0.1,0.1-0.2,0.2-0.2,0.3c0,0.3,0,0.5,0,0.8c0,0.3,0,0.5,0,0.8c0.4,0.1,0.7,0.2,1.1,0.2c0.4,0,0.7,0,1.1,0
				c0.7,0,1.4-0.1,2.1-0.4c0.6-0.2,1.2-0.6,1.6-1.1C112.2,109.7,112.4,109.1,112.5,108.5z"/>
			<path id="Path_306" d="M124.9,110.8c0.1,0.2,0.2,0.3,0.3,0.4c0.2,0.1,0.4,0.2,0.6,0.2h2.1l-5.8-14.6h-2.8l-5.8,14.6h2.1
				c0.2,0,0.4-0.1,0.6-0.2c0.1-0.1,0.3-0.3,0.3-0.4l1.1-3h6.1L124.9,110.8z M118.5,105.9l1.8-4.8c0.1-0.2,0.2-0.5,0.3-0.8
				c0.1-0.3,0.2-0.6,0.3-1c0.1,0.3,0.2,0.7,0.3,1l0.3,0.8l1.8,4.9L118.5,105.9z"/>
			<path id="Path_307" d="M8.5,123.1c0,0.2,0,0.3,0,0.5v0.5l-5.7-7.4l-0.2-0.2l-0.1-0.1H2.3H1v11h1.8v-6.8c0-0.3,0-0.6,0-0.9
				l5.7,7.3c0.1,0.1,0.2,0.2,0.3,0.3c0.1,0,0.3,0,0.4,0h1.1v-10.9H8.5V123.1z"/>
			<path id="Path_308" d="M15.8,116.5l-4.3,11h1.6c0.2,0,0.3-0.1,0.4-0.2c0.1-0.1,0.2-0.2,0.2-0.3l0.8-2.2h4.5l0.8,2.2
				c0,0.1,0.1,0.3,0.3,0.3c0.1,0.1,0.3,0.1,0.4,0.1h1.6l-4.3-11H15.8z M15.1,123.3l1.3-3.7c0-0.2,0.1-0.4,0.2-0.6
				c0.1-0.2,0.1-0.5,0.2-0.7c0.1,0.3,0.1,0.5,0.2,0.7c0.1,0.2,0.1,0.4,0.2,0.6l1.3,3.7H15.1z"/>
			<path id="Path_309" d="M32.9,122.1c-0.2-0.2-0.5-0.4-0.8-0.6c-0.3-0.1-0.6-0.3-0.9-0.4l-0.9-0.3c-0.3-0.1-0.6-0.2-0.8-0.3
				c-0.2-0.1-0.4-0.3-0.6-0.4c-0.1-0.2-0.2-0.4-0.2-0.6c0-0.2,0-0.4,0.1-0.6c0.1-0.2,0.2-0.3,0.3-0.4c0.2-0.1,0.3-0.2,0.5-0.3
				c0.2,0,0.4-0.1,0.7,0c0.3,0,0.6,0,0.8,0.1c0.2,0.1,0.4,0.1,0.6,0.3l0.4,0.3c0.1,0.1,0.2,0.1,0.3,0.1c0.1,0,0.2,0,0.3,0
				c0.1-0.1,0.2-0.1,0.2-0.2l0.5-1c-0.4-0.4-0.9-0.7-1.4-0.9c-0.6-0.3-1.2-0.4-1.8-0.4c-0.5,0-1.1,0.1-1.6,0.3
				c-0.4,0.2-0.8,0.4-1.1,0.7c-0.3,0.3-0.5,0.6-0.7,1c-0.2,0.4-0.2,0.8-0.3,1.2c0,0.4,0.1,0.9,0.2,1.3c0.1,0.3,0.3,0.6,0.6,0.9
				c0.2,0.2,0.5,0.4,0.8,0.6c0.3,0.1,0.6,0.3,0.9,0.4l0.9,0.3c0.3,0.1,0.6,0.2,0.8,0.3c0.2,0.1,0.4,0.3,0.6,0.5
				c0.2,0.2,0.2,0.4,0.2,0.7c0,0.5-0.2,0.9-0.5,1.2c-0.4,0.3-0.9,0.4-1.4,0.4c-0.3,0-0.7-0.1-1-0.2c-0.3-0.1-0.5-0.2-0.7-0.3
				c-0.2-0.1-0.4-0.2-0.5-0.3c-0.1-0.1-0.3-0.1-0.4-0.2c-0.1,0-0.2,0-0.3,0c-0.1,0-0.2,0.1-0.2,0.2l-0.6,1c0.2,0.2,0.5,0.4,0.7,0.6
				c0.3,0.2,0.6,0.3,0.9,0.5c0.3,0.1,0.6,0.2,1,0.3c0.3,0.1,0.7,0.1,1,0.1c0.5,0,1.1-0.1,1.6-0.3c0.5-0.2,0.9-0.4,1.2-0.8
				c0.3-0.3,0.6-0.7,0.7-1.1c0.2-0.4,0.3-0.9,0.3-1.4c0-0.4,0-0.8-0.2-1.1C33.3,122.5,33.1,122.3,32.9,122.1z"/>
			<path id="Path_310" d="M31,113.3c-0.1,0-0.1,0-0.2,0.1l-0.2,0.2l-1.6,2.1h1.4c0.1,0,0.2,0,0.3,0c0.1,0,0.2-0.1,0.3-0.2l2.5-2.2
				h-2.4H31z"/>
			<path id="Path_311" d="M42.9,124.9c-0.1,0-0.1,0-0.2,0c-0.1,0-0.1,0.1-0.2,0.1c-0.2,0.1-0.3,0.3-0.5,0.4
				c-0.2,0.1-0.4,0.2-0.5,0.3c-0.2,0.1-0.4,0.1-0.6,0.1c-0.3,0-0.5,0-0.8,0c-0.5,0-0.9-0.1-1.3-0.3c-0.4-0.2-0.8-0.4-1-0.7
				c-0.3-0.4-0.6-0.8-0.7-1.2c-0.2-0.5-0.3-1-0.3-1.6c0-0.5,0.1-1.1,0.3-1.6c0.1-0.4,0.4-0.9,0.7-1.2c0.3-0.3,0.6-0.6,1-0.8
				c0.4-0.2,0.9-0.3,1.4-0.3c0.3,0,0.5,0,0.8,0l0.6,0.2l0.4,0.2l0.3,0.2l0.3,0.2c0.1,0,0.2,0,0.2,0c0.1,0,0.2,0,0.3,0
				c0.1,0,0.1-0.1,0.2-0.2l0.7-1c-0.5-0.4-1-0.8-1.6-1c-0.7-0.3-1.4-0.4-2.1-0.4c-0.8,0-1.5,0.1-2.2,0.4c-1.3,0.5-2.3,1.6-2.8,2.9
				c-0.3,0.7-0.4,1.5-0.4,2.3c0,0.8,0.1,1.5,0.4,2.3c0.4,1.3,1.4,2.4,2.7,3c0.7,0.3,1.5,0.4,2.2,0.4c0.8,0,1.6-0.1,2.4-0.4
				c0.6-0.3,1.2-0.7,1.6-1.3l-0.8-0.9C43.1,124.9,43,124.9,42.9,124.9z"/>
			<rect id="Rectangle_139" x="45.4" y="116.5" width="2.1" height="11"/>
			<path id="Path_312" d="M49.8,127.5h7v-1.6h-4.9v-3.2h3.8v-1.6h-3.8v-3.1h4.9v-1.6h-7V127.5z"/>
			<path id="Path_313" d="M64.1,123c-0.1-0.1-0.2-0.2-0.4-0.3c0.4-0.1,0.7-0.3,1-0.5c0.3-0.2,0.6-0.4,0.8-0.7
				c0.2-0.3,0.4-0.6,0.5-0.9c0.3-0.8,0.3-1.6,0-2.3c-0.2-0.4-0.4-0.7-0.8-1c-0.4-0.3-0.8-0.5-1.3-0.7c-0.7-0.2-1.3-0.3-2-0.2h-3.4
				v11h2.1v-4.3h0.9c0.2,0,0.3,0,0.5,0c0.1,0.1,0.2,0.2,0.3,0.3l2.3,3.5c0.2,0.3,0.5,0.4,0.8,0.4h1.8l-2.8-4.1
				C64.3,123.2,64.2,123.1,64.1,123z M62.9,121.6c-0.3,0.1-0.7,0.1-1,0.1h-1.3v-3.6h1.3c0.6,0,1.2,0.1,1.7,0.4
				c0.4,0.3,0.6,0.8,0.6,1.3c0,0.3,0,0.5-0.1,0.8c-0.1,0.2-0.2,0.5-0.4,0.7C63.4,121.4,63.1,121.5,62.9,121.6z"/>
			<path id="Path_314" d="M72,116.5l-4.3,11h1.6c0.2,0,0.3-0.1,0.4-0.2c0.1-0.1,0.2-0.2,0.2-0.3l0.8-2.2h4.6l0.8,2.2
				c0.1,0.1,0.1,0.2,0.3,0.3c0.1,0.1,0.3,0.1,0.4,0.1h1.6l-4.3-11H72z M71.3,123.3l1.3-3.7l0.2-0.6c0-0.2,0.1-0.5,0.2-0.7
				c0,0.3,0.1,0.5,0.2,0.7l0.2,0.6l1.3,3.7L71.3,123.3z"/>
			<path id="Path_315" d="M81.6,116.5h-2.1v11H86v-1.7h-4.4V116.5z"/>
			<path id="Path_316" d="M94.7,123.1c0,0.2,0,0.3,0,0.5s0,0.3,0,0.5l-5.7-7.4l-0.2-0.2l-0.2-0.1h-0.2h-1.3v11h1.8v-6.8
				c0-0.3,0-0.6,0-0.9l5.7,7.3c0.1,0.1,0.2,0.2,0.3,0.3c0.1,0,0.3,0,0.4,0h1v-10.9h-1.8V123.1z"/>
			<path id="Path_317" d="M108.8,119.1c-0.2-0.4-0.5-0.8-0.8-1.1c-0.3-0.3-0.7-0.6-1.1-0.9c-0.4-0.2-0.9-0.4-1.4-0.6
				c-0.5-0.1-1.1-0.2-1.6-0.2c-0.8,0-1.6,0.1-2.3,0.4c-0.7,0.3-1.3,0.7-1.8,1.2c-0.5,0.5-0.9,1.1-1.1,1.7c-0.5,1.5-0.5,3,0,4.5
				c0.2,0.7,0.6,1.3,1.1,1.9c0.5,0.5,1.1,0.9,1.8,1.2c1.5,0.6,3.1,0.6,4.6,0c1.3-0.6,2.4-1.6,2.9-3c0.3-0.7,0.4-1.5,0.4-2.2
				c0-0.5-0.1-1.1-0.2-1.6C109.2,119.9,109,119.5,108.8,119.1z M107.2,123.6c-0.1,0.5-0.4,0.9-0.7,1.2c-0.3,0.3-0.7,0.6-1.1,0.8
				c-0.9,0.3-2,0.3-2.9,0c-0.4-0.2-0.8-0.4-1.1-0.8c-0.3-0.4-0.5-0.8-0.7-1.2c-0.3-1-0.3-2.1,0-3.2c0.2-0.4,0.4-0.9,0.7-1.2
				c0.3-0.3,0.7-0.6,1.1-0.8c0.9-0.4,2-0.4,2.9,0c0.4,0.2,0.8,0.4,1.1,0.8c0.3,0.4,0.6,0.8,0.7,1.2
				C107.5,121.5,107.5,122.6,107.2,123.6L107.2,123.6z"/>
			<path id="Path_318" d="M117,122.1c-0.2-0.2-0.5-0.4-0.8-0.6c-0.3-0.1-0.6-0.3-0.9-0.4l-0.9-0.3c-0.3-0.1-0.6-0.2-0.8-0.3
				c-0.2-0.1-0.4-0.3-0.6-0.4c-0.1-0.2-0.2-0.4-0.2-0.6c0-0.2,0-0.4,0.1-0.6c0.1-0.2,0.2-0.3,0.3-0.4c0.2-0.1,0.3-0.2,0.5-0.3
				c0.2-0.1,0.5-0.1,0.7-0.1c0.3,0,0.6,0,0.8,0.1c0.2,0.1,0.4,0.1,0.6,0.3l0.4,0.3c0.1,0.1,0.2,0.1,0.3,0.1c0.1,0,0.2,0,0.3,0
				c0.1-0.1,0.1-0.1,0.2-0.2l0.5-1c-0.4-0.4-0.9-0.7-1.5-0.9c-0.6-0.2-1.2-0.3-1.8-0.3c-0.5,0-1.1,0.1-1.6,0.3
				c-0.4,0.2-0.8,0.4-1.1,0.7c-0.6,0.6-0.9,1.4-0.9,2.2c0,0.4,0.1,0.9,0.2,1.3c0.1,0.3,0.3,0.6,0.6,0.9c0.2,0.2,0.5,0.4,0.8,0.6
				c0.3,0.1,0.6,0.3,0.9,0.4l0.9,0.3c0.3,0.1,0.6,0.2,0.8,0.3c0.2,0.1,0.4,0.3,0.6,0.5c0.1,0.2,0.2,0.4,0.2,0.7
				c0,0.5-0.2,0.9-0.5,1.2c-0.4,0.3-0.9,0.4-1.4,0.4c-0.3,0-0.7-0.1-1-0.2c-0.3-0.1-0.5-0.2-0.7-0.3c-0.2-0.1-0.4-0.2-0.5-0.3
				c-0.1-0.1-0.3-0.2-0.4-0.2c-0.1,0-0.2,0-0.3,0c-0.1,0-0.1,0.1-0.2,0.2l-0.6,1c0.2,0.2,0.5,0.4,0.7,0.6c0.3,0.2,0.6,0.3,0.9,0.5
				c0.3,0.1,0.7,0.2,1,0.3c0.3,0.1,0.7,0.1,1,0.1c0.5,0,1.1-0.1,1.6-0.3c0.5-0.2,0.9-0.4,1.2-0.8c0.3-0.3,0.6-0.7,0.7-1.1
				c0.2-0.4,0.3-0.9,0.3-1.4c0-0.4-0.1-0.8-0.2-1.2C117.3,122.5,117.2,122.3,117,122.1z"/>
			<path id="Path_319" d="M114.9,115.6c0.1,0,0.2-0.1,0.3-0.2l2.5-2.2h-2.4h-0.2c-0.1,0-0.1,0-0.2,0.1c-0.1,0.1-0.1,0.1-0.2,0.2
				l-1.6,2.1h1.3C114.6,115.6,114.8,115.6,114.9,115.6z"/>
			<path id="Path_320" d="M127.3,125c-0.1-0.1-0.2-0.1-0.3-0.1h-0.2c-0.1,0-0.1,0.1-0.2,0.1c-0.2,0.1-0.3,0.3-0.5,0.4
				c-0.4,0.2-0.8,0.4-1.2,0.4c-0.3,0-0.5,0-0.8,0c-0.4,0-0.9-0.1-1.3-0.3c-0.4-0.2-0.8-0.4-1.1-0.7c-0.3-0.4-0.6-0.8-0.7-1.2
				c-0.2-0.5-0.3-1-0.3-1.6c0-0.5,0.1-1.1,0.2-1.6c0.1-0.4,0.4-0.9,0.7-1.2c0.3-0.3,0.7-0.6,1.1-0.8c0.4-0.2,0.9-0.3,1.4-0.3
				c0.3,0,0.5,0,0.8,0l0.6,0.2l0.4,0.2l0.3,0.2l0.3,0.2c0.1,0,0.2,0,0.2,0c0.1,0,0.2,0,0.3,0c0.1,0,0.1-0.1,0.2-0.2l0.7-1
				c-0.5-0.4-1-0.8-1.6-1c-0.7-0.3-1.4-0.4-2.1-0.4c-0.8,0-1.5,0.1-2.2,0.4c-0.7,0.3-1.2,0.7-1.7,1.2c-0.5,0.5-0.8,1.1-1,1.7
				c-0.3,0.7-0.4,1.5-0.4,2.3c0,0.8,0.1,1.6,0.4,2.3c0.2,0.7,0.5,1.3,1,1.8c0.4,0.5,1,0.9,1.6,1.2c0.7,0.3,1.5,0.4,2.2,0.4
				c0.8,0,1.6-0.1,2.4-0.4c0.6-0.3,1.2-0.7,1.6-1.3L127.3,125z"/>
			<path id="Path_321" d="M125.2,113.3c-0.1,0-0.1,0-0.2,0c-0.1,0-0.1,0-0.2,0.1c-0.1,0-0.1,0.1-0.2,0.2l-1.6,2.1h1.4
				c0.1,0,0.2,0,0.3,0c0.1,0,0.2-0.1,0.3-0.2l2.5-2.2H125.2z"/>
			<path id="Path_322" d="M80.4,29.5c0.7-3.5,1.9-6.9,3.7-10c1.2-2.2,3.1-4,5.3-5.2c1.9-1,4.1-1.5,6.2-1.5c2.2,0,4.4,0.5,6.4,1.5
				c2.2,1.2,4.1,3,5.4,5.2c1.8,3.1,3.1,6.5,3.7,10c0.3,1.3,0.5,2.8,0.7,4.3h15.5c-0.4-2.9-0.9-5.7-1.7-8.5c-1.4-5.1-3.7-9.8-6.8-14
				c-2.7-3.6-6.3-6.4-10.4-8.3c-4-1.8-8.4-2.7-12.8-2.7c-4.4,0-8.7,0.9-12.7,2.7c-4,1.9-7.5,4.7-10.2,8.3c-3.1,4.2-5.4,8.9-6.8,14
				c-0.8,2.8-1.4,5.6-1.7,8.5h15.4C79.9,32.3,80.1,30.9,80.4,29.5z"/>
			<path id="Path_323" d="M108.5,87.6c4-1.9,7.6-4.7,10.3-8.2c3.2-4.2,5.5-9,6.9-14c0.6-2.1,1.1-4.2,1.4-6.4h-15.5
				c-0.1,0.8-0.3,1.6-0.4,2.3c-0.7,3.5-1.9,6.9-3.7,10c-1.3,2.2-3.1,4-5.4,5.2c-2,1-4.2,1.5-6.4,1.5c-2.2,0-4.3-0.5-6.2-1.5
				c-2.2-1.2-4.1-3-5.3-5.2c-1.8-3.1-3-6.5-3.7-10c-0.2-0.7-0.3-1.5-0.4-2.3H64.5c0.4,2.1,0.8,4.3,1.4,6.4c1.3,5.1,3.6,9.8,6.8,14
				c2.7,3.5,6.2,6.4,10.2,8.2c4,1.8,8.3,2.7,12.7,2.7C100,90.3,104.4,89.4,108.5,87.6z"/>
			<path id="Path_324" d="M72.8,36.8v19.4h11.4v-3h-7.8V36.8H72.8z"/>
			<path id="Path_325" d="M90.8,56c0.2-0.1,0.3-0.3,0.4-0.6l1.4-4h8l1.4,4c0.1,0.2,0.3,0.4,0.4,0.6c0.2,0.2,0.5,0.2,0.8,0.2h2.8
				l-7.6-19.5h-3.8l-7.6,19.4H90C90.3,56.3,90.6,56.2,90.8,56z M95.9,42.5c0.1-0.3,0.2-0.6,0.4-1c0.1-0.4,0.2-0.8,0.4-1.3
				c0.1,0.5,0.2,0.9,0.4,1.3c0.1,0.4,0.3,0.7,0.4,1l2.4,6.5h-6.2L95.9,42.5z"/>
			<path id="Path_326" d="M115.6,56.2V39.8h5.9v-3h-15.3v3h5.9v16.4H115.6z"/>
		</g>
	</g>
</g>
</svg>
