<svg xmlns="http://www.w3.org/2000/svg" viewBox="0 0 512 512">
      <path d="m9 10l201 97-196 396m189-384l-4-14 300-90 5 15z m308 393l-511 0 0-511 513 0 0 511-2 0z m-493-18l475 0 0-475-475 0z m303-233c-2 18-11 25-25 29 16 5 23 16 20 32-2 27-27 41-49 41-28 0-39-14-43-37l11-4c2 0 4 0 4 0 3 0 7 2 7 4 3 9 7 19 23 19 16 0 25-12 25-21 2-13-3-20-27-20l2-16c22 0 29-9 31-20 3-14-4-21-15-21-12 0-18 7-23 16-2 5-4 7-9 7l-2 0-12-2c7-25 28-39 50-39 21-2 36 14 32 32m63 102l-52 0 16-134 52 0c41 0 63 27 59 68-5 36-37 66-75 66m14-116l-25 0-12 95 25 0c27 0 46-18 48-47 2-30-12-48-36-48m-251 177c-2 0-5-3-11-3-5 0-9 3-9 7 0 9 20 5 20 18 0 7-5 14-14 14-4 0-11-3-13-5l2-2c0 0 0 0 2 0 3 0 5 4 12 4 4 0 9-2 9-9 0-11-21-4-21-20 0-7 5-11 14-11 4 0 9 2 11 4z m38-7l0 4-13 0 0 39-5 0 0-39-16 0 0-4z m14 25l0 18-7 0 0-43 11 0c12 0 16 4 16 11 0 7-4 11-11 11 0 0 2 0 2 3l14 18-5 0c0 0-2 0-2-3l-11-15-3-3-4 0z m0-5l7 0c6 0 11-4 11-9 0-4-2-7-9-7l-7 0 0 16z m59 5l0-27 6 0 0 27c0 9-6 18-18 18-11 0-18-7-18-18l0-27 7 0 0 27c0 6 4 11 11 11 7 2 12-5 12-11m47 9l2 2c-4 4-9 7-16 7-11 0-20-9-20-23 0-13 9-22 23-22 6 0 11 2 13 4l-2 2c0 0 0 0-2 0-3 0-5-4-12-4-9 0-15 7-15 16 0 11 6 18 15 18 5 4 9 2 14 0-2 0-2 0 0 0m38-34l0 4-13 0 0 39-5 0 0-39-15 0 0-4z m34 25l0-27 7 0 0 27c0 9-7 18-18 18-11 0-18-7-18-18l0-27 7 0 0 27c0 6 4 11 11 11 9 2 11-5 11-11m23 0l0 18-7 0 0-43 11 0c12 0 16 4 16 11 0 7-4 11-11 11 0 0 2 0 2 3l14 18-5 0c0 0-2 0-2-3l-11-15-3-3-4 0z m0-5l7 0c6 0 11-4 11-9 0-4-2-7-9-7l-7 0 0 16z m59-20l0 4-21 0 0 14 18 0 0 4-18 0 0 16 21 0 0 5-25 0 0-43z"/>
</svg>
