<?xml version="1.0" encoding="utf-8"?>
<!-- Generator: Adobe Illustrator 24.0.3, SVG Export Plug-In . SVG Version: 6.00 Build 0)  -->
<svg version="1.1" id="Layer_1" xmlns="http://www.w3.org/2000/svg" xmlns:xlink="http://www.w3.org/1999/xlink" x="0px" y="0px"
	 viewBox="0 0 128 128" style="enable-background:new 0 0 128 128;" xml:space="preserve">
<g id="Layer_2_1_">
	<g id="Layer_1-2">
		<g id="Group_537">
			<path id="Path_334" d="M41.7,67.8v20.9h12.7V67.8h7.7c0.8,0.1,1.6-0.3,2.2-0.9c0.5-0.6,0.8-1.3,0.8-2v-8.5H54.3V3H40.3L0,57.2
				l1.5,7.4c0.4,1.9,2.1,3.2,4,3.2H41.7z M42.2,19.6c-0.3,2.9-0.5,5.8-0.5,8.8v28h-26L42.2,19.6z"/>
			<path id="Path_335" d="M16.4,103h-4.7v1.5c0,0.1,0,0.3,0.1,0.4c0.1,0.1,0.3,0.2,0.4,0.1h1.7v2.6c-0.4,0.2-0.8,0.3-1.2,0.4
				c-0.5,0.1-0.9,0.2-1.4,0.2c-0.7,0-1.4-0.1-2-0.3c-0.6-0.2-1.1-0.6-1.5-1c-0.4-0.5-0.8-1-1-1.6c-0.2-0.7-0.4-1.4-0.4-2.2
				c0-0.7,0.1-1.4,0.3-2.1c0.2-0.6,0.5-1.1,0.9-1.5c0.4-0.4,0.9-0.8,1.5-1c0.6-0.3,1.3-0.4,2-0.4c0.4,0,0.8,0,1.2,0.1
				c0.3,0,0.6,0.1,0.9,0.2c0.3,0.1,0.5,0.2,0.7,0.3l0.6,0.4c0.2,0.1,0.4,0.2,0.6,0.1c0.2,0,0.4-0.2,0.5-0.4l0.8-1.2
				c-0.3-0.3-0.6-0.5-1-0.8c-0.4-0.2-0.8-0.4-1.2-0.6c-0.5-0.2-0.9-0.3-1.4-0.4c-0.5-0.1-1-0.1-1.5-0.1c-1.1,0-2.1,0.2-3.1,0.5
				c-0.9,0.3-1.7,0.9-2.3,1.5c-0.7,0.7-1.2,1.4-1.5,2.3c-0.4,0.9-0.5,1.9-0.5,2.9c0,1,0.2,2,0.5,2.9c0.3,0.9,0.9,1.7,1.5,2.3
				c0.7,0.7,1.5,1.2,2.4,1.5c1,0.4,2,0.5,3.1,0.5c0.9,0,1.8-0.1,2.6-0.4c0.8-0.3,1.6-0.6,2.3-1.2L16.4,103z"/>
			<path id="Path_336" d="M33.3,110.1l4.4-14.2h-2.1c-0.2,0-0.4,0.1-0.6,0.2c-0.2,0.1-0.3,0.2-0.3,0.4l-2.4,8.5
				c-0.1,0.4-0.2,0.9-0.3,1.4c-0.1-0.5-0.2-0.9-0.4-1.4l-2.8-8.5c-0.1-0.2-0.2-0.3-0.3-0.4c-0.2-0.1-0.4-0.2-0.6-0.2h-0.8
				c-0.4,0-0.7,0.2-0.9,0.6l-2.8,8.5c0,0.2-0.1,0.4-0.2,0.7s-0.1,0.5-0.2,0.8c0-0.3-0.1-0.5-0.2-0.8c0-0.2-0.1-0.5-0.2-0.7l-2.4-8.5
				c-0.1-0.2-0.2-0.3-0.3-0.4c-0.2-0.1-0.4-0.2-0.6-0.2h-2.2l4.4,14.2h2.4l3.1-9.7c0-0.1,0.1-0.3,0.1-0.4s0-0.3,0.1-0.5
				c0.1,0.3,0.1,0.6,0.2,0.9l3.1,9.7H33.3z"/>
			<path id="Path_337" d="M42.4,95.9l-5.6,14.2h2.1c0.2,0,0.4,0,0.6-0.2c0.1-0.1,0.2-0.2,0.3-0.4l1.1-2.9h5.9l1.1,2.9
				c0.1,0.2,0.2,0.3,0.3,0.4c0.2,0.1,0.4,0.2,0.6,0.2h2l-5.6-14.2L42.4,95.9z M41.5,104.8l1.7-4.6c0.1-0.3,0.2-0.5,0.3-0.8
				c0.1-0.3,0.2-0.6,0.3-0.9c0.1,0.3,0.2,0.6,0.3,0.9c0.1,0.3,0.2,0.5,0.3,0.8l1.7,4.7L41.5,104.8z"/>
			<path id="Path_338" d="M63.2,110.1l-3.6-5.3c-0.1-0.2-0.2-0.3-0.4-0.5c-0.1-0.1-0.3-0.3-0.5-0.4c0.5-0.1,0.9-0.3,1.3-0.6
				c0.4-0.2,0.7-0.6,1-0.9c0.3-0.3,0.5-0.7,0.6-1.2c0.1-0.4,0.2-0.9,0.2-1.4c0-0.6-0.1-1.1-0.3-1.7c-0.2-0.5-0.5-0.9-1-1.3
				c-0.5-0.4-1.1-0.7-1.7-0.9c-0.8-0.2-1.7-0.3-2.5-0.3h-4.3v14.2h2.6v-5.6h1.1c0.2,0,0.4,0,0.6,0.1c0.2,0.1,0.3,0.2,0.4,0.4l3,4.6
				c0.2,0.4,0.6,0.6,1,0.5L63.2,110.1z M57.7,102.5c-0.4,0.1-0.9,0.2-1.3,0.2h-1.7v-4.7h1.7c0.8-0.1,1.6,0.1,2.2,0.6
				c0.5,0.4,0.7,1,0.7,1.7c0,0.3-0.1,0.7-0.2,1c-0.1,0.3-0.3,0.6-0.5,0.8C58.4,102.2,58.1,102.4,57.7,102.5z"/>
			<path id="Path_339" d="M69.5,95.9l-5.6,14.2h2.1c0.2,0,0.4,0,0.6-0.2c0.1-0.1,0.2-0.2,0.3-0.4l1.1-2.9h5.9l1.1,2.9
				c0.1,0.2,0.2,0.3,0.3,0.4c0.2,0.1,0.4,0.2,0.6,0.2h2l-5.6-14.2L69.5,95.9z M68.5,104.8l1.7-4.6c0.1-0.2,0.2-0.5,0.3-0.8
				c0.1-0.3,0.2-0.6,0.3-0.9c0.1,0.3,0.2,0.6,0.3,0.9c0.1,0.3,0.2,0.5,0.3,0.8l1.7,4.7L68.5,104.8z"/>
			<path id="Path_340" d="M89.3,110c0.2,0.1,0.3,0.1,0.5,0.1h1.4V95.9h-2.4v8.7c0,0.2,0,0.4,0,0.6s0,0.5,0,0.7l-7.5-9.5
				c-0.1-0.1-0.1-0.2-0.2-0.2c0-0.1-0.1-0.1-0.2-0.1c-0.1,0-0.1,0-0.2,0h-1.6v14.2h2.3v-8.8c0-0.4,0-0.8,0-1.2l7.4,9.5
				C89,109.8,89.1,109.9,89.3,110z"/>
			<path id="Path_341" d="M103.4,109.7c0.8-0.4,1.6-0.9,2.1-1.7l-1.1-1.1c-0.1-0.1-0.2-0.2-0.4-0.2c-0.1,0-0.1,0-0.2,0
				c-0.1,0-0.2,0.1-0.2,0.1c-0.2,0.2-0.4,0.4-0.6,0.5c-0.2,0.1-0.5,0.2-0.7,0.3c-0.3,0.1-0.5,0.2-0.8,0.2c-0.3,0-0.7,0-1,0
				c-0.6,0-1.2-0.1-1.7-0.3c-0.5-0.2-1-0.6-1.4-1c-0.4-0.4-0.7-1-0.9-1.5c-0.2-0.7-0.4-1.4-0.3-2.1c0-0.7,0.1-1.4,0.3-2.1
				c0.2-0.6,0.5-1.1,0.9-1.5c0.4-0.4,0.8-0.8,1.4-1c0.6-0.2,1.2-0.3,1.8-0.2c0.3,0,0.7,0,1,0.1c0.3,0,0.5,0.1,0.8,0.2l0.6,0.3
				l0.4,0.3l0.3,0.2c0.1,0.1,0.2,0.1,0.3,0.1c0.1,0,0.2,0,0.3-0.1c0.1-0.1,0.1-0.1,0.2-0.2l0.9-1.2c-0.6-0.6-1.3-1-2.1-1.3
				c-0.9-0.4-1.8-0.6-2.8-0.6c-1,0-1.9,0.2-2.8,0.5c-0.8,0.3-1.6,0.9-2.2,1.5c-0.6,0.7-1.1,1.4-1.4,2.3c-0.4,0.9-0.5,1.9-0.5,2.9
				c0,1,0.2,2,0.5,2.9c0.3,0.9,0.8,1.6,1.4,2.3c0.6,0.7,1.3,1.2,2.2,1.5c0.9,0.4,1.9,0.6,2.9,0.5
				C101.4,110.4,102.5,110.1,103.4,109.7z"/>
			<path id="Path_342" d="M112.9,107.3c0.2-0.7,0.3-1.4,0.3-2.2v-9.2h-2.7v9.3c0,0.5,0,0.9-0.2,1.4c-0.1,0.3-0.2,0.7-0.4,0.9
				c-0.2,0.2-0.4,0.4-0.7,0.5c-0.5,0.2-1.1,0.2-1.7,0.1c-0.1,0-0.3,0-0.4,0c-0.1,0-0.3,0-0.4,0.1c-0.1,0.1-0.2,0.2-0.2,0.4
				c0,0.3,0,0.5,0,0.8s0,0.5,0,0.8c0.4,0.1,0.7,0.2,1.1,0.2c0.3,0,0.7,0,1,0c0.7,0,1.4-0.1,2-0.4c0.5-0.3,1-0.6,1.3-1.1
				C112.4,108.4,112.7,107.9,112.9,107.3z"/>
			<path id="Path_343" d="M124.9,109.5c0.1,0.2,0.2,0.3,0.3,0.4c0.2,0.1,0.4,0.2,0.6,0.2h2.1l-5.6-14.2h-2.7l-5.6,14.2h2
				c0.2,0,0.4-0.1,0.6-0.2c0.1-0.1,0.2-0.3,0.3-0.4l1.1-2.9h6L124.9,109.5z M118.7,104.8l1.7-4.7c0-0.2,0.2-0.5,0.3-0.8
				c0.1-0.3,0.2-0.6,0.3-0.9c0.1,0.3,0.2,0.6,0.3,0.9c0.1,0.3,0.2,0.5,0.3,0.8l1.7,4.7L118.7,104.8z"/>
			<path id="Path_344" d="M11.7,121.5c0,0.1,0,0.3,0,0.5c0,0.2,0,0.3,0,0.5l-5.6-7.2c0-0.1-0.1-0.1-0.2-0.2c0-0.1-0.1-0.1-0.2-0.1
				H5.7H4.5v10.7h1.7v-6.6c0-0.3,0-0.6,0-0.9l5.6,7.1c0.1,0.1,0.2,0.2,0.3,0.3c0.1,0,0.3,0,0.4,0h1V115h-1.8V121.5z"/>
			<path id="Path_345" d="M18.8,115l-4.2,10.7h1.5c0.2,0,0.3,0,0.4-0.1c0.1-0.1,0.2-0.2,0.2-0.3l0.8-2.2H22l0.8,2.2
				c0.1,0.1,0.1,0.2,0.2,0.3c0.1,0.1,0.3,0.1,0.4,0.1H25L20.8,115H18.8z M18.1,121.7l1.3-3.6c0.1-0.2,0.1-0.4,0.2-0.6
				c0.1-0.2,0.1-0.5,0.2-0.7c0,0.2,0.1,0.5,0.2,0.7c0.1,0.2,0.1,0.4,0.2,0.6l1.3,3.6L18.1,121.7z"/>
			<path id="Path_346" d="M35.4,120.5c-0.2-0.2-0.5-0.4-0.8-0.5c-0.3-0.1-0.6-0.3-0.9-0.4l-0.9-0.3c-0.3-0.1-0.5-0.2-0.8-0.3
				c-0.2-0.1-0.4-0.2-0.6-0.4c-0.1-0.2-0.2-0.4-0.2-0.6c0-0.2,0-0.4,0.1-0.6c0.1-0.2,0.2-0.3,0.3-0.4c0.2-0.1,0.3-0.2,0.5-0.3
				c0.5-0.2,1-0.2,1.5,0c0.2,0.1,0.4,0.1,0.6,0.2l0.4,0.3c0.1,0.1,0.2,0.1,0.3,0.1c0.1,0,0.2,0,0.2,0c0.1-0.1,0.1-0.1,0.2-0.2
				l0.5-0.9c-0.4-0.4-0.9-0.7-1.4-0.8c-0.6-0.2-1.2-0.3-1.7-0.3c-0.5,0-1.1,0.1-1.5,0.3c-0.4,0.2-0.8,0.4-1.1,0.7
				c-0.9,0.9-1.2,2.2-0.7,3.4c0.1,0.3,0.3,0.6,0.6,0.8c0.2,0.2,0.5,0.4,0.8,0.5c0.3,0.1,0.6,0.3,0.9,0.4l0.9,0.3
				c0.3,0.1,0.5,0.2,0.8,0.3c0.2,0.1,0.4,0.3,0.6,0.4c0.1,0.2,0.2,0.4,0.2,0.7c0,0.4-0.2,0.9-0.5,1.2c-0.4,0.3-0.9,0.4-1.3,0.4
				c-0.3,0-0.6,0-0.9-0.2c-0.2-0.1-0.5-0.2-0.7-0.3l-0.5-0.3c-0.1-0.1-0.3-0.1-0.4-0.2c-0.1,0-0.2,0-0.3,0c-0.1,0-0.1,0.1-0.2,0.2
				l-0.6,1c0.2,0.2,0.5,0.4,0.7,0.6c0.3,0.2,0.6,0.3,0.9,0.4c0.3,0.1,0.6,0.2,0.9,0.3c0.4,0.1,0.7,0.1,1.1,0.1
				c0.5,0,1.1-0.1,1.5-0.3c0.4-0.2,0.8-0.4,1.2-0.7c0.3-0.3,0.6-0.7,0.7-1.1c0.2-0.4,0.3-0.9,0.2-1.4c0-0.4-0.1-0.8-0.2-1.1
				C35.8,121,35.6,120.7,35.4,120.5z"/>
			<path id="Path_347" d="M33.6,111.9c-0.1,0-0.1,0-0.2,0.1c-0.1,0-0.1,0.1-0.2,0.2l-1.5,2h1.3c0.1,0,0.2,0,0.3,0
				c0.1,0,0.2-0.1,0.3-0.2l2.4-2.1h-2.3C33.7,111.9,33.7,111.9,33.6,111.9z"/>
			<path id="Path_348" d="M45.2,123.2H45l-0.2,0.1c-0.1,0.1-0.3,0.3-0.5,0.4c-0.2,0.1-0.3,0.2-0.5,0.2c-0.2,0.1-0.4,0.1-0.6,0.1
				c-0.2,0-0.5,0-0.7,0c-0.4,0-0.9-0.1-1.3-0.2c-0.4-0.2-0.7-0.4-1-0.7c-0.3-0.3-0.5-0.8-0.7-1.2c-0.2-0.5-0.3-1-0.2-1.5
				c0-0.5,0.1-1,0.2-1.5c0.1-0.4,0.4-0.8,0.7-1.2c0.3-0.3,0.6-0.6,1-0.7c0.4-0.2,0.9-0.3,1.3-0.3c0.3,0,0.5,0,0.8,0l0.6,0.2
				c0.2,0.1,0.3,0.1,0.4,0.2l0.3,0.2l0.3,0.2c0.1,0,0.2,0,0.2,0c0.1,0,0.2,0,0.2,0c0.1,0,0.1-0.1,0.2-0.2l0.7-0.9
				c-0.5-0.4-1-0.8-1.5-1c-0.7-0.3-1.4-0.4-2.1-0.4c-0.7,0-1.5,0.1-2.1,0.4c-0.7,0.3-1.3,0.7-1.8,1.2c-0.5,0.5-0.8,1.1-1.1,1.7
				c-0.3,0.7-0.4,1.5-0.4,2.2c0,0.7,0.1,1.5,0.4,2.2c0.2,0.7,0.6,1.2,1.1,1.7c0.5,0.5,1,0.9,1.6,1.1c0.7,0.3,1.4,0.4,2.1,0.4
				c0.8,0,1.6-0.1,2.3-0.4c0.6-0.3,1.1-0.7,1.5-1.2l-0.8-0.9C45.4,123.3,45.3,123.2,45.2,123.2z"/>
			<rect id="Rectangle_140" x="47.5" y="115" width="2" height="10.7"/>
			<path id="Path_349" d="M51.9,125.7h6.8v-1.5h-4.8v-3.1h3.8v-1.5h-3.8v-3h4.8V115h-6.8V125.7z"/>
			<path id="Path_350" d="M65.7,121.4c-0.1-0.1-0.2-0.2-0.4-0.3c0.4-0.1,0.7-0.3,1-0.5c0.3-0.2,0.5-0.4,0.8-0.7
				c0.2-0.3,0.4-0.6,0.4-0.9c0.1-0.3,0.2-0.7,0.2-1c0-0.4-0.1-0.9-0.2-1.3c-0.2-0.4-0.4-0.7-0.7-1c-0.4-0.3-0.8-0.5-1.3-0.6
				c-0.6-0.2-1.2-0.2-1.9-0.2h-3.3v10.7h2v-4.2h0.9c0.2,0,0.3,0,0.4,0.1c0.1,0.1,0.2,0.2,0.3,0.3l2.3,3.4c0.1,0.3,0.4,0.4,0.7,0.4
				h1.8l-2.6-4C66,121.6,65.9,121.5,65.7,121.4z M64.6,120c-0.3,0.1-0.7,0.1-1,0.1h-1.2v-3.5h1.3c0.6,0,1.2,0.1,1.7,0.4
				c0.4,0.3,0.6,0.8,0.5,1.3c0,0.3,0,0.5-0.1,0.8c-0.1,0.2-0.2,0.4-0.4,0.6C65.1,119.8,64.8,119.9,64.6,120L64.6,120z"/>
			<path id="Path_351" d="M73.4,115l-4.2,10.7h1.5c0.2,0,0.3,0,0.4-0.1c0.1-0.1,0.2-0.2,0.2-0.3l0.8-2.2h4.4l0.8,2.2
				c0.1,0.1,0.1,0.2,0.2,0.3c0.1,0.1,0.3,0.1,0.4,0.1h1.5L75.5,115H73.4z M72.7,121.7l1.3-3.6c0-0.2,0.1-0.4,0.2-0.6
				s0.1-0.5,0.2-0.7c0,0.2,0.1,0.5,0.2,0.7c0.1,0.2,0.1,0.4,0.2,0.6l1.3,3.6L72.7,121.7z"/>
			<path id="Path_352" d="M82.8,115h-2v10.7h6.3v-1.7h-4.3V115z"/>
			<path id="Path_353" d="M95.6,121.5c0,0.1,0,0.3,0,0.5v0.5l-5.6-7.2c0-0.1-0.1-0.1-0.2-0.2l-0.2-0.1h-0.2h-1.3v10.7H90v-6.6
				c0-0.3,0-0.6,0-0.9l5.6,7.1c0.1,0.1,0.2,0.2,0.3,0.3c0.1,0,0.3,0,0.4,0h1V115h-1.8V121.5z"/>
			<path id="Path_354" d="M109.3,117.6c-0.4-0.8-1.1-1.5-1.9-1.9c-0.4-0.2-0.9-0.4-1.3-0.5c-0.5-0.1-1-0.2-1.5-0.2
				c-0.8,0-1.5,0.1-2.2,0.4c-0.6,0.3-1.2,0.7-1.7,1.1c-0.5,0.5-0.8,1.1-1.1,1.7c-0.5,1.4-0.5,3,0,4.4c0.5,1.3,1.5,2.4,2.8,2.9
				c1.4,0.5,3,0.5,4.5,0c0.6-0.2,1.2-0.6,1.7-1.1c0.5-0.5,0.9-1.1,1.1-1.7c0.3-0.7,0.4-1.4,0.4-2.2c0-0.5,0-1-0.2-1.5
				C109.7,118.4,109.5,118,109.3,117.6z M107.7,122c-0.1,0.4-0.4,0.8-0.7,1.2c-0.3,0.3-0.7,0.6-1.1,0.7c-0.9,0.4-1.9,0.4-2.8,0
				c-0.4-0.2-0.8-0.4-1.1-0.7c-0.3-0.3-0.5-0.8-0.7-1.2c-0.3-1-0.3-2.1,0-3.1c0.2-0.4,0.4-0.8,0.7-1.2c0.3-0.3,0.7-0.6,1.1-0.7
				c0.9-0.3,1.9-0.3,2.8,0c0.4,0.2,0.8,0.4,1.1,0.7c0.3,0.3,0.5,0.8,0.7,1.2C108,119.9,108,120.9,107.7,122L107.7,122z"/>
			<path id="Path_355" d="M117.2,120.5c-0.2-0.2-0.5-0.4-0.8-0.5c-0.3-0.1-0.6-0.3-0.9-0.4l-0.9-0.3c-0.3-0.1-0.5-0.2-0.8-0.3
				c-0.2-0.1-0.4-0.2-0.6-0.4c-0.1-0.2-0.2-0.4-0.2-0.6c0-0.2,0-0.4,0.1-0.6c0.1-0.2,0.2-0.3,0.3-0.4c0.2-0.1,0.3-0.2,0.5-0.3
				c0.2-0.1,0.5-0.1,0.7-0.1c0.3,0,0.5,0,0.8,0.1c0.2,0.1,0.4,0.1,0.6,0.2l0.4,0.3c0.1,0.1,0.2,0.1,0.3,0.1c0.1,0,0.2,0,0.2,0
				c0.1-0.1,0.1-0.1,0.2-0.2l0.5-0.9c-0.4-0.4-0.9-0.7-1.4-0.8c-0.6-0.2-1.2-0.3-1.7-0.3c-0.5,0-1.1,0.1-1.5,0.3
				c-0.4,0.2-0.8,0.4-1.1,0.7c-0.6,0.6-0.9,1.3-0.9,2.1c0,0.4,0.1,0.8,0.2,1.2c0.1,0.3,0.3,0.6,0.6,0.8c0.2,0.2,0.5,0.4,0.8,0.5
				c0.3,0.1,0.6,0.3,0.9,0.4l0.9,0.3c0.3,0.1,0.5,0.2,0.8,0.3c0.2,0.1,0.4,0.3,0.6,0.4c0.1,0.2,0.2,0.4,0.2,0.7
				c0,0.4-0.1,0.9-0.5,1.2c-0.4,0.3-0.9,0.4-1.3,0.4c-0.3,0-0.6,0-0.9-0.2c-0.2-0.1-0.5-0.2-0.7-0.3c-0.2-0.1-0.3-0.2-0.5-0.3
				c-0.1-0.1-0.3-0.1-0.4-0.2c-0.1,0-0.2,0-0.3,0c-0.1,0-0.1,0.1-0.2,0.2l-0.6,1c0.2,0.2,0.5,0.4,0.7,0.6c0.3,0.2,0.6,0.3,0.9,0.4
				c0.3,0.1,0.6,0.2,0.9,0.3c0.3,0.1,0.7,0.1,1,0.1c0.5,0,1.1-0.1,1.5-0.3c0.4-0.2,0.8-0.4,1.2-0.7c0.3-0.3,0.6-0.7,0.7-1.1
				c0.2-0.4,0.3-0.9,0.2-1.4c0-0.4,0-0.8-0.2-1.1C117.6,120.9,117.4,120.7,117.2,120.5z"/>
			<path id="Path_356" d="M115.2,114.2c0.1,0,0.2-0.1,0.3-0.2l2.4-2.1h-2.3h-0.2l-0.2,0.1c-0.1,0-0.1,0.1-0.2,0.2l-1.5,2
				C113.5,114.2,115.2,114.2,115.2,114.2z"/>
			<path id="Path_357" d="M127.3,123.3c-0.1-0.1-0.2-0.1-0.3-0.1c-0.1,0-0.1,0-0.2,0l-0.2,0.1c-0.2,0.1-0.3,0.3-0.5,0.4
				c-0.2,0.1-0.3,0.2-0.5,0.2l-0.6,0.1c-0.2,0-0.5,0-0.7,0c-0.4,0-0.9-0.1-1.3-0.2c-0.4-0.2-0.7-0.4-1-0.7c-0.3-0.3-0.5-0.8-0.7-1.2
				c-0.2-0.5-0.3-1-0.3-1.5c0-0.5,0.1-1,0.2-1.5c0.1-0.4,0.4-0.8,0.7-1.2c0.3-0.3,0.6-0.6,1-0.7c0.4-0.2,0.9-0.3,1.3-0.3
				c0.2,0,0.5,0,0.7,0l0.6,0.2c0.2,0.1,0.3,0.1,0.4,0.2l0.3,0.2l0.3,0.2c0.1,0,0.2,0,0.2,0c0.1,0,0.2,0,0.3,0l0.2-0.2l0.7-0.9
				c-0.5-0.4-1-0.8-1.5-1c-1.4-0.5-2.9-0.5-4.2,0c-0.6,0.2-1.2,0.6-1.7,1.1c-0.5,0.5-0.8,1.1-1.1,1.7c-0.3,0.7-0.4,1.5-0.4,2.2
				c0,0.7,0.1,1.5,0.4,2.2c0.4,1.3,1.4,2.3,2.7,2.9c0.7,0.3,1.4,0.4,2.1,0.4c0.8,0,1.6-0.1,2.3-0.4c0.6-0.3,1.1-0.7,1.5-1.2
				L127.3,123.3z"/>
			<path id="Path_358" d="M125.3,111.9h-0.2c-0.1,0-0.1,0-0.2,0.1c-0.1,0-0.1,0.1-0.2,0.2l-1.5,2h1.3c0.1,0,0.2,0,0.3,0
				c0.1,0,0.2-0.1,0.3-0.2l2.4-2.1H125.3z"/>
			<path id="Path_359" d="M81.6,30.5c0.6-3.4,1.9-6.7,3.6-9.7c1.2-2.1,3-3.9,5.2-5.1c1.9-1,4-1.4,6.1-1.5c2.1,0,4.3,0.5,6.2,1.5
				c2.2,1.2,4,2.9,5.2,5.1c1.7,3,3,6.3,3.7,9.7c0.3,1.3,0.5,2.7,0.7,4.2h15c-0.4-2.8-0.9-5.6-1.7-8.3c-1.3-4.9-3.6-9.5-6.6-13.6
				c-2.6-3.4-6.1-6.2-10-8C105,3,100.8,2.1,96.5,2.1C92.2,2.1,88,3,84.1,4.8c-3.9,1.8-7.3,4.6-9.9,8c-3,4.1-5.3,8.7-6.6,13.6
				c-0.8,2.7-1.3,5.5-1.7,8.3h15C81.1,33.2,81.4,31.8,81.6,30.5z"/>
			<path id="Path_360" d="M108.9,87c3.9-1.8,7.4-4.6,10-8c3.1-4.1,5.3-8.7,6.6-13.6c0.6-2,1.1-4.1,1.4-6.2h-15
				c-0.1,0.8-0.3,1.5-0.4,2.2c-0.7,3.4-1.9,6.7-3.6,9.7c-1.2,2.1-3.1,3.9-5.2,5.1c-1.9,1-4,1.5-6.2,1.5c-2.1,0-4.2-0.5-6.1-1.5
				c-2.2-1.2-4-2.9-5.2-5.1c-1.7-3-2.9-6.3-3.6-9.7c-0.2-0.7-0.3-1.4-0.4-2.2h-15c0.3,2.1,0.8,4.2,1.4,6.2c1.3,4.9,3.5,9.6,6.6,13.6
				c2.6,3.4,6,6.2,9.9,8c3.9,1.8,8.1,2.7,12.4,2.6C100.7,89.6,105,88.7,108.9,87z"/>
			<path id="Path_361" d="M74.2,37.6v18.9h11.1v-2.9h-7.5v-16H74.2z"/>
			<path id="Path_362" d="M91.7,56.3c0.2-0.1,0.3-0.3,0.4-0.5l1.4-3.9h7.8l1.4,3.9c0.1,0.2,0.2,0.4,0.4,0.6c0.2,0.2,0.5,0.2,0.8,0.2
				h2.8l-7.4-18.9h-3.6l-7.4,18.9H91C91.3,56.5,91.5,56.4,91.7,56.3z M96.8,43.1c0.1-0.3,0.2-0.6,0.3-1s0.2-0.8,0.4-1.3
				c0.1,0.4,0.2,0.9,0.4,1.2c0.1,0.3,0.2,0.7,0.4,1l2.4,6.2h-6.1L96.8,43.1z"/>
			<path id="Path_363" d="M115.9,56.4v-16h5.7v-2.9h-14.9v2.9h5.7v16H115.9z"/>
		</g>
	</g>
</g>
</svg>
