<?xml version="1.0" encoding="utf-8"?>
<!-- Generator: Adobe Illustrator 24.0.3, SVG Export Plug-In . SVG Version: 6.00 Build 0)  -->
<svg version="1.1" id="Layer_1" xmlns="http://www.w3.org/2000/svg" xmlns:xlink="http://www.w3.org/1999/xlink" x="0px" y="0px"
	 viewBox="0 0 128 128" style="enable-background:new 0 0 128 128;" xml:space="preserve">
<g id="Layer_2_1_">
	<g id="Layer_1-2">
		<g id="Group_537">
			<path id="Path_334" d="M45.2,78.5v17.6h10.7V78.5h6.5c0.7,0.1,1.3-0.3,1.9-0.8c0.4-0.5,0.7-1.1,0.7-1.7v-7.2h-9.1V24H44.1
				L10.1,69.6l1.3,6.2c0.3,1.6,1.8,2.7,3.4,2.7C14.8,78.5,45.2,78.5,45.2,78.5z M45.7,37.9c-0.3,2.4-0.4,4.9-0.4,7.4v23.6H23.4
				L45.7,37.9z"/>
			<path id="Path_335" d="M23.9,108.1h-4v1.3c0,0.1,0,0.3,0.1,0.3c0.1,0.1,0.3,0.2,0.3,0.1h1.4v2.2c-0.3,0.2-0.7,0.3-1,0.3
				c-0.4,0.1-0.8,0.2-1.2,0.2c-0.6,0-1.2-0.1-1.7-0.3c-0.5-0.2-0.9-0.5-1.3-0.8c-0.3-0.4-0.7-0.8-0.8-1.3c-0.2-0.6-0.3-1.2-0.3-1.9
				c0-0.6,0.1-1.2,0.3-1.8c0.2-0.5,0.4-0.9,0.8-1.3c0.3-0.3,0.8-0.7,1.3-0.8c0.5-0.3,1.1-0.3,1.7-0.3c0.3,0,0.7,0,1,0.1
				c0.3,0,0.5,0.1,0.8,0.2s0.4,0.2,0.6,0.3l0.5,0.3c0.2,0.1,0.3,0.2,0.5,0.1c0.2,0,0.3-0.2,0.4-0.3l0.7-1c-0.3-0.3-0.5-0.4-0.8-0.7
				c-0.3-0.2-0.7-0.3-1-0.5c-0.4-0.2-0.8-0.3-1.2-0.3c-0.4-0.1-0.8-0.1-1.3-0.1c-0.9,0-1.8,0.2-2.6,0.4c-0.8,0.3-1.4,0.8-1.9,1.3
				c-0.6,0.6-1,1.2-1.3,1.9c-0.3,0.8-0.4,1.6-0.4,2.4c0,0.8,0.2,1.7,0.4,2.4c0.3,0.8,0.8,1.4,1.3,1.9c0.6,0.6,1.3,1,2,1.3
				c0.8,0.3,1.7,0.4,2.6,0.4c0.8,0,1.5-0.1,2.2-0.3c0.7-0.3,1.3-0.5,1.9-1L23.9,108.1z"/>
			<path id="Path_336" d="M38.2,114.1l3.7-11.9h-1.8c-0.2,0-0.3,0.1-0.5,0.2s-0.3,0.2-0.3,0.3l-2,7.2c-0.1,0.3-0.2,0.8-0.3,1.2
				c-0.1-0.4-0.2-0.8-0.3-1.2l-2.4-7.2c-0.1-0.2-0.2-0.3-0.3-0.3c-0.2-0.1-0.3-0.2-0.5-0.2h-0.7c-0.3,0-0.6,0.2-0.8,0.5l-2.4,7.2
				c0,0.2-0.1,0.3-0.2,0.6s-0.1,0.4-0.2,0.7c0-0.3-0.1-0.4-0.2-0.7c0-0.2-0.1-0.4-0.2-0.6l-2-7.2c-0.1-0.2-0.2-0.3-0.3-0.3
				c-0.2-0.1-0.3-0.2-0.5-0.2h-1.9l3.7,11.9h2l2.6-8.2c0-0.1,0.1-0.3,0.1-0.3s0-0.3,0.1-0.4c0.1,0.3,0.1,0.5,0.2,0.8l2.6,8.2H38.2z"
				/>
			<path id="Path_337" d="M45.8,102.1l-4.7,11.9h1.8c0.2,0,0.3,0,0.5-0.2c0.1-0.1,0.2-0.2,0.3-0.3l0.9-2.4h5l0.9,2.4
				c0.1,0.2,0.2,0.3,0.3,0.3c0.2,0.1,0.3,0.2,0.5,0.2h1.7l-4.7-11.9H45.8z M45.1,109.6l1.4-3.9c0.1-0.3,0.2-0.4,0.3-0.7
				c0.1-0.3,0.2-0.5,0.3-0.8c0.1,0.3,0.2,0.5,0.3,0.8c0.1,0.3,0.2,0.4,0.3,0.7l1.4,4L45.1,109.6z"/>
			<path id="Path_338" d="M63.3,114.1l-3-4.5c-0.1-0.2-0.2-0.3-0.3-0.4c-0.1-0.1-0.3-0.3-0.4-0.3c0.4-0.1,0.8-0.3,1.1-0.5
				c0.3-0.2,0.6-0.5,0.8-0.8c0.3-0.3,0.4-0.6,0.5-1c0.1-0.3,0.2-0.8,0.2-1.2c0-0.5-0.1-0.9-0.3-1.4c-0.2-0.4-0.4-0.8-0.8-1.1
				s-0.9-0.6-1.4-0.8c-0.7-0.2-1.4-0.3-2.1-0.3h-3.6v11.9h2.2v-4.7H57c0.2,0,0.3,0,0.5,0.1c0.2,0.1,0.3,0.2,0.3,0.3l2.5,3.9
				c0.2,0.3,0.5,0.5,0.8,0.4L63.3,114.1z M58.7,107.7c-0.3,0.1-0.8,0.2-1.1,0.2h-1.4v-4h1.4c0.7-0.1,1.3,0.1,1.9,0.5
				c0.4,0.3,0.6,0.8,0.6,1.4c0,0.3-0.1,0.6-0.2,0.8s-0.3,0.5-0.4,0.7C59.3,107.4,59,107.6,58.7,107.7z"/>
			<path id="Path_339" d="M68.6,102.1l-4.7,11.9h1.8c0.2,0,0.3,0,0.5-0.2c0.1-0.1,0.2-0.2,0.3-0.3l0.9-2.4h5l0.9,2.4
				c0.1,0.2,0.2,0.3,0.3,0.3c0.2,0.1,0.3,0.2,0.5,0.2h1.7L71,102.1H68.6z M67.8,109.6l1.4-3.9c0.1-0.2,0.2-0.4,0.3-0.7
				c0.1-0.3,0.2-0.5,0.3-0.8c0.1,0.3,0.2,0.5,0.3,0.8c0.1,0.3,0.2,0.4,0.3,0.7l1.4,4L67.8,109.6z"/>
			<path id="Path_340" d="M85.3,114c0.2,0.1,0.3,0.1,0.4,0.1h1.2v-11.9h-2v7.3c0,0.2,0,0.3,0,0.5s0,0.4,0,0.6l-6.3-8
				c-0.1-0.1-0.1-0.2-0.2-0.2c0-0.1-0.1-0.1-0.2-0.1s-0.1,0-0.2,0h-1.3v11.9h1.9v-7.4c0-0.3,0-0.7,0-1l6.2,8
				C85,113.8,85.1,113.9,85.3,114z"/>
			<path id="Path_341" d="M97.2,113.8c0.7-0.3,1.3-0.8,1.8-1.4l-0.9-0.9c-0.1-0.1-0.2-0.2-0.3-0.2c-0.1,0-0.1,0-0.2,0
				s-0.2,0.1-0.2,0.1c-0.2,0.2-0.3,0.3-0.5,0.4s-0.4,0.2-0.6,0.3c-0.3,0.1-0.4,0.2-0.7,0.2s-0.6,0-0.8,0c-0.5,0-1-0.1-1.4-0.3
				c-0.4-0.2-0.8-0.5-1.2-0.8c-0.3-0.3-0.6-0.8-0.8-1.3c-0.2-0.6-0.3-1.2-0.3-1.8c0-0.6,0.1-1.2,0.3-1.8c0.2-0.5,0.4-0.9,0.8-1.3
				c0.3-0.3,0.7-0.7,1.2-0.8c0.5-0.2,1-0.3,1.5-0.2c0.3,0,0.6,0,0.8,0.1c0.3,0,0.4,0.1,0.7,0.2l0.5,0.3l0.3,0.3l0.3,0.2
				c0.1,0.1,0.2,0.1,0.3,0.1c0.1,0,0.2,0,0.3-0.1c0.1-0.1,0.1-0.1,0.2-0.2l0.8-1c-0.5-0.5-1.1-0.8-1.8-1.1c-0.8-0.3-1.5-0.5-2.4-0.5
				c-0.8,0-1.6,0.2-2.4,0.4c-0.7,0.3-1.3,0.8-1.9,1.3c-0.5,0.6-0.9,1.2-1.2,1.9c-0.3,0.8-0.4,1.6-0.4,2.4s0.2,1.7,0.4,2.4
				c0.3,0.8,0.7,1.3,1.2,1.9c0.5,0.6,1.1,1,1.9,1.3c0.8,0.3,1.6,0.5,2.4,0.4C95.5,114.3,96.4,114.1,97.2,113.8z"/>
			<path id="Path_342" d="M105.2,111.7c0.2-0.6,0.3-1.2,0.3-1.9v-7.7h-2.3v7.8c0,0.4,0,0.8-0.2,1.2c-0.1,0.3-0.2,0.6-0.3,0.8
				c-0.2,0.2-0.3,0.3-0.6,0.4c-0.4,0.2-0.9,0.2-1.4,0.1c-0.1,0-0.3,0-0.3,0s-0.3,0-0.3,0.1s-0.2,0.2-0.2,0.3c0,0.3,0,0.4,0,0.7
				c0,0.3,0,0.4,0,0.7c0.3,0.1,0.6,0.2,0.9,0.2c0.3,0,0.6,0,0.8,0c0.6,0,1.2-0.1,1.7-0.3c0.4-0.3,0.8-0.5,1.1-0.9
				C104.7,112.7,105,112.2,105.2,111.7z"/>
			<path id="Path_343" d="M115.2,113.6c0.1,0.2,0.2,0.3,0.3,0.3c0.2,0.1,0.3,0.2,0.5,0.2h1.8l-4.7-11.9h-2.3l-4.7,11.9h1.7
				c0.2,0,0.3-0.1,0.5-0.2c0.1-0.1,0.2-0.3,0.3-0.3l0.9-2.4h5L115.2,113.6z M110,109.6l1.4-4c0-0.2,0.2-0.4,0.3-0.7
				c0.1-0.3,0.2-0.5,0.3-0.8c0.1,0.3,0.2,0.5,0.3,0.8c0.1,0.3,0.2,0.4,0.3,0.7l1.4,4H110z"/>
			<path id="Path_344" d="M20,123.7c0,0.1,0,0.3,0,0.4s0,0.3,0,0.4l-4.7-6.1c0-0.1-0.1-0.1-0.2-0.2c0-0.1-0.1-0.1-0.2-0.1l0,0h-1v9
				h1.4v-5.6c0-0.3,0-0.5,0-0.8l4.7,6c0.1,0.1,0.2,0.2,0.3,0.3c0.1,0,0.3,0,0.3,0h0.8v-8.9H20C20,118.2,20,123.7,20,123.7z"/>
			<path id="Path_345" d="M26,118.2l-3.5,9h1.3c0.2,0,0.3,0,0.3-0.1s0.2-0.2,0.2-0.3l0.7-1.9h3.8l0.7,1.9c0.1,0.1,0.1,0.2,0.2,0.3
				s0.3,0.1,0.3,0.1h1.3l-3.5-9H26z M25.4,123.9l1.1-3c0.1-0.2,0.1-0.3,0.2-0.5c0.1-0.2,0.1-0.4,0.2-0.6c0,0.2,0.1,0.4,0.2,0.6
				s0.1,0.3,0.2,0.5l1.1,3H25.4z"/>
			<path id="Path_346" d="M39.9,122.8c-0.2-0.2-0.4-0.3-0.7-0.4s-0.5-0.3-0.8-0.3l-0.8-0.3c-0.3-0.1-0.4-0.2-0.7-0.3
				c-0.2-0.1-0.3-0.2-0.5-0.3c-0.1-0.2-0.2-0.3-0.2-0.5s0-0.3,0.1-0.5c0.1-0.2,0.2-0.3,0.3-0.3c0.2-0.1,0.3-0.2,0.4-0.3
				c0.4-0.2,0.8-0.2,1.3,0c0.2,0.1,0.3,0.1,0.5,0.2l0.3,0.3c0.1,0.1,0.2,0.1,0.3,0.1s0.2,0,0.2,0c0.1-0.1,0.1-0.1,0.2-0.2l0.4-0.8
				c-0.3-0.3-0.8-0.6-1.2-0.7c-0.5-0.2-1-0.3-1.4-0.3s-0.9,0.1-1.3,0.3c-0.3,0.2-0.7,0.3-0.9,0.6c-0.8,0.8-1,1.9-0.6,2.9
				c0.1,0.3,0.3,0.5,0.5,0.7c0.2,0.2,0.4,0.3,0.7,0.4s0.5,0.3,0.8,0.3l0.8,0.3c0.3,0.1,0.4,0.2,0.7,0.3c0.2,0.1,0.3,0.3,0.5,0.3
				c0.1,0.2,0.2,0.3,0.2,0.6c0,0.3-0.2,0.8-0.4,1c-0.3,0.3-0.8,0.3-1.1,0.3c-0.3,0-0.5,0-0.8-0.2c-0.2-0.1-0.4-0.2-0.6-0.3l-0.4-0.3
				c-0.1-0.1-0.3-0.1-0.3-0.2c-0.1,0-0.2,0-0.3,0c-0.1,0-0.1,0.1-0.2,0.2l-0.5,0.8c0.2,0.2,0.4,0.3,0.6,0.5c0.3,0.2,0.5,0.3,0.8,0.3
				s0.5,0.2,0.8,0.3c0.3,0.1,0.6,0.1,0.9,0.1c0.4,0,0.9-0.1,1.3-0.3c0.3-0.2,0.7-0.3,1-0.6c0.3-0.3,0.5-0.6,0.6-0.9
				c0.2-0.3,0.3-0.8,0.2-1.2c0-0.3-0.1-0.7-0.2-0.9C40.3,123.3,40.1,123,39.9,122.8z"/>
			<path id="Path_347" d="M38.4,115.6c-0.1,0-0.1,0-0.2,0.1c-0.1,0-0.1,0.1-0.2,0.2l-1.3,1.7h1.1c0.1,0,0.2,0,0.3,0s0.2-0.1,0.3-0.2
				l2-1.8H38.4C38.5,115.6,38.5,115.6,38.4,115.6z"/>
			<path id="Path_348" d="M48.2,125.1H48l-0.2,0.1c-0.1,0.1-0.3,0.3-0.4,0.3c-0.2,0.1-0.3,0.2-0.4,0.2c-0.2,0.1-0.3,0.1-0.5,0.1
				c-0.2,0-0.4,0-0.6,0c-0.3,0-0.8-0.1-1.1-0.2c-0.3-0.2-0.6-0.3-0.8-0.6c-0.3-0.3-0.4-0.7-0.6-1c-0.2-0.4-0.3-0.8-0.2-1.3
				c0-0.4,0.1-0.8,0.2-1.3c0.1-0.3,0.3-0.7,0.6-1c0.3-0.3,0.5-0.5,0.8-0.6c0.3-0.2,0.8-0.3,1.1-0.3c0.3,0,0.4,0,0.7,0l0.5,0.2
				c0.2,0.1,0.3,0.1,0.3,0.2l0.3,0.2l0.3,0.2c0.1,0,0.2,0,0.2,0c0.1,0,0.2,0,0.2,0c0.1,0,0.1-0.1,0.2-0.2l0.6-0.8
				c-0.4-0.3-0.8-0.7-1.3-0.8c-0.6-0.3-1.2-0.3-1.8-0.3s-1.3,0.1-1.8,0.3c-0.6,0.3-1.1,0.6-1.5,1c-0.4,0.4-0.7,0.9-0.9,1.4
				c-0.3,0.6-0.3,1.3-0.3,1.9s0.1,1.3,0.3,1.9c0.2,0.6,0.5,1,0.9,1.4c0.4,0.4,0.8,0.8,1.3,0.9c0.6,0.3,1.2,0.3,1.8,0.3
				c0.7,0,1.3-0.1,1.9-0.3c0.5-0.3,0.9-0.6,1.3-1l-0.7-0.8C48.3,125.2,48.3,125.1,48.2,125.1z"/>
			<rect id="Rectangle_140" x="50.1" y="118.2" width="1.7" height="9"/>
			<path id="Path_349" d="M53.8,127.2h5.7V126h-4v-2.6h3.2v-1.3h-3.2v-2.5h4v-1.3h-5.7V127.2z"/>
			<path id="Path_350" d="M65.4,123.6c-0.1-0.1-0.2-0.2-0.3-0.3c0.3-0.1,0.6-0.3,0.8-0.4c0.3-0.2,0.4-0.3,0.7-0.6
				c0.2-0.3,0.3-0.5,0.3-0.8c0.1-0.3,0.2-0.6,0.2-0.8c0-0.3-0.1-0.8-0.2-1.1c-0.2-0.3-0.3-0.6-0.6-0.8c-0.3-0.3-0.7-0.4-1.1-0.5
				c-0.5-0.2-1-0.2-1.6-0.2h-2.8v9h1.7v-3.5h0.8c0.2,0,0.3,0,0.3,0.1c0.1,0.1,0.2,0.2,0.3,0.3l1.9,2.9c0.1,0.3,0.3,0.3,0.6,0.3H68
				l-2.2-3.4C65.7,123.8,65.6,123.7,65.4,123.6z M64.5,122.4c-0.3,0.1-0.6,0.1-0.8,0.1h-1v-2.9h1.1c0.5,0,1,0.1,1.4,0.3
				c0.3,0.3,0.5,0.7,0.4,1.1c0,0.3,0,0.4-0.1,0.7c-0.1,0.2-0.2,0.3-0.3,0.5C64.9,122.3,64.7,122.3,64.5,122.4L64.5,122.4z"/>
			<path id="Path_351" d="M71.9,118.2l-3.5,9h1.3c0.2,0,0.3,0,0.3-0.1s0.2-0.2,0.2-0.3l0.7-1.9h3.7l0.7,1.9c0.1,0.1,0.1,0.2,0.2,0.3
				s0.3,0.1,0.3,0.1H77l-3.3-9H71.9z M71.3,123.9l1.1-3c0-0.2,0.1-0.3,0.2-0.5s0.1-0.4,0.2-0.6c0,0.2,0.1,0.4,0.2,0.6
				s0.1,0.3,0.2,0.5l1.1,3H71.3z"/>
			<path id="Path_352" d="M79.8,118.2h-1.7v9h5.3v-1.4h-3.6V118.2z"/>
			<path id="Path_353" d="M90.6,123.7c0,0.1,0,0.3,0,0.4v0.4l-4.7-6.1c0-0.1-0.1-0.1-0.2-0.2l-0.2-0.1h-0.2h-1.1v9h1.6v-5.6
				c0-0.3,0-0.5,0-0.8l4.7,6c0.1,0.1,0.2,0.2,0.3,0.3c0.1,0,0.3,0,0.3,0H92v-8.9h-1.5L90.6,123.7L90.6,123.7z"/>
			<path id="Path_354" d="M102.1,120.4c-0.3-0.7-0.9-1.3-1.6-1.6c-0.3-0.2-0.8-0.3-1.1-0.4c-0.4-0.1-0.8-0.2-1.3-0.2
				c-0.7,0-1.3,0.1-1.9,0.3c-0.5,0.3-1,0.6-1.4,0.9c-0.4,0.4-0.7,0.9-0.9,1.4c-0.4,1.2-0.4,2.5,0,3.7c0.4,1.1,1.3,2,2.4,2.4
				c1.2,0.4,2.5,0.4,3.8,0c0.5-0.2,1-0.5,1.4-0.9s0.8-0.9,0.9-1.4c0.3-0.6,0.3-1.2,0.3-1.9c0-0.4,0-0.8-0.2-1.3
				C102.5,121.1,102.3,120.7,102.1,120.4z M100.8,124.1c-0.1,0.3-0.3,0.7-0.6,1c-0.3,0.3-0.6,0.5-0.9,0.6c-0.8,0.3-1.6,0.3-2.4,0
				c-0.3-0.2-0.7-0.3-0.9-0.6c-0.3-0.3-0.4-0.7-0.6-1c-0.3-0.8-0.3-1.8,0-2.6c0.2-0.3,0.3-0.7,0.6-1c0.3-0.3,0.6-0.5,0.9-0.6
				c0.8-0.3,1.6-0.3,2.4,0c0.3,0.2,0.7,0.3,0.9,0.6c0.3,0.3,0.4,0.7,0.6,1C101,122.3,101,123.2,100.8,124.1L100.8,124.1z"/>
			<path id="Path_355" d="M108.8,122.8c-0.2-0.2-0.4-0.3-0.7-0.4s-0.5-0.3-0.8-0.3l-0.8-0.3c-0.3-0.1-0.4-0.2-0.7-0.3
				c-0.2-0.1-0.3-0.2-0.5-0.3c-0.1-0.2-0.2-0.3-0.2-0.5s0-0.3,0.1-0.5s0.2-0.3,0.3-0.3c0.2-0.1,0.3-0.2,0.4-0.3
				c0.2-0.1,0.4-0.1,0.6-0.1c0.3,0,0.4,0,0.7,0.1c0.2,0.1,0.3,0.1,0.5,0.2l0.3,0.3c0.1,0.1,0.2,0.1,0.3,0.1c0.1,0,0.2,0,0.2,0
				c0.1-0.1,0.1-0.1,0.2-0.2l0.4-0.8c-0.3-0.3-0.8-0.6-1.2-0.7c-0.5-0.2-1-0.3-1.4-0.3s-0.9,0.1-1.3,0.3s-0.7,0.3-0.9,0.6
				c-0.5,0.5-0.8,1.1-0.8,1.8c0,0.3,0.1,0.7,0.2,1c0.1,0.3,0.3,0.5,0.5,0.7c0.2,0.2,0.4,0.3,0.7,0.4s0.5,0.3,0.8,0.3l0.8,0.3
				c0.3,0.1,0.4,0.2,0.7,0.3c0.2,0.1,0.3,0.3,0.5,0.3c0.1,0.2,0.2,0.3,0.2,0.6c0,0.3-0.1,0.8-0.4,1c-0.3,0.3-0.8,0.3-1.1,0.3
				c-0.3,0-0.5,0-0.8-0.2c-0.2-0.1-0.4-0.2-0.6-0.3c-0.2-0.1-0.3-0.2-0.4-0.3c-0.1-0.1-0.3-0.1-0.3-0.2c-0.1,0-0.2,0-0.3,0
				s-0.1,0.1-0.2,0.2l-0.5,0.8c0.2,0.2,0.4,0.3,0.6,0.5c0.3,0.2,0.5,0.3,0.8,0.3s0.5,0.2,0.8,0.3c0.3,0.1,0.6,0.1,0.8,0.1
				c0.4,0,0.9-0.1,1.3-0.3c0.3-0.2,0.7-0.3,1-0.6c0.3-0.3,0.5-0.6,0.6-0.9c0.2-0.3,0.3-0.8,0.2-1.2c0-0.3,0-0.7-0.2-0.9
				C109.1,123.2,108.9,123,108.8,122.8z"/>
			<path id="Path_356" d="M107.1,117.5c0.1,0,0.2-0.1,0.3-0.2l2-1.8h-1.9h-0.2l-0.2,0.1c-0.1,0-0.1,0.1-0.2,0.2l-1.3,1.7
				C105.7,117.5,107.1,117.5,107.1,117.5z"/>
			<path id="Path_357" d="M117.3,125.2c-0.1-0.1-0.2-0.1-0.3-0.1c-0.1,0-0.1,0-0.2,0l-0.2,0.1c-0.2,0.1-0.3,0.3-0.4,0.3
				s-0.3,0.2-0.4,0.2l-0.5,0.1c-0.2,0-0.4,0-0.6,0c-0.3,0-0.8-0.1-1.1-0.2c-0.3-0.2-0.6-0.3-0.8-0.6c-0.3-0.3-0.4-0.7-0.6-1
				c-0.2-0.4-0.3-0.8-0.3-1.3c0-0.4,0.1-0.8,0.2-1.3c0.1-0.3,0.3-0.7,0.6-1c0.3-0.3,0.5-0.5,0.8-0.6c0.3-0.2,0.8-0.3,1.1-0.3
				c0.2,0,0.4,0,0.6,0l0.5,0.2c0.2,0.1,0.3,0.1,0.3,0.2l0.3,0.2l0.3,0.2c0.1,0,0.2,0,0.2,0c0.1,0,0.2,0,0.3,0l0.2-0.2l0.6-0.8
				c-0.4-0.3-0.8-0.7-1.3-0.8c-1.2-0.4-2.4-0.4-3.5,0c-0.5,0.2-1,0.5-1.4,0.9s-0.7,0.9-0.9,1.4c-0.3,0.6-0.3,1.3-0.3,1.9
				s0.1,1.3,0.3,1.9c0.3,1.1,1.2,1.9,2.3,2.4c0.6,0.3,1.2,0.3,1.8,0.3c0.7,0,1.3-0.1,1.9-0.3c0.5-0.3,0.9-0.6,1.3-1L117.3,125.2z"/>
			<path id="Path_358" d="M115.6,115.6h-0.2c-0.1,0-0.1,0-0.2,0.1c-0.1,0-0.1,0.1-0.2,0.2l-1.3,1.7h1.1c0.1,0,0.2,0,0.3,0
				c0.1,0,0.2-0.1,0.3-0.2l2-1.8H115.6z"/>
			<path id="Path_359" d="M78.8,47.1c0.5-2.9,1.6-5.6,3-8.2c1-1.8,2.5-3.3,4.4-4.3c1.6-0.8,3.4-1.2,5.1-1.3c1.8,0,3.6,0.4,5.2,1.3
				c1.9,1,3.4,2.4,4.4,4.3c1.4,2.5,2.5,5.3,3.1,8.2c0.3,1.1,0.4,2.3,0.6,3.5h12.6c-0.3-2.4-0.8-4.7-1.4-7c-1.1-4.1-3-8-5.6-11.4
				c-2.2-2.9-5.1-5.2-8.4-6.7c-3.4-1.5-6.9-2.3-10.5-2.3c-3.6,0-7.2,0.8-10.4,2.3c-3.3,1.5-6.1,3.9-8.3,6.7
				c-2.5,3.5-4.5,7.3-5.6,11.4c-0.7,2.3-1.1,4.6-1.4,7h12.6C78.4,49.4,78.6,48.2,78.8,47.1z"/>
			<path id="Path_360" d="M101.8,94.7c3.3-1.5,6.2-3.9,8.4-6.7c2.6-3.5,4.5-7.3,5.6-11.4c0.5-1.7,0.9-3.5,1.2-5.2h-12.6
				c-0.1,0.7-0.3,1.3-0.3,1.9c-0.6,2.9-1.6,5.6-3,8.2c-1,1.8-2.6,3.3-4.4,4.3c-1.6,0.8-3.4,1.3-5.2,1.3c-1.8,0-3.5-0.4-5.1-1.3
				c-1.9-1-3.4-2.4-4.4-4.3c-1.4-2.5-2.4-5.3-3-8.2c-0.2-0.6-0.3-1.2-0.3-1.9H65.9c0.3,1.8,0.7,3.5,1.2,5.2
				c1.1,4.1,2.9,8.1,5.6,11.4c2.2,2.9,5,5.2,8.3,6.7c3.3,1.5,6.8,2.3,10.4,2.2C94.9,96.8,98.5,96.1,101.8,94.7z"/>
			<path id="Path_361" d="M72.6,53.1V69h9.3v-2.4h-6.3V53.1H72.6z"/>
			<path id="Path_362" d="M87.3,68.8c0.2-0.1,0.3-0.3,0.3-0.4l1.2-3.3h6.6l1.2,3.3c0.1,0.2,0.2,0.3,0.3,0.5c0.2,0.2,0.4,0.2,0.7,0.2
				h2.4l-6.2-15.9h-3l-6.2,15.9h2.3C87,69,87.1,68.9,87.3,68.8z M91.6,57.7c0.1-0.3,0.2-0.5,0.3-0.8c0.1-0.3,0.2-0.7,0.3-1.1
				c0.1,0.3,0.2,0.8,0.3,1c0.1,0.3,0.2,0.6,0.3,0.8l2,5.2h-5.1L91.6,57.7z"/>
			<path id="Path_363" d="M107.7,68.9V55.4h4.8V53H99.9v2.4h4.8v13.5H107.7z"/>
		</g>
	</g>
</g>
</svg>
