<?xml version="1.0" encoding="utf-8"?>
<!-- Generator: Adobe Illustrator 24.0.3, SVG Export Plug-In . SVG Version: 6.00 Build 0)  -->
<svg version="1.1" id="Layer_1" xmlns="http://www.w3.org/2000/svg" xmlns:xlink="http://www.w3.org/1999/xlink" x="0px" y="0px"
	 viewBox="0 0 128 128" style="enable-background:new 0 0 128 128;" xml:space="preserve">
<g>
	<polygon points="117.3,94.9 38.8,101.1 38.7,27 117.3,33.2 117.3,28.4 36,21.9 11.1,28.5 11.1,33.2 34.2,27.4 34.2,100.7 
		11.1,94.9 11.1,99.6 36.7,106.2 117.3,99.6 	"/>
	<path d="M73.2,79.3c0.2-0.3,0.5-0.4,0.8-0.6c0.3-0.2,0.7-0.2,1.1-0.3c0.7-0.1,1.4,0.2,1.9,0.7c0.5,0.6,0.7,1.4,0.7,2.2v9.8l3.7-0.3
		v-9.7c0-0.9-0.1-1.6-0.3-2.4c-0.2-0.7-0.6-1.3-1-1.8c-0.4-0.5-1-0.9-1.7-1.1c-1.2-0.4-2.5-0.4-3.7-0.2c-0.5,0.1-0.9,0.3-1.3,0.5
		c-0.4,0.3-0.8,0.5-1.2,1c-0.3,0.4-0.7,0.9-0.9,1.3c-0.2-0.8-0.7-1.6-1.4-2.1c-0.7-0.5-1.5-0.8-2.3-0.8c-0.4,0-0.8,0.1-1.2,0.2
		c-0.4,0.1-0.7,0.3-1.1,0.4c-0.3,0.2-0.7,0.4-0.9,0.7c-0.3,0.3-0.6,0.5-0.8,0.9l-0.2-1.1c-0.1-0.4-0.5-0.7-0.9-0.7h-2.2v15.9
		l3.7-0.2V80.1c0.3-0.4,0.8-0.9,1.2-1.1c0.5-0.3,1-0.4,1.5-0.4c0.7-0.1,1.3,0.2,1.7,0.7c0.5,0.6,0.7,1.5,0.7,2.3v10l3.7-0.2v-9.9
		c0-0.4,0.1-0.9,0.2-1.3C72.7,79.9,73,79.5,73.2,79.3z"/>
	<path d="M98.8,78.2c0.3-0.2,0.7-0.3,1.1-0.3c0.7-0.1,1.3,0.2,1.8,0.7c0.5,0.6,0.7,1.3,0.7,2.1V90l3.7-0.3v-9.3
		c0-0.8-0.1-1.6-0.3-2.3c-0.2-0.6-0.6-1.2-1-1.7c-0.5-0.5-1-0.9-1.7-1c-1.2-0.4-2.5-0.4-3.7-0.2c-0.5,0.1-0.9,0.3-1.3,0.5
		c-0.4,0.3-0.8,0.5-1.2,0.9c-0.3,0.3-0.7,0.8-0.9,1.3c-0.2-0.8-0.7-1.5-1.4-2c-0.7-0.5-1.5-0.8-2.4-0.7c-1.2,0-2.3,0.5-3.2,1.3
		c-0.2,0.3-0.6,0.5-0.8,0.8l-0.2-1.1c-0.2-0.4-0.5-0.7-0.9-0.7h-2.2v15.1l3.7-0.2V79.5c0.3-0.4,0.8-0.8,1.2-1.1
		c0.5-0.3,1-0.4,1.5-0.4c0.7-0.1,1.3,0.2,1.8,0.6c0.4,0.6,0.7,1.4,0.6,2.2v9.5l3.7-0.2v-9.3c0-0.4,0.1-0.9,0.2-1.2
		C97.7,78.9,98.3,78.4,98.8,78.2z"/>
	<path d="M82.5,68.1l10.9-25.5c0.1-0.3,0.2-0.4,0.2-0.8v-3.5c0-0.3-0.2-0.4-0.5-0.4l-18.5-0.3c-0.3,0-0.5,0.2-0.5,0.4v8
		c0,0.3,0.2,0.4,0.5,0.4l4.2,0.1c0.3,0,0.5-0.2,0.5-0.4v-3.5c0-0.2,0.1-0.3,0.3-0.3l8.2,0.2v0L76.9,67.9c-0.2,0.3,0,0.5,0.3,0.5
		l4.6,0.1C82.2,68.5,82.3,68.4,82.5,68.1z"/>
</g>
</svg>
