<?xml version="1.0" encoding="utf-8"?>
<!-- Generator: Adobe Illustrator 24.0.3, SVG Export Plug-In . SVG Version: 6.00 Build 0)  -->
<svg version="1.1" id="Layer_1" xmlns="http://www.w3.org/2000/svg" xmlns:xlink="http://www.w3.org/1999/xlink" x="0px" y="0px"
	 viewBox="0 0 128 128" style="enable-background:new 0 0 128 128;" xml:space="preserve">
<g>
	<path d="M64.1,0.1c-35.3,0-64,28.7-64,64S28.8,128,64,128c35.3,0,63.9-28.7,63.9-63.9C128,28.8,99.3,0.1,64.1,0.1z M64.1,123.2
		C31.5,123.2,5,96.7,5,64.1S31.5,5,64.1,5s59.1,26.5,59.1,59.1S96.7,123.2,64.1,123.2z"/>
	<path d="M76.5,89.8c-0.3-0.5-0.6-0.9-0.9-1.3c-0.4-0.4-0.7-0.8-1.2-1.1c-0.2-0.2-0.4-0.3-0.7-0.5c-0.9-0.6-2-1.2-3.3-1.6
		c0.5-0.2,1-0.4,1.5-0.6s0.9-0.5,1.3-0.8s0.8-0.6,1.2-0.9c0.4-0.3,0.7-0.7,1-1.1s0.5-0.8,0.7-1.3s0.4-1,0.5-1.5s0.3-1.1,0.3-1.8
		c0.1-0.6,0.1-1.3,0.1-2c0-0.4,0-0.7-0.1-1.1c0-0.1,0-0.1,0-0.2c-0.1-0.7-0.2-1.4-0.4-2.1c-0.1-0.4-0.3-0.7-0.4-1.1s-0.3-0.7-0.5-1
		c-0.6-1-1.3-1.9-2.2-2.7c-1.2-1.1-2.7-1.9-4.4-2.6c-0.5-0.2-1.1-0.3-1.6-0.5c-1.3-0.3-2.8-0.5-4.3-0.5c-1.6,0-3,0.2-4.4,0.5
		c-0.5,0.1-0.9,0.2-1.4,0.4c-0.5,0.1-0.9,0.3-1.3,0.5c-1.3,0.5-2.4,1.2-3.5,2c-1.4,1.1-2.6,2.5-3.5,4.2c-0.2,0.4-0.5,0.9-0.7,1.3
		c-0.4,0.9-0.7,1.9-1,3c-0.1,0.5-0.2,1.1-0.3,1.6l0,0l0,0l5.1,0.9l0,0c0.3,0,0.6,0.1,0.8,0.1c0.1,0,0.1,0,0.2,0c0.1,0,0.2,0,0.2,0
		c0.1,0,0.1,0,0.2,0c0.2,0,0.4,0,0.6-0.1c0.1,0,0.2,0,0.2,0c0.3-0.1,0.5-0.1,0.7-0.2c0.7-0.4,1.3-1.1,1.7-2.3c0.4-1.1,1-2.1,2-2.8
		c0.2-0.2,0.5-0.4,0.8-0.5c0.8-0.4,1.8-0.6,2.8-0.6c0.9,0,1.7,0.1,2.3,0.4c0.7,0.2,1.2,0.6,1.6,1.1c0.9,1,1.3,2.3,1.3,4.1
		c0,0.9-0.1,1.7-0.3,2.4c-0.2,0.5-0.4,1-0.8,1.5c-0.1,0.1-0.3,0.3-0.4,0.4c-0.3,0.3-0.7,0.5-1.1,0.7c-0.2,0.1-0.5,0.2-0.7,0.3
		c-0.3,0.1-0.5,0.2-0.8,0.2c-0.9,0.2-1.9,0.4-3.2,0.4c-0.4,0-0.9,0-1.3,0v6.7c0.6,0,1.1,0,1.6,0c1.5,0.1,2.7,0.2,3.7,0.4
		c0.3,0.1,0.6,0.2,0.9,0.2c0.8,0.3,1.5,0.6,1.9,1c0.6,0.6,1,1.2,1.1,2s0.2,1.7,0.2,2.6c0,0.7-0.1,1.5-0.4,2.2s-0.7,1.4-1.2,1.9
		c-0.5,0.6-1.2,1-2,1.4c-0.8,0.4-1.7,0.5-2.8,0.5c-1.4,0-2.6-0.4-3.7-1.2c-0.3-0.2-0.5-0.4-0.8-0.7c-0.8-0.8-1.5-1.8-2.2-3.1
		c-0.2-0.4-0.5-0.7-0.8-0.9c-0.2-0.1-0.4-0.2-0.6-0.3c-0.2-0.1-0.4-0.2-0.7-0.2l0,0c-0.3-0.1-0.6-0.1-0.9-0.1h-0.1
		c-0.1,0-0.1,0-0.2,0c-0.2,0-0.5,0-0.7,0.1c-0.1,0-0.2,0-0.3,0.1c-0.3,0.1-0.7,0.2-1,0.3l-4.3,1.7c0.2,0.5,0.4,1,0.6,1.5
		c0.6,1.5,1.3,2.8,2,3.9c0.2,0.4,0.5,0.7,0.8,1.1c0.5,0.7,1.1,1.3,1.7,1.9c0.3,0.3,0.6,0.5,1,0.8c1.3,1,2.8,1.7,4.5,2.2
		s3.6,0.7,5.8,0.7c1,0,2-0.1,2.9-0.2c1.1-0.1,2.1-0.4,3.1-0.7c0.6-0.2,1.2-0.4,1.8-0.7c1.2-0.5,2.3-1.2,3.3-2c0.7-0.6,1.4-1.3,2-2
		s1.1-1.6,1.5-2.4c0.7-1.3,1.1-2.8,1.2-4.5c0.1-0.6,0.1-1.1,0.1-1.7C77.9,93.3,77.5,91.4,76.5,89.8z"/>
	<path d="M53.3,60.8c0.8-0.4,1.7-0.7,2.6-1c0.1,0,0.1,0,0.2,0L43.3,28.6h-3.1l-18,43.9h2.4c0.3,0,0.5-0.1,0.7-0.2
		c0.2-0.2,0.4-0.4,0.4-0.6L31,58.9h21.6L53.3,60.8z M31.9,56.5l9-22.2c0.1-0.4,0.3-0.8,0.4-1.2c0.1-0.5,0.3-0.9,0.4-1.4
		c0.3,1,0.6,1.9,0.9,2.6l8.9,22.2H31.9z"/>
	<path d="M91.3,31.5C92.8,32,94,32.4,95,33s1.8,1,2.3,1.5c0.6,0.5,1,0.7,1.2,0.7c0.4,0,0.6-0.1,0.8-0.4l1-1.4c-1.9-1.7-4-3-6.3-3.9
		s-5-1.4-8-1.4c-3.2,0-6,0.6-8.6,1.6c-2.6,1.1-4.8,2.6-6.7,4.6c-1.9,2-3.3,4.4-4.4,7.1c-1,2.8-1.6,5.8-1.6,9.1
		c0,3.1,0.4,5.9,1.3,8.4c1.3,0.2,2.5,0.4,3.7,0.8c-0.1-0.3-0.3-0.6-0.4-0.9c-0.9-2.4-1.3-5.2-1.3-8.3c0-3,0.4-5.8,1.3-8.2
		c0.9-2.5,2.1-4.5,3.7-6.2s3.5-3,5.7-3.9c2.2-0.9,4.6-1.4,7.3-1.4C88.1,30.8,89.9,31,91.3,31.5z"/>
	<path d="M99.3,65.1c-0.1,0-0.2,0-0.3,0.1c-0.1,0.1-0.2,0.1-0.3,0.2c-0.9,0.8-1.7,1.5-2.6,2.1s-1.8,1.1-2.9,1.5
		c-1,0.4-2.2,0.7-3.4,0.9c-1.2,0.2-2.6,0.3-4.2,0.3c-1.7,0-3.3-0.2-4.8-0.6c0.4,1,0.6,2,0.8,3c1.2,0.2,2.5,0.3,3.8,0.3
		c1.8,0,3.5-0.2,5-0.5s2.9-0.7,4.2-1.3c1.3-0.6,2.4-1.2,3.5-2s2.1-1.6,3-2.6l-1.2-1.3C99.7,65.2,99.5,65.1,99.3,65.1z"/>
</g>
</svg>
