<?xml version="1.0" encoding="utf-8"?>
<!-- Generator: Adobe Illustrator 24.1.3, SVG Export Plug-In . SVG Version: 6.00 Build 0)  -->
<svg version="1.1" id="Layer_1" xmlns="http://www.w3.org/2000/svg" xmlns:xlink="http://www.w3.org/1999/xlink" x="0px" y="0px"
	 viewBox="0 0 128 128" style="enable-background:new 0 0 128 128;" xml:space="preserve">
<style type="text/css">
	.st0{fill:#1D1D1B;}
</style>
<g>
	<path class="st0" d="M53.3,60.8h3.2L43.3,28.5h-3.1l-18,44h2.4c0.3,0,0.5-0.1,0.7-0.3c0.2-0.1,0.4-0.3,0.4-0.6l5.2-12.8h21.6
		L53.3,60.8z M31.9,56.4l9-22.1c0.1-0.3,0.3-0.8,0.4-1.2c0.2-0.5,0.3-0.9,0.4-1.4c0.2,0.9,0.5,1.8,0.9,2.6l8.9,22.2L31.9,56.4z"/>
	<path class="st0" d="M99.4,65.1h-0.3c-0.1,0.1-0.2,0.1-0.3,0.2c-0.8,0.8-1.7,1.5-2.6,2.1c-0.9,0.6-1.9,1.1-2.9,1.5
		c-1.1,0.4-2.2,0.7-3.4,0.9c-1.4,0.2-2.8,0.3-4.2,0.3c-2.4,0-4.7-0.4-6.9-1.4c-0.1,0.6-0.2,1.3-0.4,1.9c-0.1,0.3-0.3,0.6-0.4,0.9
		c2.4,0.9,5,1.3,7.6,1.3c1.7,0,3.4-0.2,5.1-0.5c1.4-0.3,2.9-0.7,4.2-1.3c1.2-0.5,2.4-1.2,3.5-2c1-0.8,2-1.6,2.8-2.6l-1.2-1.3
		C99.8,65.1,99.6,65,99.4,65.1z"/>
	<path class="st0" d="M66.8,60.8h3.5c-0.3-0.7-0.7-1.4-0.9-2.1C68.4,56,68,53.2,68,50.4c0-2.8,0.4-5.6,1.3-8.2
		c0.8-2.3,2.1-4.3,3.7-6.1c1.6-1.7,3.5-3.1,5.7-3.9c2.3-0.9,4.8-1.4,7.3-1.4c1.8,0,3.6,0.2,5.3,0.7c1.3,0.4,2.5,0.9,3.7,1.5
		c0.8,0.4,1.6,0.9,2.3,1.5c0.3,0.3,0.7,0.6,1.2,0.7c0.3,0,0.6-0.1,0.8-0.4l1-1.4c-3.9-3.6-9.1-5.5-14.3-5.3c-3,0-5.9,0.5-8.6,1.6
		c-2.5,1-4.8,2.6-6.7,4.6c-1.9,2-3.4,4.4-4.3,6.9c-1.1,2.9-1.6,6-1.5,9.1c0,3.2,0.5,6.3,1.5,9.3C66.4,60,66.6,60.4,66.8,60.8z"/>
	<path class="st0" d="M64,0C28.7,0,0,28.7,0,64s28.6,64,64,64s64-28.7,64-64S99.3,0,64,0z M64,123.2C31.4,123.2,4.9,96.6,4.9,64
		S31.4,4.8,64,4.8c32.7,0,59.2,26.6,59.2,59.2S96.6,123.2,64,123.2z"/>
	<path class="st0" d="M70.5,64h-7.7L41,92.7l0.7,3.7c0,0.3,0.2,0.6,0.3,0.9c0.2,0.3,0.4,0.5,0.6,0.7c0.2,0.2,0.5,0.3,0.8,0.4
		c0.3,0.1,0.5,0.2,0.8,0.2h19.2v11.3h7.1V98.5h4.3c0.5,0,1.1-0.2,1.5-0.5c0.4-0.4,0.6-0.9,0.6-1.4v-4.3h-6.3L70.5,64z M63.5,75.8
		c-0.1,0.8-0.1,1.6-0.1,2.4v14.2H49.6l14.2-19.1C63.7,74,63.5,74.9,63.5,75.8z"/>
</g>
</svg>
