<?xml version="1.0" encoding="utf-8"?>
<!-- Generator: Adobe Illustrator 24.1.3, SVG Export Plug-In . SVG Version: 6.00 Build 0)  -->
<svg version="1.1" id="Layer_1" xmlns="http://www.w3.org/2000/svg" xmlns:xlink="http://www.w3.org/1999/xlink" x="0px" y="0px"
	 viewBox="0 0 128 128" style="enable-background:new 0 0 128 128;" xml:space="preserve">
<style type="text/css">
	.st0{fill:#1D1D1B;}
</style>
<g id="ac5">
	<path class="st0" d="M53.4,60.9h3.2L43.3,28.4h-3.2l-18,44h2.4c0.3,0,0.5-0.1,0.7-0.2c0.2-0.2,0.3-0.4,0.4-0.6l5.2-12.8h21.6
		L53.4,60.9z M31.8,56.5l9-22.2c0.1-0.3,0.3-0.8,0.4-1.2l0.4-1.4c0.2,0.9,0.5,1.8,0.9,2.6l9,22.3H31.8z"/>
	<path class="st0" d="M66.7,61L66.7,61l3.4-0.1c-0.3-0.7-0.7-1.4-0.9-2.1c-0.9-2.7-1.4-5.5-1.3-8.3c0-2.8,0.4-5.6,1.3-8.2
		c0.8-2.3,2.1-4.4,3.7-6.2c1.6-1.7,3.5-3,5.7-3.9c2.3-0.9,4.8-1.4,7.3-1.4c1.8,0,3.6,0.2,5.3,0.7c1.3,0.4,2.5,0.9,3.7,1.5
		c0.8,0.4,1.6,0.9,2.3,1.5c0.3,0.3,0.7,0.6,1.2,0.7c0.3,0,0.6-0.1,0.8-0.4l1-1.4c-1.9-1.7-4-3-6.3-4c-2.5-1-5.3-1.4-8-1.4
		c-3,0-5.9,0.6-8.6,1.7c-2.5,1-4.8,2.6-6.7,4.6c-1.9,2.1-3.4,4.5-4.4,7.2c-1.1,2.9-1.6,6-1.6,9.1c0,3.2,0.5,6.3,1.5,9.3
		C66.4,60.2,66.5,60.6,66.7,61z"/>
	<path class="st0" d="M99.2,64.9L99.2,64.9L99,65l-0.3,0.2C97.9,66,97,66.7,96,67.3c-0.9,0.6-1.9,1.1-2.9,1.5
		c-1.1,0.4-2.3,0.7-3.4,0.9c-1.4,0.2-2.8,0.3-4.2,0.3c-2.4,0-4.7-0.4-6.9-1.3c-0.1,0.6-0.2,1.3-0.4,1.9c-0.1,0.3-0.3,0.6-0.4,0.9
		c2.4,0.9,5,1.3,7.6,1.3c1.7,0,3.4-0.1,5-0.5c1.4-0.3,2.9-0.7,4.2-1.3c1.2-0.5,2.4-1.2,3.4-2c1.1-0.8,2.1-1.7,3-2.6l-1.3-1.3
		C99.6,65,99.4,64.9,99.2,64.9z"/>
	<path class="st0" d="M73.6,83.4L73.6,83.4c-1.3-1.4-2.9-2.4-4.6-3c-2-0.8-4.1-1.2-6.3-1.2c-0.8,0-1.5,0-2.3,0.1
		c-0.8,0.1-1.6,0.2-2.5,0.3l1.3-7.5h10.8c0.9,0,1.8-0.1,2.6-0.3c0.6-0.2,1.2-0.5,1.7-0.9c0.4-0.4,0.8-0.9,1-1.4
		c0.2-0.5,0.3-1.1,0.3-1.7v-4H52.5l-3.8,22.7l6,1.7c1.9-0.8,3.9-1.2,6-1.2c1.9-0.1,3.8,0.5,5.3,1.7c1.3,1.3,2,3.2,1.9,5
		c0,1.1-0.1,2.1-0.4,3.2c-0.2,0.9-0.7,1.8-1.2,2.6c-0.6,0.7-1.4,1.3-2.2,1.7c-1,0.5-2.2,0.7-3.3,0.6c-1.1,0-2.2-0.1-3.2-0.5
		c-0.8-0.3-1.5-0.7-2.2-1.2l-1.7-1.1c-0.5-0.3-1.1-0.5-1.7-0.5c-1,0-2,0.5-2.6,1.3l-3,4c0.8,0.8,1.7,1.6,2.7,2.2
		c2.1,1.5,4.5,2.5,7,3.1c1.4,0.3,2.8,0.5,4.2,0.5c2.4,0,4.8-0.4,7-1.2c2-0.8,3.9-1.9,5.5-3.4c1.5-1.5,2.8-3.2,3.6-5.2
		c0.9-2.1,1.3-4.4,1.3-6.6c0-1.8-0.3-3.7-1-5.4C75.9,86.2,74.9,84.7,73.6,83.4z"/>
	<path class="st0" d="M64,0C28.7,0,0,28.7,0,64s28.7,64,64,64s64-28.7,64-64c0,0,0,0,0,0C128,28.7,99.3,0,64,0z M64,123.2
		C31.3,123.2,4.8,96.7,4.8,64S31.3,4.8,64,4.8s59.2,26.5,59.2,59.2C123.2,96.7,96.7,123.1,64,123.2z"/>
</g>
</svg>
