<?xml version="1.0" encoding="utf-8"?>
<!-- Generator: Adobe Illustrator 24.1.3, SVG Export Plug-In . SVG Version: 6.00 Build 0)  -->
<svg version="1.1" id="Layer_1" xmlns="http://www.w3.org/2000/svg" xmlns:xlink="http://www.w3.org/1999/xlink" x="0px" y="0px"
	 viewBox="0 0 128 128" style="enable-background:new 0 0 128 128;" xml:space="preserve">
<style type="text/css">
	.st0{fill:#1D1D1B;}
</style>
<g id="ac6">
	<path class="st0" d="M60.9,81c-1,0-1.9,0.1-2.8,0.4L58,81.3l9.7-17.8c0.2-0.4,0.1-0.7-0.5-0.7h-8.5c-0.5,0-0.6,0.1-0.8,0.5
		L46.6,83.8v0c-2.1,3.4-3.3,7.4-3.4,11.4c0,9.1,6.7,14.5,15.5,14.5s15.5-5.3,15.5-14.7C74.2,86.5,68.2,81,60.9,81z M64.8,95.3
		c0,0.2,0,0.4,0,0.7c-0.1,3.3-2.9,5.8-6.1,5.7h-0.6c0,0,0,0,0,0c-3.2-0.3-5.7-3.1-5.4-6.3c0-0.2,0-0.5,0-0.7c0,0,0,0,0,0
		c0.1-3.3,2.8-5.8,6.1-5.7c0.2,0,0.5,0,0.7,0C62.8,89.2,65.1,92.1,64.8,95.3z"/>
	<path class="st0" d="M64,0C28.7,0,0,28.7,0,64c0,35.3,28.7,64,64,64s64-28.7,64-64C128,28.7,99.3,0,64,0z M64,123.2
		C31.3,123.2,4.8,96.7,4.8,64S31.3,4.8,64,4.8s59.2,26.5,59.2,59.2c0,0,0,0,0,0C123.2,96.7,96.7,123.1,64,123.2z"/>
	<path class="st0" d="M53.1,61c0.5-1,1.3-1.9,2.3-2.5L43,28.1h-3.3L21.6,72.5H24c0.3,0,0.5-0.1,0.7-0.2c0.2-0.2,0.4-0.4,0.4-0.6
		l5.2-12.9h21.8L53.1,61z M31.4,56.3L40.5,34c0.1-0.4,0.3-0.8,0.4-1.2s0.3-0.9,0.4-1.4c0.2,0.5,0.3,1,0.4,1.4s0.3,0.8,0.4,1.2
		l9.1,22.4H31.4z"/>
	<path class="st0" d="M67.2,57.6c0.6,0,1.1,0.1,1.6,0.2c-0.8-2.4-1.1-5-1.1-7.6c0-2.8,0.4-5.6,1.4-8.3c0.8-2.3,2.1-4.5,3.8-6.3
		c1.7-1.7,3.7-3,5.9-3.9c2.4-1,4.9-1.4,7.4-1.4c1.3,0,2.6,0.1,3.9,0.3c1,0.2,2.1,0.5,3,0.8c0.8,0.3,1.5,0.6,2.3,1.1
		c0.6,0.4,1.2,0.7,1.6,1.1l1.1,0.8c0.2,0.2,0.4,0.3,0.7,0.3c0.3,0,0.6-0.1,0.8-0.4l1-1.4c-0.9-0.8-2-1.6-3-2.3
		c-1-0.7-2.1-1.3-3.3-1.8c-1.2-0.5-2.5-0.8-3.7-1c-1.5-0.3-2.9-0.4-4.4-0.4c-3,0-6,0.5-8.8,1.6c-2.6,1-4.9,2.6-6.9,4.6
		c-1.9,2-3.5,4.4-4.5,7.1c-1.1,2.9-1.6,6.1-1.6,9.2c0,2.5,0.3,5,1,7.4H67.2z"/>
	<path class="st0" d="M99.4,65c-0.1,0-0.2,0-0.3,0l-0.3,0.2c-0.8,0.8-1.7,1.5-2.7,2.1c-0.9,0.6-1.9,1.1-2.9,1.5
		c-1.1,0.4-2.3,0.8-3.4,1c-1.4,0.2-2.8,0.3-4.3,0.3c-2.4,0-4.8-0.4-7.1-1.4c-2.1-0.9-4-2.2-5.6-3.9l-0.1-0.1
		c-0.1,0.4-0.3,0.8-0.4,1.2l-0.9,1.8c1.6,1.5,3.5,2.7,5.5,3.6c2.7,1.1,5.6,1.6,8.5,1.6c1.7,0,3.4-0.1,5.1-0.4
		c1.4-0.3,2.9-0.7,4.2-1.3c1.3-0.5,2.4-1.2,3.5-2c1.1-0.8,2.1-1.7,3-2.7l-1.2-1.3C99.8,65.1,99.6,65,99.4,65z"/>
</g>
</svg>
