<?xml version="1.0" encoding="utf-8"?>
<!-- Generator: Adobe Illustrator 24.1.3, SVG Export Plug-In . SVG Version: 6.00 Build 0)  -->
<svg version="1.1" id="Layer_1" xmlns="http://www.w3.org/2000/svg" xmlns:xlink="http://www.w3.org/1999/xlink" x="0px" y="0px"
	 viewBox="0 0 128 128" style="enable-background:new 0 0 128 128;" xml:space="preserve">
<style type="text/css">
	.st0{fill:#1D1D1B;}
</style>
<g id="aqua">
	<path class="st0" d="M105.3,61.1L65.1,0.6C64.9,0.2,64.4,0,64,0c-0.4,0-0.9,0.2-1.1,0.6h0l-30.7,46c3.3-2.9,7.2-5.2,11.5-6.6
		c9.4-3.4,19.6-3.8,29.2-1.1c6.6,1.8,12.6,5,17.8,9.4l2-3.9l4.9,15.1l-14.5-7.2l3.7-1.1c-4.5-3.7-9.7-6.3-15.3-7.9
		C52.1,38,31.2,47.2,20.8,65c-2.3,5.5-3.5,11.3-3.5,17.2c0,25.2,20.9,45.8,46.6,45.8c25.7,0,46.6-20.5,46.6-45.8
		C110.6,74.9,108.8,67.6,105.3,61.1z M75.9,54.9c0-0.2,0.1-0.3,0.3-0.3h4.2c0.2,0,0.3,0.1,0.3,0.3v7.8c1.1-1.3,2.7-2,4.4-1.9
		c3.7,0,5.7,2.5,5.7,6.1v10.4c0,0.2-0.1,0.3-0.3,0.3c0,0,0,0,0,0h-4.1c-0.2,0-0.3-0.1-0.3-0.3v-9.5c0-1.8-0.9-3-2.6-3
		c-1.4,0-2.6,1.1-2.7,2.5c0,0.1,0,0.3,0,0.4v9.5c0,0.2-0.1,0.3-0.3,0.3h-4.2c-0.2,0-0.3-0.1-0.3-0.3c0,0,0,0,0,0V54.9z M37.3,74.1
		c0-0.2,0.1-0.4,0.2-0.5l8.3-9.7c0.9-0.8,1.4-2,1.4-3.2c0.1-1.3-0.9-2.5-2.2-2.7c0,0,0,0,0,0h-0.3c-1.5-0.1-2.7,1.1-2.8,2.6v0.2
		c0,0.2-0.1,0.3-0.4,0.3l-3.8-0.6c-0.2,0-0.3-0.2-0.3-0.4c0,0,0,0,0,0c0.2-3.2,2.9-6,7.4-6c4.6,0,7.3,2.9,7.3,6.6
		c-0.1,2.1-0.9,4.1-2.4,5.6l-6.2,7.2h8.3c0.2,0,0.3,0.1,0.3,0.3v3.4c0,0.2-0.1,0.3-0.3,0.3H37.6c-0.2,0-0.3-0.1-0.3-0.3V74.1z
		 M48.2,101.5c0,0.1,0,0.2-0.1,0.3l-8,12.1h7.9c0.1,0,0.2,0.1,0.2,0.2c0,0,0,0,0,0v1.5c0,0.1-0.1,0.2-0.2,0.2c0,0,0,0,0,0H37.9v0
		c-0.1,0-0.2-0.1-0.3-0.2v-1.5c0-0.1,0-0.2,0.1-0.3l8-12.1h-7.6c-0.1,0-0.2-0.1-0.3-0.2V100c0-0.1,0.1-0.2,0.2-0.2H48
		c0.1,0,0.2,0.1,0.2,0.2c0,0,0,0,0,0V101.5z M50,96.1h-2.8c-0.1,0-0.3-0.1-0.3-0.2l-0.8-2.5h-5.1l-0.9,2.5c0,0.1-0.1,0.2-0.3,0.2H37
		c-0.2,0-0.2-0.1-0.2-0.2l5-14c0-0.1,0.1-0.2,0.3-0.2h2.8c0.1,0,0.2,0.1,0.3,0.2l5,14C50.1,96,50.1,96.1,50,96.1z M61.8,101.5
		c0,0.1-0.1,0.2-0.2,0.2c0,0,0,0,0,0h-7.9c-0.1,0-0.1,0-0.1,0.1c0,0,0,0,0,0v4.8c0,0.1,0.1,0.1,0.1,0.1h6.7c0.1,0,0.2,0.1,0.3,0.2
		v1.5c0,0.1-0.1,0.2-0.2,0.2h-6.7c-0.1,0-0.1,0-0.1,0.1v4.9c0,0.1,0.1,0.1,0.1,0.1h7.8c0.1,0,0.2,0.1,0.3,0.2v1.5
		c0,0.1-0.1,0.2-0.2,0.2h-9.9c-0.1,0-0.2-0.1-0.2-0.2c0,0,0,0,0,0V100c0-0.1,0.1-0.2,0.2-0.2c0,0,0,0,0,0h9.9c0.1,0,0.2,0.1,0.3,0.2
		V101.5z M63.7,95.5C63.7,95.5,63.7,95.5,63.7,95.5L62,97.2c-0.1,0.1-0.2,0.1-0.3,0l-1.5-1.4c-0.9,0.4-1.9,0.7-3,0.7
		c-2.4,0.2-4.6-1.2-5.4-3.5c-0.4-1.3-0.5-2.6-0.4-4c-0.1-1.3,0.1-2.7,0.4-3.9c0.8-2.3,3-3.7,5.4-3.5c2.4-0.2,4.6,1.2,5.4,3.5
		c0.4,1.3,0.5,2.6,0.4,3.9c0.1,1.3,0,2.7-0.4,4c-0.1,0.3-0.2,0.6-0.4,0.9l1.5,1.4C63.8,95.3,63.8,95.4,63.7,95.5z M56.1,74.3
		c-0.2,0-0.3-0.1-0.3-0.3c0,0,0,0,0,0v0v-3.5c0-0.1,0-0.3,0.1-0.4l7.1-15.3c0.1-0.2,0.3-0.3,0.5-0.3h4.5c0.3,0,0.3,0.1,0.3,0.3
		L61,70.1v0.1h4.3c0.1,0,0.2-0.1,0.2-0.1c0,0,0,0,0,0v-5c0-0.2,0.1-0.3,0.3-0.3c0,0,0,0,0,0H70c0.2,0,0.3,0.1,0.3,0.3c0,0,0,0,0,0v5
		c0,0.1,0.1,0.2,0.2,0.2h1.6c0.2,0,0.3,0.1,0.3,0.3V74c0,0.2-0.1,0.4-0.3,0.4c0,0,0,0-0.1,0h-1.6c-0.1,0-0.2,0-0.2,0.1c0,0,0,0,0,0
		v2.9c0,0.2-0.1,0.3-0.3,0.3c0,0,0,0,0,0h-4.1c-0.2,0-0.3-0.1-0.3-0.3v-2.9c0-0.1-0.1-0.2-0.1-0.2c0,0,0,0,0,0H56.1z M76.6,115.8
		C76.6,115.8,76.6,115.8,76.6,115.8c0,0-0.1,0-0.1,0l-2,0.1c-0.2,0-0.2-0.1-0.3-0.2l-3.3-6.6h-3.6c-0.1,0-0.1,0-0.1,0.1c0,0,0,0,0,0
		v6.4c0,0.1-0.1,0.2-0.2,0.2c0,0,0,0,0,0h-1.7c-0.1,0-0.2-0.1-0.2-0.2c0,0,0,0,0,0V100c0-0.1,0.1-0.2,0.2-0.2c0,0,0,0,0,0h6
		c3.1,0,5.1,1.8,5.1,4.6c0.1,2-1.3,3.8-3.2,4.4l3.5,6.8C76.7,115.6,76.7,115.7,76.6,115.8z M76.6,90.8c0.2,2.9-1.9,5.3-4.8,5.6
		c0,0,0,0,0,0c-0.3,0-0.5,0-0.8,0c-2.8,0.2-5.3-1.9-5.6-4.7c0-0.3,0-0.6,0-0.8l-0.2,0v-8.9c0-0.1,0.1-0.2,0.2-0.2h2.8
		c0.1,0,0.2,0.1,0.2,0.2v9c-0.2,1.3,0.8,2.5,2.1,2.7H71c1.3,0.1,2.4-1,2.5-2.3c0-0.1,0-0.3,0-0.4v-9c0-0.1,0.1-0.2,0.2-0.2h2.8
		c0.1,0,0.2,0.1,0.2,0.2c0,0,0,0,0,0V90.8z M77.8,95.9l5-14c0-0.1,0.1-0.2,0.3-0.2h2.8c0.1,0,0.2,0.1,0.3,0.2l4.9,14
		c0,0.1,0,0.2-0.2,0.2h-2.8c-0.1,0-0.3-0.1-0.3-0.2l-0.8-2.5h-5.1L81,95.9c0,0.1-0.1,0.2-0.3,0.2h-2.8C77.8,96.1,77.7,96,77.8,95.9z
		 M90.9,112.3c-0.8,2.4-3.1,3.9-5.6,3.8c-2.5,0.2-4.8-1.4-5.6-3.8c-0.4-1.5-0.6-3-0.4-4.5c-0.1-1.5,0-3.1,0.4-4.5
		c0.8-2.4,3.1-4,5.6-3.8c2.5-0.2,4.8,1.4,5.6,3.8c0.4,1.5,0.5,3,0.4,4.5C91.4,109.3,91.3,110.9,90.9,112.3z"/>
	<path class="st0" d="M56.3,84.4c-0.6,0.3-1.1,0.8-1.4,1.4c-0.2,1-0.3,2.1-0.2,3.1c-0.1,1,0,2.1,0.2,3.1c0.3,1,1.3,1.7,2.3,1.6
		c0.3,0,0.5,0,0.8-0.1h0L57,92.6c-0.1-0.1-0.1-0.2,0-0.3l1.7-1.6c0.1-0.1,0.2-0.1,0.3,0c0,0,0,0,0,0l0.6,0.6
		c0.1-0.8,0.1-1.6,0.1-2.4c0.1-1.1,0-2.1-0.2-3.1C59,84.5,57.6,83.9,56.3,84.4z"/>
	<polygon class="st0" points="43.4,85.7 41.7,90.7 45.1,90.7 43.5,85.7 	"/>
	<path class="st0" d="M74.2,104.4c0-1.7-1.1-2.7-3-2.7h-3.8c-0.1,0-0.1,0-0.2,0.1c0,0,0,0,0,0v5.1c0,0.1,0.1,0.1,0.1,0.1h3.9
		C73,107.1,74.2,106.1,74.2,104.4z"/>
	<polygon class="st0" points="84.4,85.7 84.3,85.7 82.7,90.7 86,90.7 	"/>
	<path class="st0" d="M83.9,101.7c-1,0.4-1.7,1.1-2.1,2.1c-0.3,1.3-0.4,2.6-0.4,4c-0.1,1.3,0.1,2.6,0.4,3.9c0.8,1.9,2.9,2.9,4.9,2.1
		c1-0.4,1.7-1.1,2.1-2.1v0c0.3-1.3,0.4-2.6,0.4-4c0.1-1.3-0.1-2.7-0.4-4C88,101.9,85.8,101,83.9,101.7z"/>
</g>
</svg>
