<?xml version="1.0" encoding="utf-8"?>
<!-- Generator: Adobe Illustrator 24.1.3, SVG Export Plug-In . SVG Version: 6.00 Build 0)  -->
<svg version="1.1" id="Layer_1" xmlns="http://www.w3.org/2000/svg" xmlns:xlink="http://www.w3.org/1999/xlink" x="0px" y="0px"
	 viewBox="0 0 128 128" style="enable-background:new 0 0 128 128;" xml:space="preserve">
<style type="text/css">
	.st0{fill:#1D1D1B;}
</style>
<g id="aranzator_1_">
	<polygon class="st0" points="29.7,34.2 0,64 22.3,86.3 29.7,93.8 59.5,64 	"/>
	<polygon class="st0" points="64,68.4 93.7,98.2 64,128 64,128 93.8,98.2 64,68.4 	"/>
	<polygon class="st0" points="64,68.4 64,68.4 34.2,98.2 64,128 64,128 34.2,98.2 	"/>
	<path class="st0" d="M64,68.4L34.2,98.2L64,128l29.8-29.8L64,68.4z M64,116.7L45.5,98.2L64,79.7l18.4,18.5L64,116.7z"/>
	<polygon class="st0" points="34.2,29.8 64,0 93.7,29.8 93.7,29.8 64,0 34.2,29.8 64,59.6 	"/>
	<rect x="57.8" y="44.7" transform="matrix(0.7071 -0.7071 0.7071 0.7071 -8.4882 68.8406)" class="st0" width="42.1" height="0"/>
	<path class="st0" d="M34.2,29.8L64,59.6l29.8-29.8L64,0L34.2,29.8z M64,48.3L45.5,29.8L64,11.3l18.4,18.5L64,48.3z"/>
	<polygon class="st0" points="98.2,34.2 68.4,64 98.2,34.2 128,64 98.2,93.8 98.2,93.8 128,64 	"/>
	<rect x="83.3" y="57.8" transform="matrix(0.7071 -0.7071 0.7071 0.7071 -31.3815 82.0091)" class="st0" width="0" height="42.1"/>
	<path class="st0" d="M98.2,34.2L68.4,64l29.8,29.8L128,64L98.2,34.2z M98.2,82.4L79.7,64l18.5-18.5L116.6,64L98.2,82.4z"/>
</g>
</svg>
