<?xml version="1.0" encoding="utf-8"?>
<!-- Generator: Adobe Illustrator 24.1.3, SVG Export Plug-In . SVG Version: 6.00 Build 0)  -->
<svg version="1.1" id="Layer_1" xmlns="http://www.w3.org/2000/svg" xmlns:xlink="http://www.w3.org/1999/xlink" x="0px" y="0px"
	 viewBox="0 0 128 128" style="enable-background:new 0 0 128 128;" xml:space="preserve">
<style type="text/css">
	.st0{fill:#1D1D1B;}
</style>
<g id="monter">
	<g id="Layer_2_16_">
		<g id="Layer_1-2_15_">
			<path id="Icon_metro-tools_1_" class="st0" d="M125.5,21.1c6.8,16.2-0.9,34.9-17.2,41.7c-9.1,3.8-19.4,3.2-28-1.7l-8.8,9.6L78,77
				l3.8-3.7c1.9-1.9,5-1.9,6.9,0c0,0,0,0,0,0l0,0l30.5,30.8c1.8,2,1.8,5,0,7l0,0L105.2,125c-1.9,1.9-5,1.9-6.9,0c0,0,0,0,0,0l0,0
				L67.6,94.2c-1.8-2-1.8-5,0-7l0,0l3.4-3.4l-6-6l-42.1,46.1c-3.9,3.8-10.1,3.8-13.9,0l0,0l-3.5-3.5c-3.8-3.8-3.9-10-0.1-13.8
				c0,0,0,0,0.1-0.1l0,0l48-40.2l-31.8-32h-10L0,15.5l9.4-9.4l19.2,11.7v9.9l32.2,32.4l9.4-7.8c-10.5-14.2-7.5-34.2,6.7-44.6
				c9-6.7,20.9-8.1,31.3-3.8L87.3,24.2l17.4,17.4L125.5,21.1z M17.2,111.3c-1.9-1.9-5.1-1.9-7,0c-1.9,1.9-1.9,5.1,0,7s5.1,1.9,7,0
				c0,0,0,0,0,0C19.1,116.4,19.1,113.3,17.2,111.3z"/>
		</g>
	</g>
</g>
</svg>
