<?xml version="1.0" encoding="utf-8"?>
<!-- Generator: Adobe Illustrator 24.1.3, SVG Export Plug-In . SVG Version: 6.00 Build 0)  -->
<svg version="1.1" id="Layer_1" xmlns="http://www.w3.org/2000/svg" xmlns:xlink="http://www.w3.org/1999/xlink" x="0px" y="0px"
	 viewBox="0 0 128 128" style="enable-background:new 0 0 128 128;" xml:space="preserve">
<style type="text/css">
	.st0{fill:#1D1D1B;}
</style>
<g id="ceneo">
	<path class="st0" d="M103.7,72.6c-0.3,1-0.7,2-1.1,3v0.2c-0.2,0.4-0.4,0.8-0.5,1.2c0.3,0.1,0.6,0.2,0.9,0.2c1.3,0,2.3-1,2.3-2.3
		v-0.1C105.3,73.7,104.6,72.9,103.7,72.6z"/>
	<path class="st0" d="M100.4,73.9c0-0.1,0-0.1,0.1-0.1c0.5-1.2,1.8-1.7,3-1.3c0,0,0.1,0,0.1,0.1c1.1-3.3,1.6-6.8,1.3-10.3
		c-0.3-4.6-1.7-9-4.2-12.9v-0.2c-2.5-3.8-4-8.3-4.2-12.9l-45.6,2.6L5.5,41.5c0.3,4.6-0.7,9.2-2.7,13.3V55
		c-4.1,8.4-3.6,18.3,1.5,26.2l0.1,0.2c2.5,3.8,3.9,8.3,4.2,12.9l45.6-2.6L99.4,89c-0.2-4.2,0.6-8.3,2.3-12.1
		C100.5,76.4,99.9,75.1,100.4,73.9z M13.8,71.3c0.5,1.6,2,2.6,3.7,2.4c1.1-0.1,2.1-0.4,3-0.9c0.4-0.2,0.8-0.4,1.2-0.4
		c0.3,0,0.4,0.2,0.5,0.4l1.2,2c0.1,0.2,0.2,0.4,0.2,0.5c0.1,0.8-2.7,2.4-6.3,2.4c-6.7,0-9.9-4.1-9.9-12.4c0-8.3,3.5-12.7,9.9-12.7
		c2.7,0,6.3,1.8,6.3,2.7c0,0.2-0.1,0.4-0.2,0.6L22,57.8c-0.1,0.2-0.3,0.4-0.6,0.4c-0.3-0.1-0.6-0.3-0.9-0.5c-0.8-0.7-1.9-1.1-3-1.1
		c-3.3,0-4.6,2.3-4.6,7.8C12.8,66.8,13.1,69.1,13.8,71.3z M40.6,54.2l-0.8,2.4c-0.1,0.5-0.5,0.7-1,0.7c0,0,0,0,0,0h-7.2v5.4h6.3
		c0.3,0,0.5,0,0.8,0.2c0.1,0.2,0.2,0.5,0.1,0.8V66c0,0.7-0.3,0.9-0.9,0.9h-6.2v6.5h8c0.8,0,0.9,0.2,0.9,0.9v2.3
		c0,0.7-0.2,0.8-0.9,0.8H27.1c-0.3,0-0.6,0-0.8-0.2c-0.1-0.2-0.2-0.4-0.2-0.7V54.2c0-0.8,0.3-0.9,0.9-0.9h12.4c0.7,0,1.1,0,1.1,0.5
		C40.6,54,40.6,54.1,40.6,54.2z M60.9,76.4c0,0.7-0.2,0.9-0.9,0.9h-2.5c-0.6,0-0.8,0-1-0.5l-6.8-11.8c-0.8-1.3-1.4-2.6-1.9-4v15.3
		c0,0.8-0.3,0.9-0.9,0.9h-2.8c-0.7,0-0.9-0.1-0.9-0.9V54.1c0-0.7,0.2-0.8,0.9-0.8h3.2c0.6,0,0.8,0,1,0.5l6.2,10.7
		c0.8,1.5,1.5,3,2.1,4.6V54.2c0-0.7,0.3-0.8,0.9-0.8h2.8c0.6,0,0.9,0,0.9,0.9L60.9,76.4z M78.3,54.3l-0.8,2.4
		c-0.1,0.4-0.5,0.7-1,0.7h-7.2v5.4h6.3c0.3,0,0.5,0,0.8,0.2c0.2,0.2,0.2,0.4,0.2,0.7v2.3c0,0.7-0.2,0.8-0.9,0.8h-6.4v6.5h8
		c0.8,0,1,0.2,1,0.9v2.3c0,0.7-0.2,0.8-0.9,0.8H64.8c-0.7,0-0.9-0.1-0.9-0.9V54.2c0-0.7,0.3-0.9,0.9-0.9h12.4c0.7,0,1.1,0,1.1,0.5
		C78.4,54,78.4,54.1,78.3,54.3z M98,65.4c0,8.1-3.5,12.5-9.6,12.5c-6.2,0-9.6-4.4-9.6-12.5s3.4-12.5,9.6-12.5c2.7-0.1,5.3,1,7,3.1
		C97.4,58.7,98.3,62,98,65.4z"/>
	<path class="st0" d="M88.4,56.7v0.1c-3.2,0-3.9,4.6-3.9,8.5c0,4,0.7,8.6,3.9,8.6c3.2,0,3.9-4.7,3.9-8.6c0.1-2.2-0.2-4.3-0.9-6.4
		C91,57.7,89.8,56.7,88.4,56.7z"/>
	<path class="st0" d="M116.9,63.2c-1.7,0-3.3,0.9-4.2,2.3c0-1.3-0.2-2.3-0.5-2.3h-0.3l-2.1,0.8c-0.1,0-0.3,0-0.3,0.3s0.2,1,0.2,1.6
		c0,0.5,0,0.9,0,1.4l-3,14.1c0,0.2,0,0.4,0,0.5s0,0.3,0.1,0.3h0.3l2.3-0.5c0.4,0,0.4-0.2,0.5-0.5l1-4.8c0.7,0.5,1.5,0.7,2.3,0.7
		c4.6,0,6.7-5.7,6.7-9.9C119.7,64.5,118.8,63.2,116.9,63.2z M113,74.6L113,74.6c-0.6,0-1.2-0.2-1.7-0.5l0.9-4.3
		c0.4-1.9,1.6-3.9,3.2-3.9c0.8,0,1.3,0.7,1.3,1.8C116.6,70.4,115.6,74.6,113,74.6z"/>
	<path class="st0" d="M128,58.5V58c0-0.2,0-0.3-0.1-0.3h-0.4l-2.3,0.5c-0.4,0-0.4,0.2-0.5,0.4l-2.9,13.7c-0.2,0.9-0.3,1.8-0.3,2.8
		c0,1.7,1,2.3,2.6,2.3c1,0,2.6-0.4,2.6-0.8v-0.3l-0.3-1.8c0-0.2,0-0.2-0.2-0.2c-0.3,0.1-0.7,0.1-1,0.2c-0.4,0-0.6-0.2-0.6-0.5
		c0.1-0.6,0.2-1.1,0.3-1.7L128,58.5z"/>
</g>
</svg>
