<?xml version="1.0" encoding="utf-8"?>
<!-- Generator: Adobe Illustrator 24.1.3, SVG Export Plug-In . SVG Version: 6.00 Build 0)  -->
<svg version="1.1" id="Layer_1" xmlns="http://www.w3.org/2000/svg" xmlns:xlink="http://www.w3.org/1999/xlink" x="0px" y="0px"
	 viewBox="0 0 128 128" style="enable-background:new 0 0 128 128;" xml:space="preserve">
<style type="text/css">
	.st0{fill:#1D1D1B;}
</style>
<g id="fb">
	<g id="Layer_2_5_">
		<g id="Layer_1-2_4_">
			<path id="Icon_ionic-logo-facebook_1_" class="st0" d="M120.9,0H7.1C3.2,0,0,3.2,0,7.1c0,0,0,0,0,0v113.9c0,3.9,3.2,7.1,7.1,7.1
				H64V77.3H48.7V58.9H64v-14c-0.5-13.3,9.8-24.5,23-25.2c1.1-0.1,2.2-0.1,3.3,0c7.1,0,14.7,0.5,16.4,0.8v17H94.9
				c-8,0-9.9,3.8-9.9,9.4v12.1h19.6l-2.5,18.7H85.4v50.6h35.6c3.9,0,7.1-3.2,7.1-7.1V7.1C128,3.2,124.8,0,120.9,0z"/>
		</g>
	</g>
</g>
</svg>
