<?xml version="1.0" encoding="utf-8"?>
<!-- Generator: Adobe Illustrator 24.1.3, SVG Export Plug-In . SVG Version: 6.00 Build 0)  -->
<svg version="1.1" id="Layer_1" xmlns="http://www.w3.org/2000/svg" xmlns:xlink="http://www.w3.org/1999/xlink" x="0px" y="0px"
	 viewBox="0 0 128 128" style="enable-background:new 0 0 128 128;" xml:space="preserve">
<style type="text/css">
	.st0{fill:#1D1D1B;}
</style>
<g id="aranzator">
	<g id="Layer_2_17_">
		<g id="Layer_1-2_16_">
			<path class="st0" d="M126.9,68.6l-19.1-11.5l-5.3-3.2l-13.8-8.2l-5.3-3L64.4,31.1L64,30.8l-0.4,0.2L44.5,42.6l-5.3,3.2L25.5,54
				l-5.3,3.2L1.1,68.6L0,69.3l1.1,0.7l24.3,14.7l19.1,11.5l19.1,11.5l0.4,0.2l0.4-0.2l19.1-11.5l19.1-11.5L126.9,70l1.1-0.7
				L126.9,68.6z M114.6,69.3l-12.4,7.4l-12.4-7.4l12.4-7.4L114.6,69.3z M64,53.8l-12.4-7.4L64,38.9l12.4,7.4L64,53.8z M70.7,57.7
				l12.4-7.3l12.5,7.3l-12.5,7.5L70.7,57.7z M83.1,73.2l12.5,7.5l-12.5,7.4l-6.5-3.9l-6-3.5L83.1,73.2z M57.5,88.6l6.5-3.9l6.5,3.9
				l6,3.5L64,99.6l-12.4-7.4L57.5,88.6z M51.5,69.2l12.4-7.4l12.4,7.4l-12.4,7.4L51.5,69.2z M44.8,65.3l-12.3-7.5l12.3-7.3l12.5,7.3
				L44.8,65.3z M44.8,73.3l12.4,7.4l-6,3.5l-6.4,3.9l-12.3-7.4L44.8,73.3z M38.1,69.3l-12.3,7.4l-12.4-7.4l12.4-7.4L38.1,69.3z"/>
		</g>
	</g>
</g>
</svg>
