<?xml version="1.0" encoding="utf-8"?>
<!-- Generator: Adobe Illustrator 24.1.3, SVG Export Plug-In . SVG Version: 6.00 Build 0)  -->
<svg version="1.1" id="Layer_1" xmlns="http://www.w3.org/2000/svg" xmlns:xlink="http://www.w3.org/1999/xlink" x="0px" y="0px"
	 viewBox="0 0 128 128" style="enable-background:new 0 0 128 128;" xml:space="preserve">
<style type="text/css">
	.st0{fill:#1D1D1B;}
</style>
<g id="ogrzew">
	<g id="Layer_2_10_">
		<g id="Layer_1-2_9_">
			<path id="Union_22_1_" class="st0" d="M0.9,127.2v-128h128v128H0.9z M13.1,105.2c0,4.2,1.6,8.2,4.6,11.2c2.9,3,6.9,4.6,11.1,4.6
				h85.7v-12H28.9c-2.1,0-3.9-1.7-3.9-3.8c0,0,0-0.1,0-0.1l0,0c0-2.1,1.6-3.8,3.7-3.8c0,0,0,0,0,0h72.2c8.7,0,15.8-7.1,15.8-15.8
				c0-8.7-7.1-15.8-15.8-15.8H13.1v11.9h87.6c2.1-0.1,4,1.5,4.1,3.7c0,0,0,0.1,0,0.1c0,2.2-1.8,3.9-4,3.9c0,0-0.1,0-0.1,0H28.8
				C20.1,89.5,13.1,96.5,13.1,105.2L13.1,105.2z M4.6,63.7h120.6V3H4.6V63.7z M111.8,52.4H94V27.7h-3.8l13.2-14.5l13.2,14.5H113
				v24.6L111.8,52.4z M73.3,52.4H55.5V27.7h-3.8l13.2-14.5l13.2,14.5h-3.7v24.6L73.3,52.4z M34.8,52.4H16.9V27.7h-3.8l13.2-14.6
				l13.2,14.6h-3.7v24.6L34.8,52.4z"/>
		</g>
	</g>
</g>
</svg>
