<?xml version="1.0" encoding="utf-8"?>
<!-- Generator: Adobe Illustrator 24.1.3, SVG Export Plug-In . SVG Version: 6.00 Build 0)  -->
<svg version="1.1" id="Layer_1" xmlns="http://www.w3.org/2000/svg" xmlns:xlink="http://www.w3.org/1999/xlink" x="0px" y="0px"
	 viewBox="0 0 128 128" style="enable-background:new 0 0 128 128;" xml:space="preserve">
<style type="text/css">
	.st0{fill:#1D1D1B;}
</style>
<g id="insta">
	<g id="Layer_2_7_">
		<g id="Layer_1-2_6_">
			<g id="Icon_ionic-logo-instagram_1_">
				<path id="Path_6221_1_" class="st0" d="M90.4,10.6c14.7,0.1,26.6,12.1,26.5,26.8c0,0,0,0,0,0.1v53.1c0,14.6-11.9,26.5-26.5,26.6
					H37.5c-14.7,0.1-26.7-11.7-26.8-26.5c0-0.1,0-0.3,0-0.4V37.4c-0.1-14.8,11.8-26.8,26.6-26.8c0.1,0,0.2,0,0.3,0h53.1 M90.6,0
					H37.5C16.8,0,0.1,16.8,0.1,37.4v53.1c0,20.7,16.8,37.4,37.4,37.4h53.1c20.7,0,37.4-16.8,37.4-37.4V37.4
					C128.1,16.8,111.3,0,90.6,0c-0.1,0-0.2,0-0.2,0H90.6z"/>
				<path id="Path_6222_1_" class="st0" d="M98.3,37.4c-4.4,0.1-8-3.5-8.1-7.9s3.5-8,7.9-8.1c4.4-0.1,8,3.4,8.1,7.7l0,0
					c0.1,4.4-3.3,8.1-7.7,8.2C98.4,37.4,98.4,37.4,98.3,37.4L98.3,37.4z"/>
				<path id="Path_6223_1_" class="st0" d="M63.8,42.5C75.5,42.5,85,52,85,63.7s-9.5,21.2-21.2,21.2s-21.2-9.5-21.2-21.2l0,0
					C42.6,52,52.1,42.5,63.8,42.5L63.8,42.5 M63.8,31.9c-17.6,0-31.9,14.2-32,31.8s14.2,31.9,31.8,32c17.6,0,31.9-14.2,32-31.8
					c0,0,0-0.1,0-0.1l0,0C95.6,46.1,81.4,31.9,63.8,31.9z"/>
			</g>
		</g>
	</g>
</g>
</svg>
