<?xml version="1.0" encoding="utf-8"?>
<!-- Generator: Adobe Illustrator 24.1.3, SVG Export Plug-In . SVG Version: 6.00 Build 0)  -->
<svg version="1.1" id="Layer_1" xmlns="http://www.w3.org/2000/svg" xmlns:xlink="http://www.w3.org/1999/xlink" x="0px" y="0px"
	 viewBox="0 0 128 128" style="enable-background:new 0 0 128 128;" xml:space="preserve">
<style type="text/css">
	.st0{fill:#1D1D1B;}
</style>
<path id="katalogi" class="st0" d="M127.3,67.6c0,0,0-0.1,0-0.2c0.5-1.1,0.7-2.4,0.7-3.7c0-1.3-0.3-2.5-0.7-3.7c0-0.1,0-0.1,0-0.2
	c-0.5-1.3-1.3-2.4-2.2-3.3L71.2,2.7c-3.9-3.9-10.3-3.9-14.3,0C53,6.6,53,13,57,17l36.6,36.6H10.2c-5.6,0-10.1,4.5-10.1,10.1
	c0,5.6,4.5,10.1,10.1,10.1h83.4L57,110.5c-3.9,3.9-3.9,10.3,0,14.3c2,2,4.6,3,7.1,3c2.6,0,5.2-1,7.1-3l53.9-53.9
	C126.1,69.9,126.8,68.8,127.3,67.6z"/>
</svg>
