<?xml version="1.0" encoding="utf-8"?>
<!-- Generator: Adobe Illustrator 24.1.3, SVG Export Plug-In . SVG Version: 6.00 Build 0)  -->
<svg version="1.1" id="Layer_1" xmlns="http://www.w3.org/2000/svg" xmlns:xlink="http://www.w3.org/1999/xlink" x="0px" y="0px"
	 viewBox="0 0 128 128" style="enable-background:new 0 0 128 128;" xml:space="preserve">
<style type="text/css">
	.st0{fill:#1D1D1B;}
</style>
<g id="gdzie">
	<g id="Layer_2_15_">
		<g id="Layer_1-2_12_">
			<g id="Group_402_1_">
				<path id="Subtraction_3_1_" class="st0" d="M64,128L64,128c-8.1-9.3-15.7-19.1-22.6-29.3c-6-8.6-11.2-17.8-15.6-27.3
					c-4.2-8.6-6.6-17.9-7.1-27.5C19.5,18.9,40.4-0.8,65.4,0c23.9,0.8,43.1,20,43.9,43.9l0,0c-0.4,9.6-2.8,19-7.1,27.6
					c-4.4,9.5-9.6,18.7-15.6,27.4C79.7,109,72.1,118.8,64,128z M64,50.2L64,50.2l13.8,17.8h18.4l-19-24l19.1-24H77.9L47.8,58.4V68
					H64C64,68,64,50.2,64,50.2z M31.7,36v16h16.1L64,31.3V20H47.8v16L31.7,36z"/>
			</g>
		</g>
	</g>
</g>
</svg>
