<svg xmlns="http://www.w3.org/2000/svg" xmlns:xlink="http://www.w3.org/1999/xlink" viewBox="0 0 239.32 35.5"><defs><style>.cls-1{fill:none;}.cls-2{clip-path:url(#clip-path);}.cls-3{fill:#d13239;}.cls-4{fill:#fff;}.cls-5{fill:#55565b;}</style><clipPath id="clip-path" transform="translate(-21.15 -14.01)"><rect class="cls-1" width="282.09" height="64.36"/></clipPath></defs><g id="Layer_2" data-name="Layer 2"><g id="Layer_1-2" data-name="Layer 1"><g class="cls-2"><path class="cls-3" d="M21.15,31.76A17.75,17.75,0,1,0,38.9,14,17.75,17.75,0,0,0,21.15,31.76" transform="translate(-21.15 -14.01)"/><polygon class="cls-4" points="10.65 21.3 17.75 12.12 17.75 7.1 10.65 7.1 10.65 14.2 3.55 14.2 3.55 21.3 10.65 21.3 10.65 21.3"/><polygon class="cls-4" points="23.57 17.75 31.95 7.1 23.85 7.1 10.65 24.17 10.65 28.4 17.75 28.4 17.75 20.51 23.85 28.4 31.95 28.4 23.57 17.75"/><path class="cls-5" d="M66.64,39.83a.38.38,0,0,1,0-.53L69,36.58a.31.31,0,0,1,.47,0A9.08,9.08,0,0,0,75,38.74c2.22,0,3.48-1,3.48-2.54,0-1.25-.75-2-3.29-2.38l-1.13-.15c-4.32-.6-6.73-2.63-6.73-6.39,0-3.91,2.94-6.51,7.55-6.51A12.12,12.12,0,0,1,82.14,23c.18.13.22.26.06.47l-1.91,2.85a.32.32,0,0,1-.44.1,8.75,8.75,0,0,0-4.94-1.63c-1.88,0-2.85,1-2.85,2.31s.87,2,3.32,2.35l1.12.16c4.38.59,6.7,2.6,6.7,6.45s-2.85,6.7-8.36,6.7a12.53,12.53,0,0,1-8.2-2.92" transform="translate(-21.15 -14.01)"/><path class="cls-5" d="M101.33,42.4a.41.41,0,0,1-.41-.31L97.23,28.85h-.06L93.44,42.09a.4.4,0,0,1-.41.31H89.9a.39.39,0,0,1-.37-.31L84,21.43c0-.19,0-.31.25-.31h4a.34.34,0,0,1,.37.31L91.75,34.8h.06l3.63-13.37a.41.41,0,0,1,.41-.31h2.72a.39.39,0,0,1,.38.31l3.76,13.37h.06l2.94-13.37a.33.33,0,0,1,.38-.31h4c.22,0,.29.12.25.31l-5.47,20.66a.38.38,0,0,1-.41.31Z" transform="translate(-21.15 -14.01)"/><rect class="cls-5" x="91.14" y="7.11" width="4.6" height="21.29" rx="0.31"/><path class="cls-5" d="M119.76,39.83a.39.39,0,0,1,0-.53l2.38-2.72a.31.31,0,0,1,.47,0,9.09,9.09,0,0,0,5.58,2.19c2.22,0,3.47-1,3.47-2.54,0-1.25-.75-2-3.29-2.38l-1.12-.15c-4.32-.6-6.74-2.63-6.74-6.39,0-3.91,3-6.51,7.55-6.51A12.07,12.07,0,0,1,135.26,23c.19.13.22.26.06.47l-1.91,2.85a.32.32,0,0,1-.44.1A8.73,8.73,0,0,0,128,24.78c-1.88,0-2.85,1-2.85,2.31s.88,2,3.32,2.35l1.13.16c4.38.59,6.69,2.6,6.69,6.45s-2.84,6.7-8.35,6.7a12.56,12.56,0,0,1-8.21-2.92" transform="translate(-21.15 -14.01)"/><path class="cls-5" d="M138.45,39.83a.39.39,0,0,1,0-.53l2.38-2.72a.31.31,0,0,1,.47,0,9.08,9.08,0,0,0,5.57,2.19c2.23,0,3.48-1,3.48-2.54,0-1.25-.75-2-3.29-2.38l-1.13-.15c-4.32-.6-6.73-2.63-6.73-6.39,0-3.91,3-6.51,7.55-6.51A12.12,12.12,0,0,1,154,23c.19.13.22.26.06.47l-1.91,2.85a.32.32,0,0,1-.44.1,8.73,8.73,0,0,0-4.94-1.63c-1.88,0-2.85,1-2.85,2.31s.88,2,3.32,2.35l1.12.16c4.39.59,6.7,2.6,6.7,6.45s-2.85,6.7-8.35,6.7a12.56,12.56,0,0,1-8.21-2.92" transform="translate(-21.15 -14.01)"/><path class="cls-5" d="M165.51,21.43a.29.29,0,0,1,.31-.31h4a.3.3,0,0,1,.32.31v9.2l7.07-9.23a.55.55,0,0,1,.53-.28h4.54c.19,0,.28.21.13.4l-6.45,8.08L183,42c.13.22,0,.37-.19.37h-4.6a.45.45,0,0,1-.47-.28l-4.82-8.95-2.78,3.5v5.42a.3.3,0,0,1-.32.31h-4a.29.29,0,0,1-.31-.31Z" transform="translate(-21.15 -14.01)"/><path class="cls-5" d="M196.84,42.4a.43.43,0,0,1-.47-.31l-3.66-7.8h-2.85a.17.17,0,0,0-.18.19v7.61a.3.3,0,0,1-.32.31h-4a.3.3,0,0,1-.32-.31V21.43a.3.3,0,0,1,.32-.31h8.48c4.35,0,7.23,2.72,7.23,6.6a6.25,6.25,0,0,1-3.79,5.92l4.2,8.39a.24.24,0,0,1-.22.37Zm-.34-14.68a2.59,2.59,0,0,0-2.88-2.63h-3.76c-.12,0-.18.06-.18.19v4.91c0,.13.06.19.18.19h3.76a2.59,2.59,0,0,0,2.88-2.66" transform="translate(-21.15 -14.01)"/><path class="cls-5" d="M204.46,37.58c-.47-1.47-.59-2.66-.59-5.82s.12-4.35.59-5.82c1.1-3.45,4-5.17,7.76-5.17s6.67,1.72,7.77,5.17c.47,1.47.59,2.66.59,5.82s-.12,4.35-.59,5.82c-1.1,3.44-4,5.17-7.77,5.17s-6.66-1.73-7.76-5.17m11.11-1.25a15.55,15.55,0,0,0,.35-4.57,15.5,15.5,0,0,0-.35-4.57,3.56,3.56,0,0,0-6.7,0,15.66,15.66,0,0,0-.34,4.57,15.71,15.71,0,0,0,.34,4.57,3.56,3.56,0,0,0,6.7,0" transform="translate(-21.15 -14.01)"/><path class="cls-5" d="M223.93,21.43a.3.3,0,0,1,.32-.31H228a.57.57,0,0,1,.53.31l7.52,13.4h.15V21.43a.3.3,0,0,1,.32-.31h3.53a.3.3,0,0,1,.32.31V42.09a.3.3,0,0,1-.32.31h-3.72a.54.54,0,0,1-.53-.31l-7.55-13.37h-.15V42.09a.3.3,0,0,1-.32.31h-3.53a.3.3,0,0,1-.32-.31Z" transform="translate(-21.15 -14.01)"/><path class="cls-5" d="M244.36,37.58c-.47-1.47-.6-2.66-.6-5.82s.13-4.35.6-5.82c1.09-3.45,4-5.17,7.76-5.17s6.67,1.72,7.76,5.17c.47,1.47.6,2.66.6,5.82s-.13,4.35-.6,5.82c-1.09,3.44-4,5.17-7.76,5.17s-6.67-1.73-7.76-5.17m11.11-1.25a15.71,15.71,0,0,0,.34-4.57,15.66,15.66,0,0,0-.34-4.57,3.56,3.56,0,0,0-6.7,0,15.5,15.5,0,0,0-.35,4.57,15.55,15.55,0,0,0,.35,4.57,3.56,3.56,0,0,0,6.7,0" transform="translate(-21.15 -14.01)"/></g></g></g></svg>